M48
;Layer_Color=9474304
;FILE_FORMAT=4:4
METRIC,TZ
;TYPE=PLATED
T1F00S00C0.3000
T3F00S00C1.0000
;TYPE=NON_PLATED
T4F00S00C0.6500
%
T01
X-78740Y6350
X-58420
X-68580Y27940
X-8890Y17780
X-12700Y53340
X-17780Y88900
X-33020Y86360
Y93980
X11430Y90170
X31750Y83820
X38100Y86360
X48070Y95250
Y105410
X62230Y39370
X55880Y19050
X7620Y17780
X3810Y53340
X11430
X-5080
X-1270Y138430
X12700Y132080
X25400
X38100
X48260Y140970
Y151130
X38100Y167640
X27940
X29593Y185951
X45536Y191586
X14719Y198641
X9769Y203591
X14719Y208540
X4820
X-5080
Y198641
Y188741
X-130Y193691
X4820Y188741
Y198641
Y218440
X-130Y213490
X-5080Y218440
X0Y248920
X19050Y242570
X31872Y247676
X31750Y221930
X53340
X62230Y269240
X38100Y267970
Y289560
X63500Y297180
X-41910
X-43180Y269361
X-36830Y252730
X-24130
X-49530Y250190
X-49610Y223600
X-36830Y223520
X-24130
X-14979Y208540
X-10030Y203591
X-14979Y198641
X-30480Y187913
X-36830Y182880
X-45720Y184150
X-43267Y173832
X-19900Y174639
X-22860Y160020
X-11430
X-12700Y138430
X-49530
Y128270
Y118110
Y107950
X-66040Y140970
X-64770Y153670
X-52070Y156210
X-72390Y165100
X-68580Y267970
X-67310Y288290
T03
X-101600Y38100
Y63500
X-101600Y88899
X101600
X101600Y63500
Y38100
X101600Y114299
Y139699
Y165099
X101600Y190500
Y215900
Y241300
Y266700
X-101600
Y241300
Y215900
Y190500
X-101600Y165099
Y139699
Y114299
T04
X-28899Y62987
X28901
M30
