G04*
G04 #@! TF.GenerationSoftware,Altium Limited,Altium Designer,23.4.1 (23)*
G04*
G04 Layer_Color=32896*
%FSLAX44Y44*%
%MOMM*%
G71*
G04*
G04 #@! TF.SameCoordinates,DEFA907D-C73D-477E-9BAD-7C3FCEA48035*
G04*
G04*
G04 #@! TF.FilePolarity,Positive*
G04*
G01*
G75*
%ADD10C,0.2000*%
%ADD13C,0.1000*%
G36*
X-56145Y188552D02*
X-56099Y188473D01*
X-55992Y188321D01*
X-55877Y188178D01*
X-55817Y188108D01*
X-55761Y188043D01*
X-55706Y187988D01*
X-55655Y187932D01*
X-55609Y187886D01*
X-55567Y187845D01*
X-55535Y187812D01*
X-55512Y187789D01*
X-55493Y187775D01*
X-55489Y187771D01*
X-55299Y187614D01*
X-55100Y187470D01*
X-54906Y187341D01*
X-54814Y187285D01*
X-54726Y187230D01*
X-54647Y187184D01*
X-54573Y187142D01*
X-54504Y187105D01*
X-54448Y187077D01*
X-54402Y187054D01*
X-54365Y187036D01*
X-54347Y187026D01*
X-54338Y187022D01*
Y186264D01*
X-54476Y186319D01*
X-54619Y186384D01*
X-54758Y186449D01*
X-54888Y186513D01*
X-54943Y186546D01*
X-54998Y186573D01*
X-55045Y186601D01*
X-55082Y186624D01*
X-55114Y186638D01*
X-55142Y186652D01*
X-55156Y186661D01*
X-55160Y186666D01*
X-55327Y186768D01*
X-55401Y186818D01*
X-55475Y186865D01*
X-55539Y186915D01*
X-55599Y186957D01*
X-55655Y187003D01*
X-55711Y187040D01*
X-55752Y187077D01*
X-55794Y187110D01*
X-55831Y187142D01*
X-55858Y187165D01*
X-55882Y187184D01*
X-55895Y187197D01*
X-55905Y187207D01*
X-55909Y187211D01*
Y182209D01*
X-56695D01*
Y188631D01*
X-56187D01*
X-56145Y188552D01*
D02*
G37*
G36*
X-49918Y185524D02*
X-47445Y182209D01*
X-48462D01*
X-50085Y184424D01*
X-50126Y184479D01*
X-50172Y184549D01*
X-50219Y184623D01*
X-50269Y184701D01*
X-50316Y184766D01*
X-50353Y184826D01*
X-50367Y184844D01*
X-50376Y184863D01*
X-50385Y184872D01*
Y184877D01*
X-50482Y184734D01*
X-50524Y184669D01*
X-50565Y184609D01*
X-50598Y184562D01*
X-50625Y184521D01*
X-50644Y184498D01*
X-50648Y184489D01*
X-52262Y182209D01*
X-53311D01*
X-50917Y185566D01*
X-53136Y188607D01*
X-52211D01*
X-50931Y186902D01*
X-50824Y186763D01*
X-50727Y186629D01*
X-50644Y186509D01*
X-50570Y186402D01*
X-50538Y186356D01*
X-50510Y186310D01*
X-50487Y186273D01*
X-50464Y186245D01*
X-50450Y186217D01*
X-50436Y186199D01*
X-50431Y186190D01*
X-50427Y186185D01*
X-50399Y186241D01*
X-50362Y186301D01*
X-50283Y186425D01*
X-50200Y186555D01*
X-50117Y186684D01*
X-50075Y186740D01*
X-50038Y186795D01*
X-50001Y186846D01*
X-49974Y186888D01*
X-49950Y186920D01*
X-49927Y186948D01*
X-49918Y186966D01*
X-49914Y186971D01*
X-48748Y188607D01*
X-47736D01*
X-49918Y185524D01*
D02*
G37*
G36*
X27528Y162009D02*
X27685Y161995D01*
X27833Y161972D01*
X27972Y161940D01*
X28102Y161903D01*
X28222Y161861D01*
X28328Y161819D01*
X28430Y161778D01*
X28518Y161732D01*
X28596Y161690D01*
X28661Y161649D01*
X28716Y161611D01*
X28758Y161584D01*
X28790Y161556D01*
X28809Y161542D01*
X28814Y161537D01*
X28911Y161445D01*
X28994Y161343D01*
X29072Y161237D01*
X29137Y161126D01*
X29197Y161010D01*
X29248Y160895D01*
X29290Y160784D01*
X29327Y160673D01*
X29354Y160571D01*
X29378Y160474D01*
X29396Y160387D01*
X29410Y160312D01*
X29424Y160252D01*
X29428Y160206D01*
Y160188D01*
X29433Y160174D01*
Y160169D01*
Y160165D01*
X28624Y160081D01*
X28619Y160192D01*
X28610Y160294D01*
X28592Y160391D01*
X28573Y160483D01*
X28545Y160567D01*
X28518Y160641D01*
X28485Y160715D01*
X28453Y160775D01*
X28425Y160830D01*
X28393Y160881D01*
X28365Y160923D01*
X28337Y160960D01*
X28319Y160983D01*
X28300Y161006D01*
X28291Y161015D01*
X28286Y161020D01*
X28222Y161080D01*
X28148Y161131D01*
X28074Y161177D01*
X28000Y161219D01*
X27921Y161251D01*
X27847Y161279D01*
X27773Y161302D01*
X27704Y161320D01*
X27635Y161334D01*
X27575Y161343D01*
X27519Y161353D01*
X27468Y161357D01*
X27431Y161362D01*
X27376D01*
X27279Y161357D01*
X27186Y161348D01*
X27098Y161334D01*
X27015Y161311D01*
X26941Y161288D01*
X26867Y161260D01*
X26803Y161232D01*
X26742Y161200D01*
X26692Y161172D01*
X26645Y161140D01*
X26604Y161112D01*
X26571Y161089D01*
X26544Y161066D01*
X26525Y161052D01*
X26516Y161043D01*
X26511Y161038D01*
X26451Y160978D01*
X26400Y160914D01*
X26354Y160849D01*
X26317Y160779D01*
X26285Y160715D01*
X26257Y160650D01*
X26234Y160585D01*
X26216Y160525D01*
X26202Y160470D01*
X26192Y160419D01*
X26183Y160373D01*
X26179Y160331D01*
X26174Y160299D01*
Y160275D01*
Y160257D01*
Y160252D01*
X26179Y160169D01*
X26188Y160086D01*
X26206Y160003D01*
X26229Y159920D01*
X26289Y159758D01*
X26326Y159684D01*
X26359Y159614D01*
X26391Y159550D01*
X26428Y159490D01*
X26456Y159439D01*
X26484Y159393D01*
X26511Y159360D01*
X26530Y159333D01*
X26539Y159314D01*
X26544Y159309D01*
X26618Y159212D01*
X26710Y159106D01*
X26807Y159000D01*
X26918Y158889D01*
X27029Y158773D01*
X27149Y158662D01*
X27265Y158551D01*
X27385Y158445D01*
X27496Y158343D01*
X27602Y158251D01*
X27695Y158163D01*
X27783Y158094D01*
X27852Y158034D01*
X27880Y158010D01*
X27903Y157987D01*
X27921Y157973D01*
X27935Y157959D01*
X27944Y157955D01*
X27949Y157950D01*
X28069Y157849D01*
X28185Y157752D01*
X28291Y157659D01*
X28393Y157571D01*
X28485Y157483D01*
X28568Y157405D01*
X28642Y157331D01*
X28712Y157261D01*
X28777Y157201D01*
X28827Y157146D01*
X28874Y157100D01*
X28911Y157058D01*
X28938Y157026D01*
X28957Y157003D01*
X28971Y156989D01*
X28975Y156984D01*
X29100Y156827D01*
X29206Y156674D01*
X29294Y156531D01*
X29336Y156466D01*
X29368Y156402D01*
X29396Y156346D01*
X29424Y156295D01*
X29447Y156249D01*
X29461Y156208D01*
X29474Y156175D01*
X29484Y156152D01*
X29493Y156138D01*
Y156133D01*
X29525Y156036D01*
X29548Y155939D01*
X29562Y155847D01*
X29572Y155768D01*
X29576Y155694D01*
X29581Y155667D01*
Y155639D01*
Y155620D01*
Y155606D01*
Y155597D01*
Y155593D01*
X25356D01*
Y156346D01*
X28490D01*
X28439Y156425D01*
X28384Y156503D01*
X28328Y156573D01*
X28277Y156637D01*
X28231Y156688D01*
X28194Y156730D01*
X28171Y156758D01*
X28162Y156767D01*
X28120Y156813D01*
X28065Y156864D01*
X28005Y156919D01*
X27935Y156984D01*
X27861Y157049D01*
X27787Y157118D01*
X27630Y157252D01*
X27556Y157317D01*
X27487Y157377D01*
X27427Y157432D01*
X27366Y157479D01*
X27320Y157520D01*
X27288Y157548D01*
X27265Y157571D01*
X27256Y157576D01*
X27103Y157705D01*
X26960Y157830D01*
X26830Y157946D01*
X26710Y158052D01*
X26599Y158154D01*
X26502Y158246D01*
X26410Y158329D01*
X26331Y158403D01*
X26262Y158473D01*
X26206Y158533D01*
X26155Y158584D01*
X26114Y158625D01*
X26081Y158658D01*
X26063Y158681D01*
X26049Y158694D01*
X26044Y158699D01*
X25980Y158778D01*
X25915Y158852D01*
X25859Y158926D01*
X25809Y158995D01*
X25716Y159129D01*
X25679Y159189D01*
X25647Y159245D01*
X25615Y159296D01*
X25591Y159342D01*
X25568Y159383D01*
X25554Y159416D01*
X25540Y159443D01*
X25531Y159462D01*
X25522Y159476D01*
Y159480D01*
X25471Y159619D01*
X25430Y159753D01*
X25402Y159883D01*
X25383Y159998D01*
X25379Y160049D01*
X25374Y160095D01*
X25370Y160132D01*
X25365Y160169D01*
Y160197D01*
Y160215D01*
Y160229D01*
Y160234D01*
X25370Y160373D01*
X25388Y160507D01*
X25416Y160632D01*
X25448Y160752D01*
X25490Y160863D01*
X25536Y160969D01*
X25587Y161066D01*
X25633Y161154D01*
X25684Y161232D01*
X25735Y161302D01*
X25781Y161362D01*
X25823Y161408D01*
X25855Y161450D01*
X25883Y161478D01*
X25901Y161496D01*
X25906Y161501D01*
X26012Y161593D01*
X26123Y161672D01*
X26239Y161736D01*
X26359Y161796D01*
X26479Y161847D01*
X26604Y161889D01*
X26719Y161921D01*
X26835Y161949D01*
X26941Y161972D01*
X27043Y161986D01*
X27131Y162000D01*
X27209Y162005D01*
X27274Y162009D01*
X27320Y162014D01*
X27362D01*
X27528Y162009D01*
D02*
G37*
G36*
X35604Y158292D02*
X35600Y158107D01*
X35595Y157932D01*
X35581Y157765D01*
X35567Y157613D01*
X35549Y157470D01*
X35530Y157340D01*
X35507Y157220D01*
X35484Y157109D01*
X35461Y157012D01*
X35438Y156929D01*
X35419Y156855D01*
X35401Y156795D01*
X35387Y156748D01*
X35373Y156716D01*
X35369Y156698D01*
X35364Y156688D01*
X35313Y156582D01*
X35258Y156485D01*
X35198Y156388D01*
X35133Y156305D01*
X35068Y156221D01*
X34999Y156152D01*
X34929Y156083D01*
X34865Y156023D01*
X34800Y155972D01*
X34745Y155926D01*
X34689Y155884D01*
X34643Y155851D01*
X34606Y155828D01*
X34574Y155810D01*
X34555Y155801D01*
X34550Y155796D01*
X34439Y155741D01*
X34324Y155694D01*
X34199Y155653D01*
X34079Y155616D01*
X33954Y155588D01*
X33834Y155560D01*
X33714Y155542D01*
X33598Y155523D01*
X33492Y155514D01*
X33390Y155505D01*
X33302Y155496D01*
X33224Y155491D01*
X33163Y155486D01*
X33076D01*
X32905Y155491D01*
X32747Y155500D01*
X32595Y155519D01*
X32452Y155542D01*
X32318Y155569D01*
X32197Y155597D01*
X32086Y155630D01*
X31980Y155662D01*
X31892Y155694D01*
X31809Y155727D01*
X31744Y155754D01*
X31684Y155782D01*
X31643Y155805D01*
X31610Y155824D01*
X31587Y155833D01*
X31583Y155838D01*
X31481Y155907D01*
X31384Y155981D01*
X31300Y156055D01*
X31222Y156133D01*
X31148Y156212D01*
X31083Y156286D01*
X31028Y156360D01*
X30977Y156434D01*
X30931Y156503D01*
X30894Y156563D01*
X30866Y156619D01*
X30838Y156670D01*
X30820Y156707D01*
X30806Y156739D01*
X30801Y156758D01*
X30797Y156762D01*
X30760Y156873D01*
X30723Y156993D01*
X30695Y157114D01*
X30667Y157243D01*
X30630Y157497D01*
X30616Y157622D01*
X30603Y157742D01*
X30593Y157853D01*
X30584Y157959D01*
X30579Y158052D01*
Y158135D01*
X30575Y158200D01*
Y158228D01*
Y158251D01*
Y158269D01*
Y158283D01*
Y158288D01*
Y158292D01*
Y161991D01*
X31421D01*
Y158297D01*
X31425Y158080D01*
X31439Y157881D01*
X31458Y157701D01*
X31481Y157534D01*
X31513Y157386D01*
X31546Y157252D01*
X31583Y157137D01*
X31620Y157035D01*
X31656Y156943D01*
X31693Y156868D01*
X31726Y156804D01*
X31758Y156753D01*
X31781Y156716D01*
X31800Y156688D01*
X31814Y156674D01*
X31818Y156670D01*
X31897Y156596D01*
X31989Y156531D01*
X32086Y156476D01*
X32193Y156425D01*
X32304Y156388D01*
X32415Y156351D01*
X32526Y156323D01*
X32632Y156300D01*
X32738Y156286D01*
X32835Y156272D01*
X32919Y156263D01*
X32997Y156254D01*
X33062D01*
X33108Y156249D01*
X33150D01*
X33251Y156254D01*
X33344Y156258D01*
X33436Y156268D01*
X33524Y156281D01*
X33607Y156300D01*
X33681Y156318D01*
X33751Y156337D01*
X33815Y156355D01*
X33875Y156374D01*
X33926Y156392D01*
X33968Y156411D01*
X34005Y156429D01*
X34037Y156443D01*
X34056Y156453D01*
X34070Y156462D01*
X34074D01*
X34144Y156503D01*
X34204Y156550D01*
X34264Y156596D01*
X34315Y156647D01*
X34365Y156698D01*
X34407Y156748D01*
X34481Y156845D01*
X34536Y156933D01*
X34560Y156970D01*
X34574Y157003D01*
X34587Y157030D01*
X34597Y157049D01*
X34606Y157063D01*
Y157067D01*
X34634Y157146D01*
X34657Y157234D01*
X34675Y157331D01*
X34694Y157428D01*
X34721Y157631D01*
X34731Y157733D01*
X34740Y157830D01*
X34745Y157927D01*
X34749Y158015D01*
X34754Y158094D01*
Y158163D01*
X34758Y158218D01*
Y158260D01*
Y158288D01*
Y158297D01*
Y161991D01*
X35604D01*
Y158292D01*
D02*
G37*
G36*
X-29162Y186949D02*
X-23517D01*
Y186103D01*
X-29162D01*
Y183986D01*
X-29915D01*
Y189057D01*
X-29162D01*
Y186949D01*
D02*
G37*
G36*
X-25057Y183413D02*
X-24918Y183385D01*
X-24789Y183343D01*
X-24664Y183302D01*
X-24548Y183251D01*
X-24442Y183200D01*
X-24340Y183144D01*
X-24252Y183089D01*
X-24174Y183034D01*
X-24104Y182983D01*
X-24044Y182932D01*
X-23993Y182890D01*
X-23952Y182853D01*
X-23924Y182826D01*
X-23906Y182807D01*
X-23901Y182803D01*
X-23813Y182696D01*
X-23735Y182581D01*
X-23670Y182465D01*
X-23614Y182349D01*
X-23563Y182229D01*
X-23522Y182114D01*
X-23490Y181998D01*
X-23466Y181892D01*
X-23443Y181790D01*
X-23430Y181698D01*
X-23416Y181614D01*
X-23411Y181540D01*
X-23406Y181485D01*
X-23402Y181439D01*
Y181402D01*
X-23406Y181231D01*
X-23425Y181069D01*
X-23457Y180912D01*
X-23494Y180768D01*
X-23536Y180630D01*
X-23587Y180505D01*
X-23637Y180385D01*
X-23693Y180278D01*
X-23748Y180186D01*
X-23799Y180098D01*
X-23850Y180029D01*
X-23892Y179969D01*
X-23929Y179918D01*
X-23961Y179886D01*
X-23980Y179867D01*
X-23984Y179858D01*
X-24095Y179751D01*
X-24211Y179654D01*
X-24331Y179571D01*
X-24451Y179502D01*
X-24571Y179442D01*
X-24692Y179391D01*
X-24802Y179354D01*
X-24913Y179321D01*
X-25015Y179294D01*
X-25108Y179275D01*
X-25191Y179261D01*
X-25265Y179252D01*
X-25320Y179247D01*
X-25366Y179243D01*
X-25394D01*
X-25403D01*
X-25519Y179247D01*
X-25625Y179257D01*
X-25727Y179271D01*
X-25824Y179294D01*
X-25917Y179317D01*
X-26000Y179340D01*
X-26078Y179372D01*
X-26152Y179400D01*
X-26217Y179428D01*
X-26272Y179456D01*
X-26319Y179483D01*
X-26360Y179506D01*
X-26393Y179529D01*
X-26416Y179543D01*
X-26430Y179553D01*
X-26434Y179557D01*
X-26508Y179617D01*
X-26578Y179687D01*
X-26638Y179756D01*
X-26693Y179825D01*
X-26744Y179899D01*
X-26786Y179973D01*
X-26827Y180047D01*
X-26860Y180117D01*
X-26892Y180181D01*
X-26915Y180241D01*
X-26938Y180297D01*
X-26952Y180348D01*
X-26966Y180385D01*
X-26975Y180417D01*
X-26980Y180436D01*
Y180440D01*
X-27017Y180362D01*
X-27058Y180288D01*
X-27105Y180218D01*
X-27146Y180154D01*
X-27192Y180093D01*
X-27239Y180043D01*
X-27280Y179992D01*
X-27322Y179950D01*
X-27364Y179909D01*
X-27401Y179876D01*
X-27433Y179848D01*
X-27460Y179825D01*
X-27484Y179807D01*
X-27502Y179793D01*
X-27511Y179788D01*
X-27516Y179784D01*
X-27581Y179742D01*
X-27645Y179710D01*
X-27715Y179677D01*
X-27780Y179654D01*
X-27904Y179613D01*
X-28024Y179585D01*
X-28075Y179576D01*
X-28126Y179571D01*
X-28168Y179562D01*
X-28205D01*
X-28233Y179557D01*
X-28256D01*
X-28270D01*
X-28274D01*
X-28357Y179562D01*
X-28436Y179566D01*
X-28589Y179594D01*
X-28727Y179631D01*
X-28787Y179654D01*
X-28847Y179673D01*
X-28903Y179696D01*
X-28949Y179719D01*
X-28995Y179737D01*
X-29028Y179756D01*
X-29060Y179770D01*
X-29079Y179784D01*
X-29092Y179788D01*
X-29097Y179793D01*
X-29166Y179839D01*
X-29236Y179890D01*
X-29356Y179996D01*
X-29462Y180107D01*
X-29550Y180218D01*
X-29587Y180269D01*
X-29619Y180315D01*
X-29647Y180357D01*
X-29670Y180394D01*
X-29689Y180426D01*
X-29703Y180449D01*
X-29707Y180463D01*
X-29712Y180468D01*
X-29753Y180551D01*
X-29786Y180634D01*
X-29818Y180718D01*
X-29841Y180805D01*
X-29883Y180967D01*
X-29897Y181041D01*
X-29911Y181115D01*
X-29920Y181180D01*
X-29924Y181240D01*
X-29934Y181295D01*
Y181342D01*
X-29938Y181379D01*
Y181430D01*
X-29934Y181568D01*
X-29920Y181702D01*
X-29897Y181832D01*
X-29869Y181952D01*
X-29837Y182063D01*
X-29800Y182164D01*
X-29763Y182262D01*
X-29721Y182349D01*
X-29680Y182428D01*
X-29643Y182497D01*
X-29606Y182557D01*
X-29573Y182608D01*
X-29545Y182650D01*
X-29522Y182678D01*
X-29508Y182696D01*
X-29504Y182701D01*
X-29421Y182793D01*
X-29328Y182876D01*
X-29231Y182950D01*
X-29129Y183015D01*
X-29028Y183075D01*
X-28926Y183131D01*
X-28824Y183177D01*
X-28727Y183218D01*
X-28635Y183251D01*
X-28551Y183279D01*
X-28478Y183302D01*
X-28408Y183320D01*
X-28353Y183334D01*
X-28316Y183343D01*
X-28288Y183353D01*
X-28283D01*
X-28279D01*
X-28140Y182567D01*
X-28246Y182548D01*
X-28344Y182525D01*
X-28431Y182502D01*
X-28514Y182470D01*
X-28593Y182442D01*
X-28663Y182405D01*
X-28727Y182372D01*
X-28787Y182340D01*
X-28833Y182308D01*
X-28880Y182280D01*
X-28917Y182252D01*
X-28944Y182229D01*
X-28968Y182206D01*
X-28986Y182192D01*
X-28995Y182183D01*
X-29000Y182178D01*
X-29051Y182118D01*
X-29097Y182058D01*
X-29134Y181994D01*
X-29166Y181929D01*
X-29199Y181864D01*
X-29222Y181804D01*
X-29254Y181684D01*
X-29268Y181628D01*
X-29277Y181577D01*
X-29282Y181531D01*
X-29287Y181490D01*
X-29291Y181462D01*
Y181416D01*
X-29287Y181332D01*
X-29277Y181249D01*
X-29263Y181175D01*
X-29245Y181101D01*
X-29227Y181036D01*
X-29199Y180972D01*
X-29176Y180916D01*
X-29148Y180865D01*
X-29120Y180819D01*
X-29097Y180778D01*
X-29069Y180745D01*
X-29051Y180713D01*
X-29032Y180690D01*
X-29018Y180676D01*
X-29009Y180667D01*
X-29005Y180662D01*
X-28949Y180611D01*
X-28894Y180565D01*
X-28833Y180523D01*
X-28773Y180491D01*
X-28713Y180463D01*
X-28653Y180440D01*
X-28542Y180403D01*
X-28491Y180389D01*
X-28445Y180380D01*
X-28399Y180375D01*
X-28367Y180371D01*
X-28334Y180366D01*
X-28311D01*
X-28297D01*
X-28293D01*
X-28196Y180371D01*
X-28103Y180385D01*
X-28015Y180403D01*
X-27937Y180431D01*
X-27863Y180459D01*
X-27798Y180491D01*
X-27738Y180528D01*
X-27682Y180565D01*
X-27636Y180607D01*
X-27595Y180639D01*
X-27562Y180676D01*
X-27534Y180704D01*
X-27511Y180731D01*
X-27497Y180750D01*
X-27488Y180764D01*
X-27484Y180768D01*
X-27437Y180842D01*
X-27401Y180921D01*
X-27364Y181000D01*
X-27336Y181078D01*
X-27290Y181231D01*
X-27271Y181300D01*
X-27257Y181369D01*
X-27248Y181434D01*
X-27239Y181490D01*
X-27234Y181540D01*
X-27229Y181587D01*
X-27225Y181619D01*
Y181707D01*
X-27229Y181749D01*
Y181767D01*
X-27234Y181781D01*
Y181795D01*
X-26545Y181882D01*
X-26573Y181762D01*
X-26591Y181656D01*
X-26610Y181563D01*
X-26619Y181480D01*
X-26624Y181416D01*
X-26628Y181369D01*
Y181328D01*
X-26624Y181226D01*
X-26615Y181134D01*
X-26596Y181041D01*
X-26573Y180958D01*
X-26545Y180879D01*
X-26518Y180805D01*
X-26485Y180736D01*
X-26453Y180676D01*
X-26420Y180620D01*
X-26388Y180570D01*
X-26360Y180528D01*
X-26333Y180496D01*
X-26309Y180468D01*
X-26291Y180445D01*
X-26282Y180436D01*
X-26277Y180431D01*
X-26208Y180366D01*
X-26138Y180315D01*
X-26065Y180264D01*
X-25991Y180223D01*
X-25917Y180191D01*
X-25843Y180163D01*
X-25769Y180140D01*
X-25699Y180121D01*
X-25635Y180103D01*
X-25574Y180093D01*
X-25519Y180084D01*
X-25477Y180080D01*
X-25436Y180075D01*
X-25408D01*
X-25389D01*
X-25385D01*
X-25283Y180080D01*
X-25182Y180093D01*
X-25089Y180112D01*
X-25001Y180135D01*
X-24913Y180163D01*
X-24839Y180195D01*
X-24766Y180232D01*
X-24701Y180264D01*
X-24641Y180301D01*
X-24590Y180338D01*
X-24544Y180371D01*
X-24507Y180399D01*
X-24474Y180422D01*
X-24456Y180440D01*
X-24442Y180454D01*
X-24437Y180459D01*
X-24368Y180533D01*
X-24312Y180607D01*
X-24262Y180685D01*
X-24215Y180764D01*
X-24178Y180842D01*
X-24146Y180921D01*
X-24123Y181000D01*
X-24100Y181069D01*
X-24086Y181138D01*
X-24072Y181198D01*
X-24067Y181254D01*
X-24058Y181305D01*
Y181342D01*
X-24053Y181374D01*
Y181397D01*
X-24058Y181485D01*
X-24067Y181563D01*
X-24081Y181642D01*
X-24100Y181716D01*
X-24123Y181785D01*
X-24146Y181850D01*
X-24174Y181910D01*
X-24202Y181966D01*
X-24225Y182017D01*
X-24252Y182058D01*
X-24275Y182100D01*
X-24299Y182127D01*
X-24317Y182155D01*
X-24331Y182174D01*
X-24340Y182183D01*
X-24345Y182188D01*
X-24405Y182248D01*
X-24470Y182299D01*
X-24544Y182349D01*
X-24622Y182396D01*
X-24779Y182474D01*
X-24941Y182539D01*
X-25015Y182562D01*
X-25084Y182585D01*
X-25145Y182604D01*
X-25200Y182617D01*
X-25246Y182631D01*
X-25283Y182641D01*
X-25302Y182645D01*
X-25311D01*
X-25205Y183431D01*
X-25057Y183413D01*
D02*
G37*
G36*
X13699Y47709D02*
X13852Y47686D01*
X13995Y47658D01*
X14129Y47621D01*
X14259Y47575D01*
X14379Y47524D01*
X14485Y47473D01*
X14587Y47418D01*
X14675Y47362D01*
X14753Y47307D01*
X14823Y47256D01*
X14878Y47210D01*
X14920Y47173D01*
X14952Y47145D01*
X14975Y47122D01*
X14980Y47117D01*
X15082Y47002D01*
X15169Y46882D01*
X15243Y46752D01*
X15313Y46623D01*
X15368Y46493D01*
X15414Y46364D01*
X15451Y46234D01*
X15479Y46114D01*
X15507Y45999D01*
X15521Y45892D01*
X15535Y45795D01*
X15544Y45712D01*
X15548Y45643D01*
Y45615D01*
X15553Y45592D01*
Y45573D01*
Y45560D01*
Y45555D01*
Y45550D01*
X15548Y45379D01*
X15530Y45217D01*
X15502Y45060D01*
X15470Y44917D01*
X15428Y44783D01*
X15382Y44658D01*
X15331Y44542D01*
X15280Y44441D01*
X15230Y44348D01*
X15179Y44265D01*
X15132Y44196D01*
X15091Y44140D01*
X15058Y44094D01*
X15031Y44062D01*
X15012Y44039D01*
X15008Y44034D01*
X14901Y43932D01*
X14790Y43844D01*
X14679Y43770D01*
X14564Y43701D01*
X14453Y43646D01*
X14342Y43599D01*
X14231Y43562D01*
X14129Y43535D01*
X14032Y43507D01*
X13944Y43493D01*
X13861Y43479D01*
X13796Y43470D01*
X13741Y43465D01*
X13699Y43461D01*
X13662D01*
X13575Y43465D01*
X13487Y43470D01*
X13325Y43498D01*
X13172Y43535D01*
X13108Y43553D01*
X13043Y43576D01*
X12983Y43599D01*
X12932Y43618D01*
X12890Y43636D01*
X12849Y43655D01*
X12821Y43669D01*
X12798Y43683D01*
X12784Y43687D01*
X12779Y43692D01*
X12631Y43784D01*
X12507Y43886D01*
X12447Y43937D01*
X12396Y43988D01*
X12345Y44034D01*
X12303Y44085D01*
X12262Y44126D01*
X12229Y44168D01*
X12202Y44205D01*
X12174Y44237D01*
X12155Y44265D01*
X12141Y44284D01*
X12137Y44297D01*
X12132Y44302D01*
Y44265D01*
Y44233D01*
Y44205D01*
Y44182D01*
Y44168D01*
Y44154D01*
Y44149D01*
Y44145D01*
X12137Y43965D01*
X12151Y43789D01*
X12169Y43627D01*
X12183Y43549D01*
X12192Y43479D01*
X12202Y43415D01*
X12215Y43359D01*
X12225Y43308D01*
X12234Y43267D01*
X12243Y43230D01*
X12248Y43207D01*
X12252Y43188D01*
Y43183D01*
X12276Y43100D01*
X12299Y43017D01*
X12322Y42943D01*
X12345Y42869D01*
X12373Y42804D01*
X12396Y42744D01*
X12419Y42689D01*
X12442Y42638D01*
X12460Y42592D01*
X12484Y42550D01*
X12497Y42518D01*
X12516Y42490D01*
X12525Y42467D01*
X12534Y42453D01*
X12544Y42444D01*
Y42439D01*
X12613Y42342D01*
X12687Y42254D01*
X12761Y42176D01*
X12830Y42116D01*
X12890Y42065D01*
X12941Y42028D01*
X12960Y42014D01*
X12974Y42004D01*
X12983Y41995D01*
X12987D01*
X13094Y41940D01*
X13200Y41903D01*
X13311Y41875D01*
X13408Y41852D01*
X13496Y41843D01*
X13533Y41838D01*
X13565D01*
X13588Y41834D01*
X13625D01*
X13704Y41838D01*
X13778Y41843D01*
X13912Y41870D01*
X14028Y41908D01*
X14083Y41931D01*
X14129Y41954D01*
X14171Y41972D01*
X14212Y41995D01*
X14245Y42014D01*
X14268Y42032D01*
X14291Y42046D01*
X14305Y42060D01*
X14314Y42065D01*
X14319Y42069D01*
X14370Y42116D01*
X14411Y42171D01*
X14490Y42291D01*
X14555Y42421D01*
X14605Y42550D01*
X14624Y42606D01*
X14642Y42666D01*
X14656Y42716D01*
X14665Y42758D01*
X14675Y42795D01*
X14679Y42823D01*
X14684Y42841D01*
Y42846D01*
X15438Y42776D01*
X15414Y42638D01*
X15387Y42508D01*
X15350Y42388D01*
X15308Y42273D01*
X15266Y42166D01*
X15216Y42074D01*
X15169Y41986D01*
X15118Y41908D01*
X15072Y41834D01*
X15026Y41773D01*
X14980Y41722D01*
X14943Y41681D01*
X14915Y41644D01*
X14887Y41621D01*
X14873Y41607D01*
X14869Y41602D01*
X14776Y41528D01*
X14679Y41464D01*
X14578Y41408D01*
X14476Y41362D01*
X14374Y41320D01*
X14273Y41288D01*
X14171Y41260D01*
X14074Y41237D01*
X13986Y41223D01*
X13903Y41209D01*
X13829Y41200D01*
X13764Y41191D01*
X13713D01*
X13672Y41186D01*
X13639D01*
X13510Y41191D01*
X13385Y41205D01*
X13265Y41223D01*
X13149Y41246D01*
X13038Y41274D01*
X12941Y41307D01*
X12844Y41339D01*
X12761Y41376D01*
X12682Y41413D01*
X12613Y41445D01*
X12553Y41477D01*
X12502Y41505D01*
X12460Y41528D01*
X12433Y41551D01*
X12414Y41561D01*
X12410Y41565D01*
X12313Y41639D01*
X12225Y41722D01*
X12141Y41810D01*
X12063Y41898D01*
X11993Y41991D01*
X11924Y42083D01*
X11869Y42171D01*
X11813Y42259D01*
X11767Y42342D01*
X11725Y42421D01*
X11693Y42490D01*
X11665Y42550D01*
X11642Y42601D01*
X11628Y42638D01*
X11619Y42661D01*
X11615Y42670D01*
X11568Y42814D01*
X11527Y42962D01*
X11490Y43119D01*
X11457Y43280D01*
X11434Y43442D01*
X11411Y43609D01*
X11393Y43766D01*
X11379Y43918D01*
X11369Y44062D01*
X11360Y44196D01*
X11356Y44316D01*
X11351Y44367D01*
Y44418D01*
Y44464D01*
X11346Y44506D01*
Y44538D01*
Y44566D01*
Y44589D01*
Y44607D01*
Y44616D01*
Y44621D01*
X11351Y44834D01*
X11360Y45037D01*
X11369Y45222D01*
X11388Y45398D01*
X11411Y45560D01*
X11434Y45703D01*
X11457Y45837D01*
X11480Y45957D01*
X11508Y46063D01*
X11531Y46156D01*
X11554Y46234D01*
X11578Y46299D01*
X11596Y46350D01*
X11605Y46387D01*
X11615Y46405D01*
X11619Y46415D01*
X11670Y46530D01*
X11730Y46637D01*
X11790Y46734D01*
X11855Y46826D01*
X11920Y46914D01*
X11984Y46993D01*
X12049Y47066D01*
X12114Y47131D01*
X12174Y47187D01*
X12225Y47238D01*
X12276Y47279D01*
X12322Y47316D01*
X12354Y47339D01*
X12382Y47362D01*
X12400Y47372D01*
X12405Y47376D01*
X12502Y47436D01*
X12599Y47487D01*
X12701Y47533D01*
X12798Y47570D01*
X12895Y47603D01*
X12992Y47631D01*
X13080Y47654D01*
X13168Y47672D01*
X13246Y47686D01*
X13316Y47695D01*
X13380Y47705D01*
X13436Y47709D01*
X13482Y47714D01*
X13542D01*
X13699Y47709D01*
D02*
G37*
G36*
X21674Y41293D02*
X20828D01*
Y44136D01*
X19732D01*
X19635Y44131D01*
X19552Y44126D01*
X19487Y44122D01*
X19441Y44113D01*
X19404Y44108D01*
X19381Y44103D01*
X19376D01*
X19302Y44080D01*
X19233Y44057D01*
X19168Y44025D01*
X19113Y43997D01*
X19062Y43974D01*
X19025Y43951D01*
X19002Y43937D01*
X18992Y43932D01*
X18918Y43881D01*
X18844Y43817D01*
X18775Y43743D01*
X18706Y43673D01*
X18650Y43609D01*
X18604Y43553D01*
X18586Y43530D01*
X18572Y43516D01*
X18567Y43507D01*
X18563Y43502D01*
X18516Y43442D01*
X18465Y43377D01*
X18364Y43239D01*
X18262Y43091D01*
X18165Y42948D01*
X18123Y42883D01*
X18082Y42823D01*
X18045Y42767D01*
X18012Y42716D01*
X17989Y42680D01*
X17971Y42647D01*
X17957Y42629D01*
X17952Y42624D01*
X17106Y41293D01*
X16048D01*
X17153Y43031D01*
X17277Y43216D01*
X17342Y43299D01*
X17402Y43382D01*
X17462Y43456D01*
X17522Y43525D01*
X17578Y43590D01*
X17629Y43650D01*
X17675Y43706D01*
X17721Y43752D01*
X17758Y43789D01*
X17790Y43826D01*
X17818Y43849D01*
X17837Y43872D01*
X17851Y43881D01*
X17855Y43886D01*
X17929Y43946D01*
X18008Y44002D01*
X18091Y44057D01*
X18174Y44103D01*
X18248Y44145D01*
X18281Y44163D01*
X18308Y44177D01*
X18331Y44191D01*
X18350Y44196D01*
X18359Y44205D01*
X18364D01*
X18197Y44233D01*
X18040Y44265D01*
X17897Y44307D01*
X17763Y44348D01*
X17643Y44399D01*
X17527Y44445D01*
X17430Y44496D01*
X17337Y44547D01*
X17259Y44598D01*
X17194Y44644D01*
X17134Y44686D01*
X17088Y44723D01*
X17051Y44755D01*
X17023Y44778D01*
X17009Y44792D01*
X17005Y44797D01*
X16926Y44885D01*
X16857Y44982D01*
X16797Y45074D01*
X16746Y45171D01*
X16704Y45268D01*
X16667Y45365D01*
X16639Y45458D01*
X16616Y45546D01*
X16598Y45629D01*
X16584Y45703D01*
X16575Y45772D01*
X16566Y45828D01*
Y45878D01*
X16561Y45915D01*
Y45934D01*
Y45943D01*
X16566Y46040D01*
X16570Y46137D01*
X16584Y46230D01*
X16602Y46318D01*
X16621Y46401D01*
X16644Y46479D01*
X16672Y46553D01*
X16695Y46623D01*
X16718Y46683D01*
X16746Y46738D01*
X16769Y46789D01*
X16787Y46831D01*
X16806Y46863D01*
X16815Y46886D01*
X16824Y46900D01*
X16829Y46905D01*
X16880Y46983D01*
X16935Y47057D01*
X16995Y47122D01*
X17051Y47187D01*
X17111Y47242D01*
X17171Y47293D01*
X17231Y47335D01*
X17287Y47376D01*
X17337Y47409D01*
X17388Y47436D01*
X17430Y47464D01*
X17467Y47483D01*
X17499Y47496D01*
X17522Y47506D01*
X17536Y47515D01*
X17541D01*
X17629Y47547D01*
X17726Y47575D01*
X17828Y47598D01*
X17929Y47617D01*
X18147Y47649D01*
X18253Y47658D01*
X18355Y47667D01*
X18456Y47677D01*
X18544Y47681D01*
X18627Y47686D01*
X18701D01*
X18757Y47691D01*
X21674D01*
Y41293D01*
D02*
G37*
G36*
X-12616D02*
X-13462D01*
Y44136D01*
X-14558D01*
X-14655Y44131D01*
X-14738Y44126D01*
X-14803Y44122D01*
X-14849Y44113D01*
X-14886Y44108D01*
X-14909Y44103D01*
X-14914D01*
X-14988Y44080D01*
X-15057Y44057D01*
X-15122Y44025D01*
X-15177Y43997D01*
X-15228Y43974D01*
X-15265Y43951D01*
X-15288Y43937D01*
X-15298Y43932D01*
X-15372Y43881D01*
X-15445Y43817D01*
X-15515Y43743D01*
X-15584Y43673D01*
X-15640Y43609D01*
X-15686Y43553D01*
X-15704Y43530D01*
X-15718Y43516D01*
X-15723Y43507D01*
X-15727Y43502D01*
X-15774Y43442D01*
X-15825Y43377D01*
X-15926Y43239D01*
X-16028Y43091D01*
X-16125Y42948D01*
X-16167Y42883D01*
X-16208Y42823D01*
X-16245Y42767D01*
X-16278Y42716D01*
X-16301Y42680D01*
X-16319Y42647D01*
X-16333Y42629D01*
X-16338Y42624D01*
X-17184Y41293D01*
X-18242D01*
X-17137Y43031D01*
X-17013Y43216D01*
X-16948Y43299D01*
X-16888Y43382D01*
X-16828Y43456D01*
X-16768Y43525D01*
X-16712Y43590D01*
X-16661Y43650D01*
X-16615Y43706D01*
X-16569Y43752D01*
X-16532Y43789D01*
X-16500Y43826D01*
X-16472Y43849D01*
X-16453Y43872D01*
X-16439Y43881D01*
X-16435Y43886D01*
X-16361Y43946D01*
X-16282Y44002D01*
X-16199Y44057D01*
X-16116Y44103D01*
X-16042Y44145D01*
X-16010Y44163D01*
X-15982Y44177D01*
X-15959Y44191D01*
X-15940Y44196D01*
X-15931Y44205D01*
X-15926D01*
X-16093Y44233D01*
X-16250Y44265D01*
X-16393Y44307D01*
X-16527Y44348D01*
X-16647Y44399D01*
X-16763Y44445D01*
X-16860Y44496D01*
X-16953Y44547D01*
X-17031Y44598D01*
X-17096Y44644D01*
X-17156Y44686D01*
X-17202Y44723D01*
X-17239Y44755D01*
X-17267Y44778D01*
X-17281Y44792D01*
X-17285Y44797D01*
X-17364Y44885D01*
X-17433Y44982D01*
X-17493Y45074D01*
X-17544Y45171D01*
X-17586Y45268D01*
X-17623Y45365D01*
X-17651Y45458D01*
X-17674Y45546D01*
X-17692Y45629D01*
X-17706Y45703D01*
X-17715Y45772D01*
X-17724Y45828D01*
Y45878D01*
X-17729Y45915D01*
Y45934D01*
Y45943D01*
X-17724Y46040D01*
X-17720Y46137D01*
X-17706Y46230D01*
X-17687Y46318D01*
X-17669Y46401D01*
X-17646Y46479D01*
X-17618Y46553D01*
X-17595Y46623D01*
X-17572Y46683D01*
X-17544Y46738D01*
X-17521Y46789D01*
X-17503Y46831D01*
X-17484Y46863D01*
X-17475Y46886D01*
X-17466Y46900D01*
X-17461Y46905D01*
X-17410Y46983D01*
X-17355Y47057D01*
X-17295Y47122D01*
X-17239Y47187D01*
X-17179Y47242D01*
X-17119Y47293D01*
X-17059Y47335D01*
X-17003Y47376D01*
X-16953Y47409D01*
X-16902Y47436D01*
X-16860Y47464D01*
X-16823Y47483D01*
X-16791Y47496D01*
X-16768Y47506D01*
X-16754Y47515D01*
X-16749D01*
X-16661Y47547D01*
X-16564Y47575D01*
X-16463Y47598D01*
X-16361Y47617D01*
X-16143Y47649D01*
X-16037Y47658D01*
X-15935Y47667D01*
X-15834Y47677D01*
X-15746Y47681D01*
X-15663Y47686D01*
X-15589D01*
X-15533Y47691D01*
X-12616D01*
Y41293D01*
D02*
G37*
G36*
X-20669Y47709D02*
X-20526Y47695D01*
X-20387Y47672D01*
X-20262Y47640D01*
X-20142Y47603D01*
X-20031Y47561D01*
X-19930Y47519D01*
X-19842Y47478D01*
X-19759Y47432D01*
X-19689Y47390D01*
X-19629Y47348D01*
X-19578Y47312D01*
X-19537Y47284D01*
X-19509Y47256D01*
X-19490Y47242D01*
X-19486Y47238D01*
X-19398Y47145D01*
X-19319Y47053D01*
X-19255Y46951D01*
X-19199Y46854D01*
X-19148Y46752D01*
X-19107Y46655D01*
X-19074Y46563D01*
X-19051Y46470D01*
X-19028Y46387D01*
X-19014Y46308D01*
X-19000Y46239D01*
X-18996Y46179D01*
X-18991Y46133D01*
X-18987Y46096D01*
Y46073D01*
Y46063D01*
X-18991Y45980D01*
X-18996Y45897D01*
X-19023Y45744D01*
X-19042Y45675D01*
X-19060Y45610D01*
X-19084Y45550D01*
X-19107Y45495D01*
X-19125Y45444D01*
X-19148Y45398D01*
X-19167Y45361D01*
X-19185Y45328D01*
X-19199Y45301D01*
X-19213Y45282D01*
X-19218Y45273D01*
X-19222Y45268D01*
X-19268Y45208D01*
X-19319Y45153D01*
X-19435Y45051D01*
X-19555Y44963D01*
X-19675Y44889D01*
X-19731Y44861D01*
X-19782Y44834D01*
X-19828Y44811D01*
X-19870Y44792D01*
X-19902Y44778D01*
X-19925Y44769D01*
X-19943Y44760D01*
X-19948D01*
X-19842Y44727D01*
X-19740Y44690D01*
X-19648Y44649D01*
X-19560Y44607D01*
X-19477Y44561D01*
X-19403Y44510D01*
X-19338Y44464D01*
X-19273Y44418D01*
X-19222Y44371D01*
X-19176Y44330D01*
X-19135Y44288D01*
X-19102Y44256D01*
X-19074Y44228D01*
X-19056Y44205D01*
X-19047Y44191D01*
X-19042Y44187D01*
X-18987Y44103D01*
X-18940Y44020D01*
X-18899Y43932D01*
X-18862Y43844D01*
X-18829Y43757D01*
X-18806Y43673D01*
X-18783Y43586D01*
X-18769Y43507D01*
X-18755Y43433D01*
X-18746Y43364D01*
X-18737Y43299D01*
X-18732Y43248D01*
X-18728Y43202D01*
Y43169D01*
Y43151D01*
Y43142D01*
X-18732Y42989D01*
X-18751Y42841D01*
X-18783Y42703D01*
X-18820Y42568D01*
X-18862Y42448D01*
X-18913Y42333D01*
X-18963Y42226D01*
X-19019Y42129D01*
X-19070Y42042D01*
X-19121Y41968D01*
X-19172Y41903D01*
X-19218Y41847D01*
X-19250Y41801D01*
X-19282Y41773D01*
X-19301Y41750D01*
X-19305Y41746D01*
X-19421Y41649D01*
X-19537Y41561D01*
X-19662Y41487D01*
X-19791Y41422D01*
X-19920Y41367D01*
X-20045Y41325D01*
X-20170Y41288D01*
X-20290Y41256D01*
X-20401Y41233D01*
X-20508Y41214D01*
X-20600Y41205D01*
X-20679Y41196D01*
X-20743Y41191D01*
X-20794Y41186D01*
X-20836D01*
X-21007Y41191D01*
X-21173Y41209D01*
X-21326Y41237D01*
X-21474Y41274D01*
X-21608Y41316D01*
X-21732Y41362D01*
X-21848Y41413D01*
X-21954Y41464D01*
X-22047Y41515D01*
X-22125Y41565D01*
X-22199Y41612D01*
X-22255Y41653D01*
X-22301Y41690D01*
X-22334Y41718D01*
X-22357Y41736D01*
X-22361Y41741D01*
X-22463Y41847D01*
X-22555Y41963D01*
X-22629Y42074D01*
X-22699Y42194D01*
X-22754Y42310D01*
X-22800Y42421D01*
X-22842Y42531D01*
X-22870Y42638D01*
X-22893Y42740D01*
X-22911Y42832D01*
X-22925Y42911D01*
X-22934Y42980D01*
X-22939Y43040D01*
X-22944Y43082D01*
Y43109D01*
Y43119D01*
X-22939Y43230D01*
X-22930Y43336D01*
X-22916Y43433D01*
X-22897Y43530D01*
X-22870Y43618D01*
X-22847Y43706D01*
X-22819Y43780D01*
X-22791Y43854D01*
X-22759Y43918D01*
X-22731Y43974D01*
X-22708Y44025D01*
X-22685Y44066D01*
X-22662Y44099D01*
X-22648Y44122D01*
X-22639Y44136D01*
X-22634Y44140D01*
X-22574Y44219D01*
X-22504Y44288D01*
X-22435Y44358D01*
X-22361Y44418D01*
X-22287Y44473D01*
X-22213Y44524D01*
X-22139Y44570D01*
X-22065Y44612D01*
X-22001Y44649D01*
X-21936Y44676D01*
X-21880Y44704D01*
X-21830Y44723D01*
X-21788Y44741D01*
X-21760Y44750D01*
X-21737Y44760D01*
X-21732D01*
X-21820Y44797D01*
X-21899Y44834D01*
X-21973Y44875D01*
X-22047Y44917D01*
X-22107Y44959D01*
X-22167Y45000D01*
X-22218Y45042D01*
X-22269Y45083D01*
X-22310Y45120D01*
X-22343Y45157D01*
X-22375Y45185D01*
X-22398Y45213D01*
X-22421Y45236D01*
X-22435Y45254D01*
X-22440Y45264D01*
X-22444Y45268D01*
X-22486Y45333D01*
X-22523Y45398D01*
X-22555Y45462D01*
X-22583Y45527D01*
X-22625Y45657D01*
X-22652Y45777D01*
X-22662Y45832D01*
X-22666Y45883D01*
X-22671Y45929D01*
X-22675Y45966D01*
X-22680Y45999D01*
Y46022D01*
Y46036D01*
Y46040D01*
X-22675Y46170D01*
X-22657Y46290D01*
X-22634Y46410D01*
X-22602Y46521D01*
X-22560Y46623D01*
X-22518Y46720D01*
X-22472Y46812D01*
X-22426Y46895D01*
X-22375Y46969D01*
X-22329Y47034D01*
X-22287Y47090D01*
X-22246Y47136D01*
X-22213Y47173D01*
X-22190Y47201D01*
X-22172Y47219D01*
X-22167Y47224D01*
X-22070Y47312D01*
X-21964Y47386D01*
X-21853Y47450D01*
X-21742Y47506D01*
X-21631Y47557D01*
X-21520Y47593D01*
X-21409Y47626D01*
X-21303Y47654D01*
X-21205Y47672D01*
X-21113Y47686D01*
X-21030Y47700D01*
X-20961Y47705D01*
X-20900Y47709D01*
X-20859Y47714D01*
X-20822D01*
X-20669Y47709D01*
D02*
G37*
G36*
X-53263Y36171D02*
X-54109D01*
Y39014D01*
X-55205D01*
X-55302Y39009D01*
X-55385Y39005D01*
X-55450Y39000D01*
X-55496Y38991D01*
X-55533Y38986D01*
X-55556Y38982D01*
X-55561D01*
X-55635Y38959D01*
X-55704Y38935D01*
X-55769Y38903D01*
X-55824Y38875D01*
X-55875Y38852D01*
X-55912Y38829D01*
X-55935Y38815D01*
X-55944Y38811D01*
X-56019Y38760D01*
X-56092Y38695D01*
X-56162Y38621D01*
X-56231Y38552D01*
X-56287Y38487D01*
X-56333Y38432D01*
X-56351Y38409D01*
X-56365Y38395D01*
X-56370Y38385D01*
X-56374Y38381D01*
X-56421Y38321D01*
X-56472Y38256D01*
X-56573Y38117D01*
X-56675Y37969D01*
X-56772Y37826D01*
X-56814Y37761D01*
X-56855Y37701D01*
X-56892Y37646D01*
X-56925Y37595D01*
X-56948Y37558D01*
X-56966Y37525D01*
X-56980Y37507D01*
X-56985Y37502D01*
X-57831Y36171D01*
X-58889D01*
X-57784Y37909D01*
X-57660Y38094D01*
X-57595Y38177D01*
X-57535Y38261D01*
X-57475Y38335D01*
X-57414Y38404D01*
X-57359Y38469D01*
X-57308Y38529D01*
X-57262Y38584D01*
X-57216Y38630D01*
X-57179Y38667D01*
X-57146Y38704D01*
X-57119Y38727D01*
X-57100Y38751D01*
X-57086Y38760D01*
X-57082Y38764D01*
X-57008Y38825D01*
X-56929Y38880D01*
X-56846Y38935D01*
X-56763Y38982D01*
X-56689Y39023D01*
X-56656Y39042D01*
X-56629Y39056D01*
X-56606Y39069D01*
X-56587Y39074D01*
X-56578Y39083D01*
X-56573D01*
X-56740Y39111D01*
X-56897Y39144D01*
X-57040Y39185D01*
X-57174Y39227D01*
X-57294Y39278D01*
X-57410Y39324D01*
X-57507Y39375D01*
X-57600Y39425D01*
X-57678Y39476D01*
X-57743Y39523D01*
X-57803Y39564D01*
X-57849Y39601D01*
X-57886Y39634D01*
X-57914Y39657D01*
X-57928Y39671D01*
X-57932Y39675D01*
X-58011Y39763D01*
X-58080Y39860D01*
X-58140Y39952D01*
X-58191Y40050D01*
X-58233Y40147D01*
X-58270Y40244D01*
X-58298Y40336D01*
X-58321Y40424D01*
X-58339Y40507D01*
X-58353Y40581D01*
X-58362Y40651D01*
X-58372Y40706D01*
Y40757D01*
X-58376Y40794D01*
Y40812D01*
Y40822D01*
X-58372Y40919D01*
X-58367Y41016D01*
X-58353Y41108D01*
X-58334Y41196D01*
X-58316Y41279D01*
X-58293Y41358D01*
X-58265Y41432D01*
X-58242Y41501D01*
X-58219Y41561D01*
X-58191Y41617D01*
X-58168Y41667D01*
X-58150Y41709D01*
X-58131Y41741D01*
X-58122Y41765D01*
X-58113Y41778D01*
X-58108Y41783D01*
X-58057Y41862D01*
X-58002Y41936D01*
X-57941Y42000D01*
X-57886Y42065D01*
X-57826Y42121D01*
X-57766Y42171D01*
X-57706Y42213D01*
X-57650Y42255D01*
X-57600Y42287D01*
X-57549Y42315D01*
X-57507Y42343D01*
X-57470Y42361D01*
X-57438Y42375D01*
X-57414Y42384D01*
X-57401Y42393D01*
X-57396D01*
X-57308Y42426D01*
X-57211Y42453D01*
X-57109Y42477D01*
X-57008Y42495D01*
X-56790Y42527D01*
X-56684Y42537D01*
X-56582Y42546D01*
X-56481Y42555D01*
X-56393Y42560D01*
X-56310Y42564D01*
X-56236D01*
X-56180Y42569D01*
X-53263D01*
Y36171D01*
D02*
G37*
G36*
X-59435Y41732D02*
X-62569D01*
X-62458Y41603D01*
X-62347Y41464D01*
X-62139Y41182D01*
X-62042Y41039D01*
X-61945Y40900D01*
X-61857Y40766D01*
X-61778Y40637D01*
X-61705Y40517D01*
X-61635Y40406D01*
X-61580Y40304D01*
X-61529Y40221D01*
X-61492Y40151D01*
X-61473Y40124D01*
X-61459Y40100D01*
X-61450Y40077D01*
X-61441Y40063D01*
X-61436Y40059D01*
Y40054D01*
X-61339Y39869D01*
X-61252Y39680D01*
X-61164Y39495D01*
X-61085Y39314D01*
X-61016Y39139D01*
X-60946Y38968D01*
X-60886Y38806D01*
X-60831Y38654D01*
X-60785Y38510D01*
X-60743Y38385D01*
X-60706Y38270D01*
X-60678Y38177D01*
X-60664Y38136D01*
X-60655Y38099D01*
X-60646Y38066D01*
X-60637Y38039D01*
X-60632Y38020D01*
X-60627Y38006D01*
X-60623Y37997D01*
Y37992D01*
X-60572Y37798D01*
X-60530Y37609D01*
X-60493Y37428D01*
X-60456Y37257D01*
X-60429Y37096D01*
X-60406Y36948D01*
X-60387Y36809D01*
X-60373Y36679D01*
X-60359Y36569D01*
X-60350Y36467D01*
X-60341Y36379D01*
X-60336Y36305D01*
Y36250D01*
X-60332Y36203D01*
Y36180D01*
Y36171D01*
X-61140D01*
X-61154Y36347D01*
X-61173Y36522D01*
X-61191Y36689D01*
X-61214Y36846D01*
X-61238Y36999D01*
X-61265Y37146D01*
X-61288Y37280D01*
X-61316Y37405D01*
X-61339Y37521D01*
X-61362Y37623D01*
X-61385Y37710D01*
X-61404Y37789D01*
X-61418Y37849D01*
X-61432Y37891D01*
X-61436Y37918D01*
X-61441Y37928D01*
X-61506Y38140D01*
X-61575Y38353D01*
X-61644Y38556D01*
X-61723Y38755D01*
X-61797Y38949D01*
X-61876Y39130D01*
X-61950Y39305D01*
X-62024Y39467D01*
X-62093Y39615D01*
X-62158Y39744D01*
X-62218Y39860D01*
X-62241Y39915D01*
X-62269Y39962D01*
X-62287Y40003D01*
X-62310Y40040D01*
X-62324Y40073D01*
X-62338Y40100D01*
X-62352Y40119D01*
X-62361Y40133D01*
X-62366Y40142D01*
Y40147D01*
X-62477Y40345D01*
X-62592Y40530D01*
X-62698Y40706D01*
X-62809Y40872D01*
X-62911Y41025D01*
X-63013Y41168D01*
X-63110Y41298D01*
X-63198Y41413D01*
X-63276Y41520D01*
X-63350Y41612D01*
X-63415Y41691D01*
X-63470Y41755D01*
X-63517Y41806D01*
X-63549Y41848D01*
X-63572Y41866D01*
X-63577Y41876D01*
Y42486D01*
X-59435D01*
Y41732D01*
D02*
G37*
G36*
X-81779Y42625D02*
X-81604Y42601D01*
X-81442Y42564D01*
X-81285Y42518D01*
X-81142Y42463D01*
X-81012Y42403D01*
X-80892Y42333D01*
X-80781Y42269D01*
X-80684Y42199D01*
X-80596Y42130D01*
X-80527Y42070D01*
X-80467Y42014D01*
X-80416Y41968D01*
X-80383Y41931D01*
X-80365Y41908D01*
X-80356Y41899D01*
X-80296Y41816D01*
X-80236Y41728D01*
X-80180Y41640D01*
X-80129Y41543D01*
X-80037Y41339D01*
X-79958Y41122D01*
X-79893Y40900D01*
X-79838Y40678D01*
X-79792Y40452D01*
X-79759Y40234D01*
X-79727Y40026D01*
X-79708Y39837D01*
X-79699Y39744D01*
X-79695Y39661D01*
X-79685Y39578D01*
X-79681Y39509D01*
Y39439D01*
X-79676Y39379D01*
Y39328D01*
X-79672Y39287D01*
Y39250D01*
Y39227D01*
Y39208D01*
Y39204D01*
Y39051D01*
X-79681Y38903D01*
X-79685Y38764D01*
X-79699Y38626D01*
X-79713Y38496D01*
X-79727Y38372D01*
X-79745Y38251D01*
X-79769Y38136D01*
X-79792Y38025D01*
X-79815Y37918D01*
X-79843Y37821D01*
X-79866Y37724D01*
X-79893Y37636D01*
X-79926Y37549D01*
X-79953Y37470D01*
X-79981Y37396D01*
X-80009Y37327D01*
X-80041Y37257D01*
X-80069Y37197D01*
X-80097Y37142D01*
X-80120Y37091D01*
X-80148Y37045D01*
X-80194Y36966D01*
X-80236Y36906D01*
X-80263Y36860D01*
X-80286Y36837D01*
X-80291Y36827D01*
X-80411Y36703D01*
X-80536Y36592D01*
X-80670Y36495D01*
X-80804Y36411D01*
X-80938Y36342D01*
X-81068Y36282D01*
X-81197Y36236D01*
X-81322Y36199D01*
X-81442Y36166D01*
X-81548Y36143D01*
X-81645Y36129D01*
X-81729Y36116D01*
X-81798Y36111D01*
X-81826D01*
X-81849Y36106D01*
X-81890D01*
X-81997Y36111D01*
X-82103Y36120D01*
X-82200Y36129D01*
X-82297Y36148D01*
X-82385Y36171D01*
X-82473Y36194D01*
X-82551Y36217D01*
X-82621Y36245D01*
X-82690Y36268D01*
X-82746Y36291D01*
X-82796Y36314D01*
X-82843Y36337D01*
X-82875Y36356D01*
X-82903Y36365D01*
X-82917Y36374D01*
X-82921Y36379D01*
X-83005Y36435D01*
X-83083Y36490D01*
X-83157Y36555D01*
X-83222Y36619D01*
X-83287Y36684D01*
X-83347Y36749D01*
X-83398Y36814D01*
X-83448Y36878D01*
X-83490Y36938D01*
X-83527Y36989D01*
X-83559Y37040D01*
X-83587Y37086D01*
X-83605Y37119D01*
X-83619Y37146D01*
X-83629Y37165D01*
X-83633Y37169D01*
X-83680Y37267D01*
X-83721Y37368D01*
X-83753Y37465D01*
X-83786Y37562D01*
X-83813Y37660D01*
X-83832Y37752D01*
X-83850Y37840D01*
X-83864Y37923D01*
X-83874Y38002D01*
X-83883Y38071D01*
X-83888Y38131D01*
X-83892Y38187D01*
X-83897Y38228D01*
Y38261D01*
Y38284D01*
Y38288D01*
X-83892Y38455D01*
X-83874Y38616D01*
X-83846Y38764D01*
X-83809Y38908D01*
X-83767Y39042D01*
X-83721Y39162D01*
X-83670Y39278D01*
X-83619Y39379D01*
X-83568Y39472D01*
X-83518Y39550D01*
X-83471Y39620D01*
X-83430Y39675D01*
X-83393Y39721D01*
X-83365Y39754D01*
X-83347Y39777D01*
X-83342Y39781D01*
X-83236Y39883D01*
X-83125Y39976D01*
X-83014Y40050D01*
X-82903Y40119D01*
X-82787Y40174D01*
X-82676Y40221D01*
X-82570Y40262D01*
X-82468Y40290D01*
X-82371Y40313D01*
X-82283Y40332D01*
X-82205Y40345D01*
X-82135Y40355D01*
X-82085Y40359D01*
X-82043Y40364D01*
X-81923D01*
X-81840Y40355D01*
X-81678Y40332D01*
X-81535Y40295D01*
X-81465Y40276D01*
X-81405Y40258D01*
X-81345Y40239D01*
X-81294Y40221D01*
X-81252Y40202D01*
X-81211Y40184D01*
X-81183Y40170D01*
X-81160Y40160D01*
X-81146Y40156D01*
X-81142Y40151D01*
X-81068Y40110D01*
X-80994Y40063D01*
X-80864Y39962D01*
X-80744Y39855D01*
X-80693Y39804D01*
X-80647Y39754D01*
X-80601Y39703D01*
X-80564Y39657D01*
X-80531Y39615D01*
X-80504Y39578D01*
X-80480Y39550D01*
X-80467Y39527D01*
X-80457Y39513D01*
X-80453Y39509D01*
X-80457Y39684D01*
X-80462Y39851D01*
X-80476Y40003D01*
X-80490Y40147D01*
X-80504Y40276D01*
X-80522Y40401D01*
X-80545Y40512D01*
X-80564Y40609D01*
X-80582Y40697D01*
X-80601Y40775D01*
X-80619Y40840D01*
X-80638Y40891D01*
X-80652Y40932D01*
X-80661Y40965D01*
X-80670Y40983D01*
Y40988D01*
X-80712Y41080D01*
X-80758Y41168D01*
X-80804Y41252D01*
X-80855Y41330D01*
X-80901Y41399D01*
X-80952Y41464D01*
X-80998Y41524D01*
X-81045Y41575D01*
X-81091Y41621D01*
X-81128Y41663D01*
X-81165Y41695D01*
X-81197Y41723D01*
X-81220Y41746D01*
X-81243Y41760D01*
X-81252Y41769D01*
X-81257Y41774D01*
X-81313Y41811D01*
X-81368Y41843D01*
X-81479Y41899D01*
X-81590Y41936D01*
X-81692Y41959D01*
X-81742Y41968D01*
X-81784Y41977D01*
X-81821Y41982D01*
X-81854D01*
X-81881Y41986D01*
X-81918D01*
X-82001Y41982D01*
X-82085Y41973D01*
X-82163Y41954D01*
X-82237Y41936D01*
X-82306Y41908D01*
X-82367Y41880D01*
X-82427Y41848D01*
X-82482Y41820D01*
X-82533Y41788D01*
X-82575Y41755D01*
X-82612Y41728D01*
X-82644Y41700D01*
X-82667Y41681D01*
X-82686Y41663D01*
X-82695Y41654D01*
X-82699Y41649D01*
X-82736Y41607D01*
X-82769Y41561D01*
X-82829Y41455D01*
X-82880Y41344D01*
X-82921Y41238D01*
X-82958Y41136D01*
X-82968Y41094D01*
X-82981Y41053D01*
X-82991Y41025D01*
X-82995Y40997D01*
X-83000Y40983D01*
Y40979D01*
X-83781Y41039D01*
X-83758Y41173D01*
X-83730Y41302D01*
X-83693Y41423D01*
X-83647Y41533D01*
X-83605Y41640D01*
X-83555Y41737D01*
X-83504Y41825D01*
X-83453Y41903D01*
X-83402Y41973D01*
X-83356Y42033D01*
X-83314Y42088D01*
X-83277Y42130D01*
X-83245Y42162D01*
X-83222Y42190D01*
X-83203Y42204D01*
X-83199Y42208D01*
X-83106Y42282D01*
X-83009Y42347D01*
X-82907Y42407D01*
X-82801Y42453D01*
X-82699Y42495D01*
X-82598Y42532D01*
X-82496Y42560D01*
X-82404Y42583D01*
X-82311Y42597D01*
X-82228Y42611D01*
X-82154Y42620D01*
X-82089Y42629D01*
X-82038D01*
X-81997Y42634D01*
X-81964D01*
X-81779Y42625D01*
D02*
G37*
G36*
X-73583Y36213D02*
X-74429D01*
Y39056D01*
X-75525D01*
X-75622Y39051D01*
X-75705Y39046D01*
X-75770Y39042D01*
X-75816Y39032D01*
X-75853Y39028D01*
X-75876Y39023D01*
X-75881D01*
X-75955Y39000D01*
X-76024Y38977D01*
X-76089Y38945D01*
X-76144Y38917D01*
X-76195Y38894D01*
X-76232Y38871D01*
X-76255Y38857D01*
X-76265Y38852D01*
X-76339Y38801D01*
X-76412Y38737D01*
X-76482Y38663D01*
X-76551Y38593D01*
X-76607Y38529D01*
X-76653Y38473D01*
X-76671Y38450D01*
X-76685Y38436D01*
X-76690Y38427D01*
X-76694Y38422D01*
X-76741Y38362D01*
X-76792Y38298D01*
X-76893Y38159D01*
X-76995Y38011D01*
X-77092Y37868D01*
X-77134Y37803D01*
X-77175Y37743D01*
X-77212Y37687D01*
X-77245Y37636D01*
X-77268Y37599D01*
X-77286Y37567D01*
X-77300Y37549D01*
X-77305Y37544D01*
X-78151Y36213D01*
X-79209D01*
X-78104Y37951D01*
X-77979Y38136D01*
X-77915Y38219D01*
X-77855Y38302D01*
X-77795Y38376D01*
X-77734Y38445D01*
X-77679Y38510D01*
X-77628Y38570D01*
X-77582Y38626D01*
X-77536Y38672D01*
X-77499Y38709D01*
X-77466Y38746D01*
X-77439Y38769D01*
X-77420Y38792D01*
X-77406Y38801D01*
X-77402Y38806D01*
X-77328Y38866D01*
X-77249Y38922D01*
X-77166Y38977D01*
X-77083Y39023D01*
X-77009Y39065D01*
X-76976Y39083D01*
X-76949Y39097D01*
X-76926Y39111D01*
X-76907Y39116D01*
X-76898Y39125D01*
X-76893D01*
X-77060Y39153D01*
X-77217Y39185D01*
X-77360Y39227D01*
X-77494Y39268D01*
X-77614Y39319D01*
X-77730Y39365D01*
X-77827Y39416D01*
X-77920Y39467D01*
X-77998Y39518D01*
X-78063Y39564D01*
X-78123Y39606D01*
X-78169Y39643D01*
X-78206Y39675D01*
X-78234Y39698D01*
X-78248Y39712D01*
X-78252Y39717D01*
X-78331Y39804D01*
X-78400Y39902D01*
X-78460Y39994D01*
X-78511Y40091D01*
X-78553Y40188D01*
X-78590Y40285D01*
X-78618Y40378D01*
X-78641Y40466D01*
X-78659Y40549D01*
X-78673Y40623D01*
X-78682Y40692D01*
X-78692Y40748D01*
Y40798D01*
X-78696Y40835D01*
Y40854D01*
Y40863D01*
X-78692Y40960D01*
X-78687Y41057D01*
X-78673Y41150D01*
X-78654Y41238D01*
X-78636Y41321D01*
X-78613Y41399D01*
X-78585Y41473D01*
X-78562Y41543D01*
X-78539Y41603D01*
X-78511Y41658D01*
X-78488Y41709D01*
X-78470Y41751D01*
X-78451Y41783D01*
X-78442Y41806D01*
X-78433Y41820D01*
X-78428Y41825D01*
X-78377Y41903D01*
X-78322Y41977D01*
X-78261Y42042D01*
X-78206Y42107D01*
X-78146Y42162D01*
X-78086Y42213D01*
X-78026Y42255D01*
X-77970Y42296D01*
X-77920Y42329D01*
X-77869Y42356D01*
X-77827Y42384D01*
X-77790Y42403D01*
X-77758Y42416D01*
X-77734Y42426D01*
X-77721Y42435D01*
X-77716D01*
X-77628Y42467D01*
X-77531Y42495D01*
X-77429Y42518D01*
X-77328Y42537D01*
X-77111Y42569D01*
X-77004Y42578D01*
X-76902Y42587D01*
X-76801Y42597D01*
X-76713Y42601D01*
X-76630Y42606D01*
X-76556D01*
X-76500Y42611D01*
X-73583D01*
Y36213D01*
D02*
G37*
G36*
X-31557Y289442D02*
X-32297Y289345D01*
X-32366Y289442D01*
X-32445Y289530D01*
X-32523Y289604D01*
X-32597Y289669D01*
X-32667Y289720D01*
X-32722Y289757D01*
X-32745Y289770D01*
X-32759Y289780D01*
X-32768Y289789D01*
X-32773D01*
X-32889Y289849D01*
X-33009Y289890D01*
X-33124Y289923D01*
X-33231Y289941D01*
X-33281Y289951D01*
X-33323Y289955D01*
X-33365Y289960D01*
X-33397D01*
X-33425Y289965D01*
X-33462D01*
X-33573Y289960D01*
X-33679Y289946D01*
X-33781Y289928D01*
X-33878Y289904D01*
X-33966Y289877D01*
X-34044Y289840D01*
X-34118Y289807D01*
X-34188Y289770D01*
X-34248Y289733D01*
X-34298Y289701D01*
X-34345Y289669D01*
X-34382Y289636D01*
X-34414Y289613D01*
X-34432Y289595D01*
X-34446Y289581D01*
X-34451Y289576D01*
X-34516Y289502D01*
X-34576Y289419D01*
X-34627Y289336D01*
X-34668Y289248D01*
X-34705Y289156D01*
X-34738Y289068D01*
X-34761Y288985D01*
X-34784Y288901D01*
X-34798Y288818D01*
X-34812Y288749D01*
X-34821Y288679D01*
X-34825Y288624D01*
Y288578D01*
X-34830Y288541D01*
Y288522D01*
Y288513D01*
X-34825Y288384D01*
X-34812Y288263D01*
X-34793Y288148D01*
X-34770Y288037D01*
X-34738Y287935D01*
X-34705Y287843D01*
X-34668Y287759D01*
X-34636Y287681D01*
X-34599Y287612D01*
X-34562Y287551D01*
X-34530Y287500D01*
X-34497Y287459D01*
X-34474Y287427D01*
X-34456Y287399D01*
X-34442Y287385D01*
X-34437Y287380D01*
X-34363Y287306D01*
X-34285Y287242D01*
X-34201Y287182D01*
X-34123Y287135D01*
X-34040Y287094D01*
X-33961Y287057D01*
X-33882Y287029D01*
X-33808Y287010D01*
X-33739Y286992D01*
X-33674Y286978D01*
X-33614Y286969D01*
X-33568Y286960D01*
X-33526D01*
X-33499Y286955D01*
X-33471D01*
X-33383Y286960D01*
X-33300Y286969D01*
X-33221Y286983D01*
X-33147Y287001D01*
X-33073Y287024D01*
X-33009Y287052D01*
X-32944Y287075D01*
X-32889Y287108D01*
X-32838Y287135D01*
X-32796Y287159D01*
X-32754Y287186D01*
X-32722Y287209D01*
X-32694Y287228D01*
X-32676Y287242D01*
X-32667Y287251D01*
X-32662Y287255D01*
X-32602Y287316D01*
X-32546Y287380D01*
X-32500Y287450D01*
X-32454Y287524D01*
X-32417Y287598D01*
X-32385Y287676D01*
X-32329Y287819D01*
X-32306Y287889D01*
X-32287Y287954D01*
X-32274Y288014D01*
X-32260Y288064D01*
X-32250Y288106D01*
X-32246Y288134D01*
X-32241Y288157D01*
Y288162D01*
X-31418Y288092D01*
X-31437Y287944D01*
X-31469Y287806D01*
X-31506Y287672D01*
X-31548Y287547D01*
X-31599Y287431D01*
X-31654Y287325D01*
X-31705Y287228D01*
X-31760Y287140D01*
X-31816Y287061D01*
X-31867Y286992D01*
X-31918Y286932D01*
X-31959Y286881D01*
X-31996Y286844D01*
X-32024Y286816D01*
X-32043Y286798D01*
X-32047Y286793D01*
X-32153Y286710D01*
X-32264Y286632D01*
X-32385Y286567D01*
X-32500Y286511D01*
X-32620Y286465D01*
X-32740Y286428D01*
X-32856Y286396D01*
X-32967Y286368D01*
X-33069Y286350D01*
X-33166Y286336D01*
X-33254Y286322D01*
X-33328Y286317D01*
X-33388Y286313D01*
X-33434Y286308D01*
X-33471D01*
X-33665Y286317D01*
X-33850Y286340D01*
X-34021Y286382D01*
X-34183Y286428D01*
X-34335Y286488D01*
X-34474Y286553D01*
X-34599Y286622D01*
X-34715Y286696D01*
X-34816Y286770D01*
X-34904Y286840D01*
X-34978Y286904D01*
X-35043Y286964D01*
X-35089Y287015D01*
X-35126Y287052D01*
X-35144Y287075D01*
X-35154Y287085D01*
X-35241Y287205D01*
X-35320Y287330D01*
X-35389Y287454D01*
X-35450Y287584D01*
X-35496Y287709D01*
X-35537Y287833D01*
X-35570Y287954D01*
X-35597Y288069D01*
X-35621Y288176D01*
X-35634Y288273D01*
X-35648Y288360D01*
X-35653Y288439D01*
X-35657Y288499D01*
X-35662Y288545D01*
Y288559D01*
Y288573D01*
Y288578D01*
Y288582D01*
X-35657Y288749D01*
X-35639Y288906D01*
X-35607Y289058D01*
X-35574Y289202D01*
X-35528Y289331D01*
X-35477Y289456D01*
X-35426Y289567D01*
X-35375Y289669D01*
X-35320Y289761D01*
X-35269Y289844D01*
X-35218Y289914D01*
X-35177Y289969D01*
X-35140Y290015D01*
X-35107Y290048D01*
X-35089Y290071D01*
X-35084Y290075D01*
X-34973Y290177D01*
X-34858Y290270D01*
X-34738Y290344D01*
X-34617Y290413D01*
X-34497Y290468D01*
X-34382Y290515D01*
X-34266Y290556D01*
X-34160Y290584D01*
X-34058Y290607D01*
X-33961Y290626D01*
X-33878Y290639D01*
X-33804Y290649D01*
X-33748Y290653D01*
X-33702Y290658D01*
X-33665D01*
X-33549Y290653D01*
X-33429Y290639D01*
X-33318Y290621D01*
X-33207Y290593D01*
X-33106Y290565D01*
X-33004Y290533D01*
X-32912Y290496D01*
X-32824Y290459D01*
X-32745Y290417D01*
X-32671Y290385D01*
X-32611Y290348D01*
X-32560Y290320D01*
X-32514Y290293D01*
X-32486Y290274D01*
X-32463Y290260D01*
X-32459Y290256D01*
X-32801Y291980D01*
X-35362D01*
Y292729D01*
X-32177D01*
X-31557Y289442D01*
D02*
G37*
G36*
X-25298Y286414D02*
X-26144D01*
Y289257D01*
X-27239D01*
X-27336Y289253D01*
X-27420Y289248D01*
X-27484Y289243D01*
X-27531Y289234D01*
X-27568Y289230D01*
X-27591Y289225D01*
X-27595D01*
X-27669Y289202D01*
X-27739Y289179D01*
X-27803Y289146D01*
X-27859Y289118D01*
X-27910Y289095D01*
X-27947Y289072D01*
X-27970Y289058D01*
X-27979Y289054D01*
X-28053Y289003D01*
X-28127Y288938D01*
X-28196Y288864D01*
X-28266Y288795D01*
X-28321Y288730D01*
X-28367Y288675D01*
X-28386Y288652D01*
X-28400Y288638D01*
X-28404Y288629D01*
X-28409Y288624D01*
X-28455Y288564D01*
X-28506Y288499D01*
X-28608Y288360D01*
X-28709Y288213D01*
X-28807Y288069D01*
X-28848Y288004D01*
X-28890Y287944D01*
X-28927Y287889D01*
X-28959Y287838D01*
X-28982Y287801D01*
X-29001Y287769D01*
X-29015Y287750D01*
X-29019Y287746D01*
X-29865Y286414D01*
X-30924D01*
X-29819Y288152D01*
X-29694Y288337D01*
X-29629Y288421D01*
X-29569Y288504D01*
X-29509Y288578D01*
X-29449Y288647D01*
X-29394Y288712D01*
X-29343Y288772D01*
X-29297Y288827D01*
X-29250Y288874D01*
X-29213Y288911D01*
X-29181Y288948D01*
X-29153Y288971D01*
X-29135Y288994D01*
X-29121Y289003D01*
X-29116Y289008D01*
X-29042Y289068D01*
X-28964Y289123D01*
X-28881Y289179D01*
X-28797Y289225D01*
X-28723Y289266D01*
X-28691Y289285D01*
X-28663Y289299D01*
X-28640Y289313D01*
X-28622Y289317D01*
X-28612Y289326D01*
X-28608D01*
X-28774Y289354D01*
X-28931Y289387D01*
X-29075Y289428D01*
X-29209Y289470D01*
X-29329Y289521D01*
X-29444Y289567D01*
X-29542Y289618D01*
X-29634Y289669D01*
X-29713Y289720D01*
X-29777Y289766D01*
X-29837Y289807D01*
X-29884Y289844D01*
X-29921Y289877D01*
X-29948Y289900D01*
X-29962Y289914D01*
X-29967Y289918D01*
X-30045Y290006D01*
X-30115Y290103D01*
X-30175Y290196D01*
X-30226Y290293D01*
X-30267Y290390D01*
X-30304Y290487D01*
X-30332Y290579D01*
X-30355Y290667D01*
X-30374Y290750D01*
X-30387Y290824D01*
X-30397Y290894D01*
X-30406Y290949D01*
Y291000D01*
X-30411Y291037D01*
Y291056D01*
Y291065D01*
X-30406Y291162D01*
X-30401Y291259D01*
X-30387Y291351D01*
X-30369Y291439D01*
X-30351Y291522D01*
X-30327Y291601D01*
X-30300Y291675D01*
X-30277Y291744D01*
X-30254Y291804D01*
X-30226Y291860D01*
X-30203Y291911D01*
X-30184Y291952D01*
X-30166Y291985D01*
X-30156Y292008D01*
X-30147Y292022D01*
X-30143Y292026D01*
X-30092Y292105D01*
X-30036Y292179D01*
X-29976Y292243D01*
X-29921Y292308D01*
X-29860Y292364D01*
X-29800Y292415D01*
X-29740Y292456D01*
X-29685Y292498D01*
X-29634Y292530D01*
X-29583Y292558D01*
X-29542Y292586D01*
X-29505Y292604D01*
X-29472Y292618D01*
X-29449Y292627D01*
X-29435Y292637D01*
X-29431D01*
X-29343Y292669D01*
X-29246Y292697D01*
X-29144Y292720D01*
X-29042Y292738D01*
X-28825Y292771D01*
X-28719Y292780D01*
X-28617Y292789D01*
X-28515Y292798D01*
X-28428Y292803D01*
X-28344Y292808D01*
X-28270D01*
X-28215Y292812D01*
X-25298D01*
Y286414D01*
D02*
G37*
G36*
X80075Y286361D02*
X79229D01*
Y289204D01*
X78134D01*
X78036Y289199D01*
X77953Y289195D01*
X77889Y289190D01*
X77842Y289181D01*
X77805Y289176D01*
X77782Y289172D01*
X77778D01*
X77704Y289149D01*
X77634Y289125D01*
X77570Y289093D01*
X77514Y289065D01*
X77463Y289042D01*
X77426Y289019D01*
X77403Y289005D01*
X77394Y289001D01*
X77320Y288950D01*
X77246Y288885D01*
X77177Y288811D01*
X77107Y288742D01*
X77052Y288677D01*
X77006Y288622D01*
X76987Y288598D01*
X76973Y288585D01*
X76969Y288575D01*
X76964Y288571D01*
X76918Y288511D01*
X76867Y288446D01*
X76765Y288307D01*
X76664Y288159D01*
X76567Y288016D01*
X76525Y287951D01*
X76483Y287891D01*
X76446Y287836D01*
X76414Y287785D01*
X76391Y287748D01*
X76372Y287715D01*
X76358Y287697D01*
X76354Y287692D01*
X75508Y286361D01*
X74449D01*
X75554Y288099D01*
X75679Y288284D01*
X75744Y288367D01*
X75804Y288451D01*
X75864Y288524D01*
X75924Y288594D01*
X75979Y288659D01*
X76030Y288719D01*
X76076Y288774D01*
X76123Y288820D01*
X76160Y288857D01*
X76192Y288894D01*
X76220Y288917D01*
X76238Y288941D01*
X76252Y288950D01*
X76257Y288954D01*
X76331Y289014D01*
X76409Y289070D01*
X76493Y289125D01*
X76576Y289172D01*
X76650Y289213D01*
X76682Y289232D01*
X76710Y289246D01*
X76733Y289259D01*
X76751Y289264D01*
X76761Y289273D01*
X76765D01*
X76599Y289301D01*
X76442Y289333D01*
X76298Y289375D01*
X76164Y289417D01*
X76044Y289468D01*
X75929Y289514D01*
X75831Y289565D01*
X75739Y289615D01*
X75660Y289666D01*
X75596Y289713D01*
X75536Y289754D01*
X75489Y289791D01*
X75452Y289823D01*
X75425Y289847D01*
X75411Y289860D01*
X75406Y289865D01*
X75328Y289953D01*
X75258Y290050D01*
X75198Y290142D01*
X75147Y290240D01*
X75106Y290337D01*
X75069Y290434D01*
X75041Y290526D01*
X75018Y290614D01*
X74999Y290697D01*
X74985Y290771D01*
X74976Y290840D01*
X74967Y290896D01*
Y290947D01*
X74962Y290984D01*
Y291002D01*
Y291012D01*
X74967Y291109D01*
X74972Y291206D01*
X74985Y291298D01*
X75004Y291386D01*
X75023Y291469D01*
X75046Y291548D01*
X75073Y291622D01*
X75096Y291691D01*
X75120Y291751D01*
X75147Y291807D01*
X75170Y291857D01*
X75189Y291899D01*
X75207Y291931D01*
X75217Y291955D01*
X75226Y291968D01*
X75230Y291973D01*
X75281Y292052D01*
X75337Y292126D01*
X75397Y292190D01*
X75452Y292255D01*
X75512Y292311D01*
X75573Y292361D01*
X75633Y292403D01*
X75688Y292445D01*
X75739Y292477D01*
X75790Y292505D01*
X75831Y292533D01*
X75868Y292551D01*
X75901Y292565D01*
X75924Y292574D01*
X75938Y292583D01*
X75942D01*
X76030Y292616D01*
X76127Y292643D01*
X76229Y292666D01*
X76331Y292685D01*
X76548Y292717D01*
X76654Y292727D01*
X76756Y292736D01*
X76858Y292745D01*
X76946Y292750D01*
X77029Y292754D01*
X77103D01*
X77158Y292759D01*
X80075D01*
Y286361D01*
D02*
G37*
G36*
X74209Y288612D02*
Y287891D01*
X71435D01*
Y286361D01*
X70649D01*
Y287891D01*
X69785D01*
Y288612D01*
X70649D01*
Y292759D01*
X71292D01*
X74209Y288612D01*
D02*
G37*
G36*
X2360Y174582D02*
X2407Y174503D01*
X2513Y174351D01*
X2629Y174207D01*
X2689Y174138D01*
X2744Y174073D01*
X2800Y174018D01*
X2851Y173962D01*
X2897Y173916D01*
X2938Y173875D01*
X2971Y173842D01*
X2994Y173819D01*
X3012Y173805D01*
X3017Y173801D01*
X3207Y173643D01*
X3405Y173500D01*
X3599Y173371D01*
X3692Y173315D01*
X3780Y173260D01*
X3858Y173214D01*
X3932Y173172D01*
X4002Y173135D01*
X4057Y173107D01*
X4103Y173084D01*
X4140Y173066D01*
X4159Y173056D01*
X4168Y173052D01*
Y172294D01*
X4029Y172349D01*
X3886Y172414D01*
X3747Y172479D01*
X3618Y172543D01*
X3562Y172576D01*
X3507Y172603D01*
X3461Y172631D01*
X3424Y172654D01*
X3391Y172668D01*
X3364Y172682D01*
X3350Y172691D01*
X3345Y172696D01*
X3179Y172798D01*
X3105Y172848D01*
X3031Y172895D01*
X2966Y172945D01*
X2906Y172987D01*
X2851Y173033D01*
X2795Y173070D01*
X2754Y173107D01*
X2712Y173140D01*
X2675Y173172D01*
X2647Y173195D01*
X2624Y173214D01*
X2610Y173228D01*
X2601Y173237D01*
X2596Y173241D01*
Y168239D01*
X1810D01*
Y174660D01*
X2319D01*
X2360Y174582D01*
D02*
G37*
G36*
X10890Y168239D02*
X10044D01*
Y171082D01*
X8948D01*
X8851Y171078D01*
X8768Y171073D01*
X8703Y171069D01*
X8657Y171059D01*
X8620Y171055D01*
X8597Y171050D01*
X8592D01*
X8518Y171027D01*
X8449Y171004D01*
X8384Y170972D01*
X8329Y170944D01*
X8278Y170921D01*
X8241Y170898D01*
X8218Y170884D01*
X8208Y170879D01*
X8134Y170828D01*
X8060Y170763D01*
X7991Y170690D01*
X7922Y170620D01*
X7866Y170555D01*
X7820Y170500D01*
X7802Y170477D01*
X7788Y170463D01*
X7783Y170454D01*
X7778Y170449D01*
X7732Y170389D01*
X7681Y170324D01*
X7580Y170186D01*
X7478Y170038D01*
X7381Y169894D01*
X7339Y169830D01*
X7298Y169770D01*
X7261Y169714D01*
X7228Y169663D01*
X7205Y169626D01*
X7187Y169594D01*
X7173Y169576D01*
X7168Y169571D01*
X6322Y168239D01*
X5264D01*
X6368Y169978D01*
X6493Y170163D01*
X6558Y170246D01*
X6618Y170329D01*
X6678Y170403D01*
X6738Y170472D01*
X6794Y170537D01*
X6845Y170597D01*
X6891Y170653D01*
X6937Y170699D01*
X6974Y170736D01*
X7006Y170773D01*
X7034Y170796D01*
X7053Y170819D01*
X7067Y170828D01*
X7071Y170833D01*
X7145Y170893D01*
X7224Y170948D01*
X7307Y171004D01*
X7390Y171050D01*
X7464Y171092D01*
X7497Y171110D01*
X7524Y171124D01*
X7547Y171138D01*
X7566Y171143D01*
X7575Y171152D01*
X7580D01*
X7413Y171180D01*
X7256Y171212D01*
X7113Y171254D01*
X6979Y171295D01*
X6859Y171346D01*
X6743Y171392D01*
X6646Y171443D01*
X6553Y171494D01*
X6475Y171545D01*
X6410Y171591D01*
X6350Y171633D01*
X6304Y171670D01*
X6267Y171702D01*
X6239Y171725D01*
X6225Y171739D01*
X6221Y171744D01*
X6142Y171831D01*
X6073Y171929D01*
X6012Y172021D01*
X5962Y172118D01*
X5920Y172215D01*
X5883Y172312D01*
X5855Y172405D01*
X5832Y172492D01*
X5814Y172576D01*
X5800Y172650D01*
X5791Y172719D01*
X5781Y172774D01*
Y172825D01*
X5777Y172862D01*
Y172881D01*
Y172890D01*
X5781Y172987D01*
X5786Y173084D01*
X5800Y173177D01*
X5818Y173264D01*
X5837Y173348D01*
X5860Y173426D01*
X5888Y173500D01*
X5911Y173570D01*
X5934Y173630D01*
X5962Y173685D01*
X5985Y173736D01*
X6003Y173778D01*
X6022Y173810D01*
X6031Y173833D01*
X6040Y173847D01*
X6045Y173852D01*
X6096Y173930D01*
X6151Y174004D01*
X6211Y174069D01*
X6267Y174133D01*
X6327Y174189D01*
X6387Y174240D01*
X6447Y174282D01*
X6503Y174323D01*
X6553Y174355D01*
X6604Y174383D01*
X6646Y174411D01*
X6683Y174429D01*
X6715Y174443D01*
X6738Y174452D01*
X6752Y174462D01*
X6757D01*
X6845Y174494D01*
X6942Y174522D01*
X7043Y174545D01*
X7145Y174564D01*
X7362Y174596D01*
X7469Y174605D01*
X7570Y174614D01*
X7672Y174624D01*
X7760Y174628D01*
X7843Y174633D01*
X7917D01*
X7973Y174637D01*
X10890D01*
Y168239D01*
D02*
G37*
G36*
X-104311Y287686D02*
X-104154Y287672D01*
X-104006Y287649D01*
X-103868Y287617D01*
X-103738Y287580D01*
X-103618Y287538D01*
X-103511Y287496D01*
X-103410Y287455D01*
X-103322Y287409D01*
X-103243Y287367D01*
X-103179Y287325D01*
X-103123Y287288D01*
X-103082Y287261D01*
X-103049Y287233D01*
X-103031Y287219D01*
X-103026Y287214D01*
X-102929Y287122D01*
X-102846Y287020D01*
X-102767Y286914D01*
X-102703Y286803D01*
X-102642Y286687D01*
X-102592Y286572D01*
X-102550Y286461D01*
X-102513Y286350D01*
X-102485Y286248D01*
X-102462Y286151D01*
X-102444Y286063D01*
X-102430Y285989D01*
X-102416Y285929D01*
X-102411Y285883D01*
Y285865D01*
X-102407Y285851D01*
Y285846D01*
Y285841D01*
X-103216Y285758D01*
X-103220Y285869D01*
X-103230Y285971D01*
X-103248Y286068D01*
X-103266Y286160D01*
X-103294Y286244D01*
X-103322Y286318D01*
X-103354Y286392D01*
X-103387Y286452D01*
X-103414Y286507D01*
X-103447Y286558D01*
X-103475Y286600D01*
X-103502Y286637D01*
X-103521Y286660D01*
X-103539Y286683D01*
X-103548Y286692D01*
X-103553Y286697D01*
X-103618Y286757D01*
X-103692Y286808D01*
X-103766Y286854D01*
X-103840Y286895D01*
X-103918Y286928D01*
X-103992Y286956D01*
X-104066Y286979D01*
X-104136Y286997D01*
X-104205Y287011D01*
X-104265Y287020D01*
X-104320Y287029D01*
X-104371Y287034D01*
X-104408Y287039D01*
X-104464D01*
X-104561Y287034D01*
X-104653Y287025D01*
X-104741Y287011D01*
X-104824Y286988D01*
X-104898Y286965D01*
X-104972Y286937D01*
X-105037Y286909D01*
X-105097Y286877D01*
X-105148Y286849D01*
X-105194Y286817D01*
X-105236Y286789D01*
X-105268Y286766D01*
X-105296Y286743D01*
X-105314Y286729D01*
X-105324Y286720D01*
X-105328Y286715D01*
X-105388Y286655D01*
X-105439Y286590D01*
X-105485Y286526D01*
X-105522Y286456D01*
X-105555Y286392D01*
X-105583Y286327D01*
X-105606Y286262D01*
X-105624Y286202D01*
X-105638Y286147D01*
X-105647Y286096D01*
X-105656Y286049D01*
X-105661Y286008D01*
X-105666Y285975D01*
Y285952D01*
Y285934D01*
Y285929D01*
X-105661Y285846D01*
X-105652Y285763D01*
X-105633Y285680D01*
X-105610Y285596D01*
X-105550Y285435D01*
X-105513Y285361D01*
X-105481Y285291D01*
X-105449Y285227D01*
X-105412Y285166D01*
X-105384Y285116D01*
X-105356Y285069D01*
X-105328Y285037D01*
X-105310Y285009D01*
X-105301Y284991D01*
X-105296Y284986D01*
X-105222Y284889D01*
X-105129Y284783D01*
X-105032Y284676D01*
X-104922Y284566D01*
X-104810Y284450D01*
X-104690Y284339D01*
X-104575Y284228D01*
X-104455Y284122D01*
X-104344Y284020D01*
X-104237Y283928D01*
X-104145Y283840D01*
X-104057Y283770D01*
X-103988Y283710D01*
X-103960Y283687D01*
X-103937Y283664D01*
X-103918Y283650D01*
X-103904Y283636D01*
X-103895Y283632D01*
X-103891Y283627D01*
X-103770Y283525D01*
X-103655Y283428D01*
X-103548Y283336D01*
X-103447Y283248D01*
X-103354Y283160D01*
X-103271Y283082D01*
X-103197Y283008D01*
X-103128Y282938D01*
X-103063Y282878D01*
X-103012Y282823D01*
X-102966Y282777D01*
X-102929Y282735D01*
X-102901Y282703D01*
X-102883Y282679D01*
X-102869Y282666D01*
X-102864Y282661D01*
X-102739Y282504D01*
X-102633Y282351D01*
X-102545Y282208D01*
X-102504Y282143D01*
X-102471Y282078D01*
X-102444Y282023D01*
X-102416Y281972D01*
X-102393Y281926D01*
X-102379Y281884D01*
X-102365Y281852D01*
X-102356Y281829D01*
X-102347Y281815D01*
Y281810D01*
X-102314Y281713D01*
X-102291Y281616D01*
X-102277Y281524D01*
X-102268Y281445D01*
X-102263Y281371D01*
X-102259Y281343D01*
Y281316D01*
Y281297D01*
Y281283D01*
Y281274D01*
Y281269D01*
X-106484D01*
Y282023D01*
X-103350D01*
X-103401Y282102D01*
X-103456Y282180D01*
X-103511Y282250D01*
X-103562Y282314D01*
X-103609Y282365D01*
X-103646Y282407D01*
X-103669Y282434D01*
X-103678Y282444D01*
X-103720Y282490D01*
X-103775Y282541D01*
X-103835Y282596D01*
X-103904Y282661D01*
X-103978Y282726D01*
X-104052Y282795D01*
X-104210Y282929D01*
X-104284Y282994D01*
X-104353Y283054D01*
X-104413Y283109D01*
X-104473Y283156D01*
X-104519Y283197D01*
X-104552Y283225D01*
X-104575Y283248D01*
X-104584Y283253D01*
X-104737Y283382D01*
X-104880Y283507D01*
X-105009Y283622D01*
X-105129Y283729D01*
X-105240Y283831D01*
X-105337Y283923D01*
X-105430Y284006D01*
X-105509Y284080D01*
X-105578Y284149D01*
X-105633Y284210D01*
X-105684Y284260D01*
X-105726Y284302D01*
X-105758Y284334D01*
X-105777Y284357D01*
X-105791Y284371D01*
X-105795Y284376D01*
X-105860Y284455D01*
X-105925Y284529D01*
X-105980Y284603D01*
X-106031Y284672D01*
X-106123Y284806D01*
X-106160Y284866D01*
X-106193Y284921D01*
X-106225Y284972D01*
X-106248Y285019D01*
X-106271Y285060D01*
X-106285Y285093D01*
X-106299Y285120D01*
X-106308Y285139D01*
X-106318Y285153D01*
Y285157D01*
X-106368Y285296D01*
X-106410Y285430D01*
X-106438Y285559D01*
X-106456Y285675D01*
X-106461Y285726D01*
X-106466Y285772D01*
X-106470Y285809D01*
X-106475Y285846D01*
Y285874D01*
Y285892D01*
Y285906D01*
Y285911D01*
X-106470Y286049D01*
X-106452Y286183D01*
X-106424Y286308D01*
X-106391Y286429D01*
X-106350Y286539D01*
X-106304Y286646D01*
X-106253Y286743D01*
X-106207Y286831D01*
X-106156Y286909D01*
X-106105Y286979D01*
X-106059Y287039D01*
X-106017Y287085D01*
X-105985Y287127D01*
X-105957Y287154D01*
X-105939Y287173D01*
X-105934Y287177D01*
X-105828Y287270D01*
X-105717Y287348D01*
X-105601Y287413D01*
X-105481Y287473D01*
X-105361Y287524D01*
X-105236Y287566D01*
X-105120Y287598D01*
X-105005Y287626D01*
X-104898Y287649D01*
X-104797Y287663D01*
X-104709Y287677D01*
X-104630Y287681D01*
X-104565Y287686D01*
X-104519Y287691D01*
X-104478D01*
X-104311Y287686D01*
D02*
G37*
G36*
X-96716Y281269D02*
X-97562D01*
Y283872D01*
X-99323D01*
X-99444Y283877D01*
X-99559Y283886D01*
X-99670Y283895D01*
X-99776Y283909D01*
X-99878Y283923D01*
X-100068Y283960D01*
X-100234Y284002D01*
X-100391Y284052D01*
X-100525Y284103D01*
X-100645Y284154D01*
X-100752Y284205D01*
X-100840Y284256D01*
X-100913Y284307D01*
X-100974Y284348D01*
X-101020Y284385D01*
X-101052Y284413D01*
X-101071Y284431D01*
X-101075Y284436D01*
X-101168Y284542D01*
X-101246Y284658D01*
X-101316Y284774D01*
X-101376Y284889D01*
X-101427Y285005D01*
X-101468Y285120D01*
X-101505Y285231D01*
X-101533Y285338D01*
X-101556Y285435D01*
X-101570Y285527D01*
X-101584Y285606D01*
X-101588Y285680D01*
X-101593Y285735D01*
X-101598Y285777D01*
Y285804D01*
Y285814D01*
X-101588Y285989D01*
X-101565Y286151D01*
X-101552Y286230D01*
X-101538Y286299D01*
X-101519Y286368D01*
X-101501Y286429D01*
X-101482Y286484D01*
X-101464Y286535D01*
X-101450Y286581D01*
X-101436Y286618D01*
X-101422Y286646D01*
X-101413Y286669D01*
X-101408Y286683D01*
X-101404Y286687D01*
X-101325Y286826D01*
X-101242Y286951D01*
X-101154Y287057D01*
X-101112Y287103D01*
X-101075Y287145D01*
X-101038Y287182D01*
X-101001Y287214D01*
X-100969Y287242D01*
X-100941Y287261D01*
X-100923Y287279D01*
X-100904Y287293D01*
X-100895Y287298D01*
X-100890Y287302D01*
X-100766Y287381D01*
X-100632Y287441D01*
X-100502Y287496D01*
X-100377Y287538D01*
X-100317Y287552D01*
X-100266Y287566D01*
X-100220Y287580D01*
X-100178Y287589D01*
X-100146Y287593D01*
X-100123Y287598D01*
X-100105Y287603D01*
X-100100D01*
X-100035Y287612D01*
X-99961Y287626D01*
X-99804Y287640D01*
X-99642Y287654D01*
X-99485Y287658D01*
X-99411Y287663D01*
X-99346D01*
X-99282Y287667D01*
X-96716D01*
Y281269D01*
D02*
G37*
G36*
X99121Y287612D02*
X99167Y287533D01*
X99274Y287381D01*
X99389Y287237D01*
X99449Y287168D01*
X99505Y287103D01*
X99560Y287048D01*
X99611Y286992D01*
X99657Y286946D01*
X99699Y286905D01*
X99731Y286872D01*
X99754Y286849D01*
X99773Y286835D01*
X99777Y286831D01*
X99967Y286674D01*
X100166Y286530D01*
X100360Y286401D01*
X100452Y286345D01*
X100540Y286290D01*
X100619Y286244D01*
X100693Y286202D01*
X100762Y286165D01*
X100817Y286137D01*
X100864Y286114D01*
X100901Y286096D01*
X100919Y286086D01*
X100928Y286082D01*
Y285324D01*
X100790Y285379D01*
X100646Y285444D01*
X100508Y285509D01*
X100378Y285573D01*
X100323Y285606D01*
X100267Y285633D01*
X100221Y285661D01*
X100184Y285684D01*
X100152Y285698D01*
X100124Y285712D01*
X100110Y285721D01*
X100106Y285726D01*
X99939Y285828D01*
X99865Y285878D01*
X99791Y285925D01*
X99726Y285975D01*
X99666Y286017D01*
X99611Y286063D01*
X99556Y286100D01*
X99514Y286137D01*
X99472Y286170D01*
X99435Y286202D01*
X99408Y286225D01*
X99384Y286244D01*
X99370Y286257D01*
X99361Y286267D01*
X99357Y286271D01*
Y281269D01*
X98571D01*
Y287691D01*
X99079D01*
X99121Y287612D01*
D02*
G37*
G36*
X107169Y281269D02*
X106323D01*
Y283872D01*
X104562D01*
X104442Y283877D01*
X104326Y283886D01*
X104215Y283895D01*
X104109Y283909D01*
X104007Y283923D01*
X103818Y283960D01*
X103651Y284002D01*
X103494Y284052D01*
X103360Y284103D01*
X103240Y284154D01*
X103133Y284205D01*
X103046Y284256D01*
X102972Y284307D01*
X102912Y284348D01*
X102865Y284385D01*
X102833Y284413D01*
X102815Y284431D01*
X102810Y284436D01*
X102717Y284542D01*
X102639Y284658D01*
X102570Y284774D01*
X102509Y284889D01*
X102459Y285005D01*
X102417Y285120D01*
X102380Y285231D01*
X102352Y285338D01*
X102329Y285435D01*
X102315Y285527D01*
X102301Y285606D01*
X102297Y285680D01*
X102292Y285735D01*
X102288Y285777D01*
Y285804D01*
Y285814D01*
X102297Y285989D01*
X102320Y286151D01*
X102334Y286230D01*
X102348Y286299D01*
X102366Y286368D01*
X102385Y286429D01*
X102403Y286484D01*
X102422Y286535D01*
X102436Y286581D01*
X102449Y286618D01*
X102463Y286646D01*
X102472Y286669D01*
X102477Y286683D01*
X102482Y286687D01*
X102560Y286826D01*
X102643Y286951D01*
X102731Y287057D01*
X102773Y287103D01*
X102810Y287145D01*
X102847Y287182D01*
X102884Y287214D01*
X102916Y287242D01*
X102944Y287261D01*
X102963Y287279D01*
X102981Y287293D01*
X102990Y287298D01*
X102995Y287302D01*
X103120Y287381D01*
X103254Y287441D01*
X103383Y287496D01*
X103508Y287538D01*
X103568Y287552D01*
X103619Y287566D01*
X103665Y287580D01*
X103707Y287589D01*
X103739Y287593D01*
X103762Y287598D01*
X103781Y287603D01*
X103785D01*
X103850Y287612D01*
X103924Y287626D01*
X104081Y287640D01*
X104243Y287654D01*
X104400Y287658D01*
X104474Y287663D01*
X104539D01*
X104604Y287667D01*
X107169D01*
Y281269D01*
D02*
G37*
G36*
X-66766Y150172D02*
X-66720Y150094D01*
X-66614Y149941D01*
X-66498Y149798D01*
X-66438Y149728D01*
X-66382Y149664D01*
X-66327Y149608D01*
X-66276Y149553D01*
X-66230Y149507D01*
X-66188Y149465D01*
X-66156Y149432D01*
X-66133Y149409D01*
X-66114Y149396D01*
X-66110Y149391D01*
X-65920Y149234D01*
X-65722Y149090D01*
X-65527Y148961D01*
X-65435Y148905D01*
X-65347Y148850D01*
X-65268Y148804D01*
X-65195Y148762D01*
X-65125Y148725D01*
X-65070Y148698D01*
X-65023Y148674D01*
X-64987Y148656D01*
X-64968Y148647D01*
X-64959Y148642D01*
Y147884D01*
X-65097Y147939D01*
X-65241Y148004D01*
X-65379Y148069D01*
X-65509Y148133D01*
X-65564Y148166D01*
X-65620Y148194D01*
X-65666Y148221D01*
X-65703Y148244D01*
X-65735Y148258D01*
X-65763Y148272D01*
X-65777Y148281D01*
X-65782Y148286D01*
X-65948Y148388D01*
X-66022Y148439D01*
X-66096Y148485D01*
X-66161Y148536D01*
X-66221Y148577D01*
X-66276Y148624D01*
X-66332Y148660D01*
X-66373Y148698D01*
X-66415Y148730D01*
X-66452Y148762D01*
X-66480Y148785D01*
X-66503Y148804D01*
X-66517Y148818D01*
X-66526Y148827D01*
X-66530Y148832D01*
Y143830D01*
X-67316D01*
Y150251D01*
X-66808D01*
X-66766Y150172D01*
D02*
G37*
G36*
X-69466Y146858D02*
X-70206Y146761D01*
X-70275Y146858D01*
X-70353Y146945D01*
X-70432Y147019D01*
X-70506Y147084D01*
X-70575Y147135D01*
X-70631Y147172D01*
X-70654Y147186D01*
X-70668Y147195D01*
X-70677Y147204D01*
X-70682D01*
X-70797Y147264D01*
X-70918Y147306D01*
X-71033Y147338D01*
X-71139Y147357D01*
X-71190Y147366D01*
X-71232Y147371D01*
X-71273Y147375D01*
X-71306D01*
X-71334Y147380D01*
X-71371D01*
X-71481Y147375D01*
X-71588Y147361D01*
X-71690Y147343D01*
X-71787Y147320D01*
X-71874Y147292D01*
X-71953Y147255D01*
X-72027Y147223D01*
X-72096Y147186D01*
X-72156Y147149D01*
X-72207Y147116D01*
X-72253Y147084D01*
X-72291Y147052D01*
X-72323Y147029D01*
X-72341Y147010D01*
X-72355Y146996D01*
X-72360Y146992D01*
X-72425Y146918D01*
X-72485Y146834D01*
X-72536Y146751D01*
X-72577Y146664D01*
X-72614Y146571D01*
X-72646Y146483D01*
X-72670Y146400D01*
X-72693Y146317D01*
X-72706Y146234D01*
X-72720Y146164D01*
X-72730Y146095D01*
X-72734Y146039D01*
Y145993D01*
X-72739Y145956D01*
Y145938D01*
Y145928D01*
X-72734Y145799D01*
X-72720Y145679D01*
X-72702Y145563D01*
X-72679Y145452D01*
X-72646Y145351D01*
X-72614Y145258D01*
X-72577Y145175D01*
X-72545Y145096D01*
X-72508Y145027D01*
X-72471Y144967D01*
X-72438Y144916D01*
X-72406Y144874D01*
X-72383Y144842D01*
X-72364Y144814D01*
X-72351Y144801D01*
X-72346Y144796D01*
X-72272Y144722D01*
X-72193Y144657D01*
X-72110Y144597D01*
X-72032Y144551D01*
X-71948Y144509D01*
X-71870Y144472D01*
X-71791Y144445D01*
X-71717Y144426D01*
X-71648Y144408D01*
X-71583Y144394D01*
X-71523Y144384D01*
X-71477Y144375D01*
X-71435D01*
X-71407Y144371D01*
X-71380D01*
X-71292Y144375D01*
X-71209Y144384D01*
X-71130Y144398D01*
X-71056Y144417D01*
X-70982Y144440D01*
X-70918Y144468D01*
X-70853Y144491D01*
X-70797Y144523D01*
X-70746Y144551D01*
X-70705Y144574D01*
X-70663Y144602D01*
X-70631Y144625D01*
X-70603Y144643D01*
X-70585Y144657D01*
X-70575Y144666D01*
X-70571Y144671D01*
X-70511Y144731D01*
X-70455Y144796D01*
X-70409Y144865D01*
X-70363Y144939D01*
X-70326Y145013D01*
X-70293Y145092D01*
X-70238Y145235D01*
X-70215Y145304D01*
X-70196Y145369D01*
X-70182Y145429D01*
X-70169Y145480D01*
X-70159Y145522D01*
X-70155Y145549D01*
X-70150Y145573D01*
Y145577D01*
X-69327Y145508D01*
X-69346Y145360D01*
X-69378Y145221D01*
X-69415Y145087D01*
X-69457Y144962D01*
X-69508Y144847D01*
X-69563Y144740D01*
X-69614Y144643D01*
X-69669Y144556D01*
X-69725Y144477D01*
X-69776Y144408D01*
X-69826Y144347D01*
X-69868Y144297D01*
X-69905Y144260D01*
X-69933Y144232D01*
X-69951Y144213D01*
X-69956Y144209D01*
X-70062Y144126D01*
X-70173Y144047D01*
X-70293Y143982D01*
X-70409Y143927D01*
X-70529Y143881D01*
X-70649Y143844D01*
X-70765Y143811D01*
X-70876Y143784D01*
X-70978Y143765D01*
X-71075Y143751D01*
X-71163Y143737D01*
X-71237Y143733D01*
X-71297Y143728D01*
X-71343Y143723D01*
X-71380D01*
X-71574Y143733D01*
X-71759Y143756D01*
X-71930Y143797D01*
X-72092Y143844D01*
X-72244Y143904D01*
X-72383Y143968D01*
X-72508Y144038D01*
X-72623Y144112D01*
X-72725Y144186D01*
X-72813Y144255D01*
X-72887Y144320D01*
X-72951Y144380D01*
X-72998Y144431D01*
X-73035Y144468D01*
X-73053Y144491D01*
X-73063Y144500D01*
X-73150Y144620D01*
X-73229Y144745D01*
X-73298Y144870D01*
X-73358Y144999D01*
X-73405Y145124D01*
X-73446Y145249D01*
X-73478Y145369D01*
X-73506Y145485D01*
X-73529Y145591D01*
X-73543Y145688D01*
X-73557Y145776D01*
X-73562Y145855D01*
X-73566Y145915D01*
X-73571Y145961D01*
Y145975D01*
Y145989D01*
Y145993D01*
Y145998D01*
X-73566Y146164D01*
X-73548Y146321D01*
X-73516Y146474D01*
X-73483Y146617D01*
X-73437Y146747D01*
X-73386Y146872D01*
X-73335Y146982D01*
X-73284Y147084D01*
X-73229Y147177D01*
X-73178Y147260D01*
X-73127Y147329D01*
X-73086Y147385D01*
X-73049Y147431D01*
X-73016Y147463D01*
X-72998Y147486D01*
X-72993Y147491D01*
X-72882Y147593D01*
X-72767Y147685D01*
X-72646Y147759D01*
X-72526Y147828D01*
X-72406Y147884D01*
X-72291Y147930D01*
X-72175Y147972D01*
X-72069Y147999D01*
X-71967Y148023D01*
X-71870Y148041D01*
X-71787Y148055D01*
X-71713Y148064D01*
X-71657Y148069D01*
X-71611Y148073D01*
X-71574D01*
X-71458Y148069D01*
X-71338Y148055D01*
X-71227Y148036D01*
X-71116Y148009D01*
X-71015Y147981D01*
X-70913Y147949D01*
X-70820Y147912D01*
X-70733Y147875D01*
X-70654Y147833D01*
X-70580Y147801D01*
X-70520Y147764D01*
X-70469Y147736D01*
X-70423Y147708D01*
X-70395Y147690D01*
X-70372Y147676D01*
X-70367Y147671D01*
X-70710Y149396D01*
X-73271D01*
Y150145D01*
X-70085D01*
X-69466Y146858D01*
D02*
G37*
G36*
X-60840Y150334D02*
X-60687Y150320D01*
X-60539Y150302D01*
X-60396Y150279D01*
X-60262Y150251D01*
X-60132Y150214D01*
X-60012Y150181D01*
X-59901Y150145D01*
X-59804Y150107D01*
X-59712Y150075D01*
X-59633Y150043D01*
X-59569Y150010D01*
X-59513Y149987D01*
X-59476Y149969D01*
X-59453Y149955D01*
X-59444Y149950D01*
X-59314Y149872D01*
X-59194Y149789D01*
X-59083Y149701D01*
X-58977Y149608D01*
X-58880Y149516D01*
X-58792Y149423D01*
X-58709Y149326D01*
X-58639Y149238D01*
X-58575Y149155D01*
X-58514Y149072D01*
X-58468Y149003D01*
X-58427Y148942D01*
X-58399Y148887D01*
X-58376Y148850D01*
X-58362Y148827D01*
X-58357Y148818D01*
X-58293Y148674D01*
X-58232Y148531D01*
X-58182Y148383D01*
X-58140Y148235D01*
X-58103Y148087D01*
X-58071Y147939D01*
X-58048Y147801D01*
X-58025Y147671D01*
X-58011Y147546D01*
X-57997Y147431D01*
X-57992Y147329D01*
X-57983Y147241D01*
Y147172D01*
X-57978Y147144D01*
Y147121D01*
Y147103D01*
Y147089D01*
Y147079D01*
Y147075D01*
X-57983Y146904D01*
X-57992Y146737D01*
X-58011Y146576D01*
X-58029Y146423D01*
X-58057Y146271D01*
X-58085Y146132D01*
X-58117Y145998D01*
X-58149Y145873D01*
X-58177Y145762D01*
X-58209Y145660D01*
X-58237Y145573D01*
X-58265Y145499D01*
X-58283Y145438D01*
X-58302Y145397D01*
X-58311Y145369D01*
X-58316Y145365D01*
Y145360D01*
X-58380Y145217D01*
X-58454Y145078D01*
X-58533Y144953D01*
X-58612Y144833D01*
X-58695Y144726D01*
X-58778Y144625D01*
X-58857Y144537D01*
X-58935Y144454D01*
X-59009Y144380D01*
X-59078Y144320D01*
X-59139Y144264D01*
X-59194Y144223D01*
X-59240Y144190D01*
X-59273Y144163D01*
X-59291Y144149D01*
X-59300Y144144D01*
X-59425Y144070D01*
X-59559Y144005D01*
X-59698Y143950D01*
X-59837Y143899D01*
X-59975Y143862D01*
X-60119Y143825D01*
X-60253Y143797D01*
X-60387Y143774D01*
X-60507Y143760D01*
X-60623Y143747D01*
X-60724Y143737D01*
X-60812Y143728D01*
X-60881D01*
X-60914Y143723D01*
X-60983D01*
X-61168Y143728D01*
X-61344Y143747D01*
X-61510Y143774D01*
X-61672Y143807D01*
X-61820Y143848D01*
X-61958Y143894D01*
X-62088Y143945D01*
X-62203Y143996D01*
X-62310Y144047D01*
X-62402Y144098D01*
X-62485Y144144D01*
X-62550Y144186D01*
X-62606Y144218D01*
X-62643Y144246D01*
X-62666Y144264D01*
X-62675Y144269D01*
X-62800Y144380D01*
X-62915Y144495D01*
X-63022Y144620D01*
X-63119Y144750D01*
X-63207Y144884D01*
X-63285Y145013D01*
X-63355Y145143D01*
X-63415Y145272D01*
X-63470Y145392D01*
X-63516Y145503D01*
X-63553Y145600D01*
X-63586Y145688D01*
X-63609Y145757D01*
X-63618Y145790D01*
X-63623Y145813D01*
X-63627Y145831D01*
X-63632Y145845D01*
X-63637Y145855D01*
Y145859D01*
X-62791Y146072D01*
X-62754Y145924D01*
X-62712Y145790D01*
X-62666Y145660D01*
X-62610Y145545D01*
X-62559Y145434D01*
X-62499Y145332D01*
X-62444Y145244D01*
X-62388Y145161D01*
X-62338Y145092D01*
X-62287Y145027D01*
X-62241Y144976D01*
X-62199Y144935D01*
X-62167Y144898D01*
X-62143Y144874D01*
X-62125Y144861D01*
X-62120Y144856D01*
X-62023Y144787D01*
X-61926Y144722D01*
X-61824Y144666D01*
X-61723Y144620D01*
X-61621Y144583D01*
X-61519Y144551D01*
X-61422Y144523D01*
X-61330Y144500D01*
X-61247Y144481D01*
X-61163Y144472D01*
X-61094Y144463D01*
X-61034Y144454D01*
X-60983D01*
X-60946Y144449D01*
X-60914D01*
X-60807Y144454D01*
X-60701Y144463D01*
X-60599Y144477D01*
X-60498Y144495D01*
X-60405Y144518D01*
X-60313Y144546D01*
X-60230Y144569D01*
X-60151Y144602D01*
X-60082Y144629D01*
X-60017Y144653D01*
X-59962Y144680D01*
X-59915Y144703D01*
X-59878Y144722D01*
X-59851Y144736D01*
X-59832Y144745D01*
X-59827Y144750D01*
X-59735Y144810D01*
X-59652Y144874D01*
X-59573Y144944D01*
X-59499Y145018D01*
X-59434Y145092D01*
X-59374Y145170D01*
X-59319Y145244D01*
X-59268Y145314D01*
X-59226Y145383D01*
X-59190Y145448D01*
X-59157Y145508D01*
X-59134Y145559D01*
X-59111Y145600D01*
X-59097Y145628D01*
X-59092Y145651D01*
X-59088Y145656D01*
X-59046Y145771D01*
X-59009Y145892D01*
X-58977Y146012D01*
X-58954Y146137D01*
X-58907Y146372D01*
X-58894Y146488D01*
X-58880Y146599D01*
X-58871Y146696D01*
X-58866Y146788D01*
X-58861Y146872D01*
X-58857Y146941D01*
X-58852Y147001D01*
Y147043D01*
Y147070D01*
Y147079D01*
X-58857Y147200D01*
X-58861Y147315D01*
X-58884Y147537D01*
X-58898Y147643D01*
X-58917Y147745D01*
X-58935Y147842D01*
X-58954Y147930D01*
X-58972Y148013D01*
X-58986Y148087D01*
X-59005Y148152D01*
X-59018Y148208D01*
X-59032Y148249D01*
X-59042Y148281D01*
X-59051Y148305D01*
Y148309D01*
X-59092Y148420D01*
X-59139Y148522D01*
X-59190Y148619D01*
X-59245Y148707D01*
X-59300Y148795D01*
X-59356Y148873D01*
X-59416Y148942D01*
X-59472Y149007D01*
X-59527Y149063D01*
X-59578Y149114D01*
X-59624Y149155D01*
X-59666Y149192D01*
X-59698Y149220D01*
X-59721Y149243D01*
X-59740Y149252D01*
X-59744Y149257D01*
X-59841Y149322D01*
X-59943Y149372D01*
X-60045Y149423D01*
X-60146Y149465D01*
X-60253Y149497D01*
X-60354Y149525D01*
X-60451Y149548D01*
X-60549Y149567D01*
X-60636Y149585D01*
X-60720Y149594D01*
X-60794Y149604D01*
X-60858Y149608D01*
X-60909Y149613D01*
X-60978D01*
X-61099Y149608D01*
X-61210Y149599D01*
X-61316Y149585D01*
X-61418Y149562D01*
X-61510Y149539D01*
X-61598Y149511D01*
X-61677Y149483D01*
X-61750Y149456D01*
X-61815Y149423D01*
X-61875Y149396D01*
X-61926Y149368D01*
X-61968Y149345D01*
X-62000Y149322D01*
X-62023Y149308D01*
X-62037Y149298D01*
X-62042Y149294D01*
X-62120Y149229D01*
X-62194Y149160D01*
X-62259Y149081D01*
X-62324Y149003D01*
X-62384Y148915D01*
X-62435Y148832D01*
X-62485Y148748D01*
X-62527Y148665D01*
X-62564Y148587D01*
X-62601Y148513D01*
X-62629Y148448D01*
X-62652Y148392D01*
X-62670Y148342D01*
X-62684Y148309D01*
X-62689Y148286D01*
X-62694Y148277D01*
X-63526Y148471D01*
X-63475Y148633D01*
X-63410Y148785D01*
X-63345Y148929D01*
X-63271Y149063D01*
X-63197Y149183D01*
X-63123Y149298D01*
X-63045Y149400D01*
X-62971Y149493D01*
X-62897Y149576D01*
X-62832Y149645D01*
X-62772Y149710D01*
X-62717Y149756D01*
X-62675Y149798D01*
X-62638Y149825D01*
X-62620Y149844D01*
X-62610Y149849D01*
X-62485Y149936D01*
X-62356Y150010D01*
X-62217Y150075D01*
X-62083Y150131D01*
X-61949Y150181D01*
X-61815Y150218D01*
X-61686Y150251D01*
X-61561Y150279D01*
X-61441Y150297D01*
X-61334Y150311D01*
X-61242Y150325D01*
X-61159Y150329D01*
X-61089Y150334D01*
X-61062Y150339D01*
X-60997D01*
X-60840Y150334D01*
D02*
G37*
G36*
X67551Y144111D02*
X67598Y144033D01*
X67704Y143880D01*
X67819Y143737D01*
X67880Y143667D01*
X67935Y143603D01*
X67991Y143547D01*
X68041Y143492D01*
X68088Y143446D01*
X68129Y143404D01*
X68162Y143371D01*
X68185Y143348D01*
X68203Y143335D01*
X68208Y143330D01*
X68397Y143173D01*
X68596Y143029D01*
X68790Y142900D01*
X68883Y142844D01*
X68971Y142789D01*
X69049Y142743D01*
X69123Y142701D01*
X69193Y142664D01*
X69248Y142636D01*
X69294Y142613D01*
X69331Y142595D01*
X69350Y142586D01*
X69359Y142581D01*
Y141823D01*
X69220Y141878D01*
X69077Y141943D01*
X68938Y142008D01*
X68809Y142072D01*
X68753Y142105D01*
X68698Y142133D01*
X68652Y142160D01*
X68615Y142184D01*
X68582Y142197D01*
X68555Y142211D01*
X68541Y142220D01*
X68536Y142225D01*
X68370Y142327D01*
X68296Y142378D01*
X68222Y142424D01*
X68157Y142475D01*
X68097Y142516D01*
X68041Y142563D01*
X67986Y142599D01*
X67944Y142636D01*
X67903Y142669D01*
X67866Y142701D01*
X67838Y142724D01*
X67815Y142743D01*
X67801Y142757D01*
X67792Y142766D01*
X67787Y142771D01*
Y137769D01*
X67001D01*
Y144190D01*
X67510D01*
X67551Y144111D01*
D02*
G37*
G36*
X73478Y144273D02*
X73630Y144259D01*
X73778Y144241D01*
X73922Y144218D01*
X74056Y144190D01*
X74185Y144153D01*
X74305Y144120D01*
X74416Y144083D01*
X74513Y144046D01*
X74606Y144014D01*
X74684Y143982D01*
X74749Y143949D01*
X74805Y143926D01*
X74842Y143908D01*
X74865Y143894D01*
X74874Y143889D01*
X75003Y143811D01*
X75124Y143728D01*
X75234Y143640D01*
X75341Y143547D01*
X75438Y143455D01*
X75526Y143362D01*
X75609Y143265D01*
X75678Y143177D01*
X75743Y143094D01*
X75803Y143011D01*
X75849Y142942D01*
X75891Y142881D01*
X75919Y142826D01*
X75942Y142789D01*
X75956Y142766D01*
X75960Y142757D01*
X76025Y142613D01*
X76085Y142470D01*
X76136Y142322D01*
X76178Y142174D01*
X76215Y142026D01*
X76247Y141878D01*
X76270Y141740D01*
X76293Y141610D01*
X76307Y141485D01*
X76321Y141370D01*
X76325Y141268D01*
X76335Y141180D01*
Y141111D01*
X76339Y141083D01*
Y141060D01*
Y141042D01*
Y141028D01*
Y141018D01*
Y141014D01*
X76335Y140843D01*
X76325Y140676D01*
X76307Y140515D01*
X76288Y140362D01*
X76261Y140210D01*
X76233Y140071D01*
X76201Y139937D01*
X76168Y139812D01*
X76141Y139701D01*
X76108Y139599D01*
X76080Y139511D01*
X76053Y139438D01*
X76034Y139377D01*
X76016Y139336D01*
X76006Y139308D01*
X76002Y139304D01*
Y139299D01*
X75937Y139156D01*
X75863Y139017D01*
X75785Y138892D01*
X75706Y138772D01*
X75623Y138666D01*
X75540Y138564D01*
X75461Y138476D01*
X75382Y138393D01*
X75308Y138319D01*
X75239Y138259D01*
X75179Y138203D01*
X75124Y138162D01*
X75077Y138129D01*
X75045Y138102D01*
X75026Y138088D01*
X75017Y138083D01*
X74892Y138009D01*
X74758Y137944D01*
X74620Y137889D01*
X74481Y137838D01*
X74342Y137801D01*
X74199Y137764D01*
X74065Y137736D01*
X73931Y137713D01*
X73811Y137699D01*
X73695Y137685D01*
X73593Y137676D01*
X73506Y137667D01*
X73436D01*
X73404Y137662D01*
X73334D01*
X73150Y137667D01*
X72974Y137685D01*
X72808Y137713D01*
X72646Y137746D01*
X72498Y137787D01*
X72359Y137833D01*
X72230Y137884D01*
X72114Y137935D01*
X72008Y137986D01*
X71915Y138037D01*
X71832Y138083D01*
X71767Y138125D01*
X71712Y138157D01*
X71675Y138185D01*
X71652Y138203D01*
X71643Y138208D01*
X71518Y138319D01*
X71402Y138434D01*
X71296Y138559D01*
X71199Y138689D01*
X71111Y138823D01*
X71032Y138952D01*
X70963Y139082D01*
X70903Y139211D01*
X70848Y139331D01*
X70801Y139442D01*
X70764Y139539D01*
X70732Y139627D01*
X70709Y139696D01*
X70700Y139729D01*
X70695Y139752D01*
X70690Y139770D01*
X70686Y139784D01*
X70681Y139794D01*
Y139798D01*
X71527Y140011D01*
X71564Y139863D01*
X71606Y139729D01*
X71652Y139599D01*
X71707Y139484D01*
X71758Y139373D01*
X71818Y139271D01*
X71874Y139183D01*
X71929Y139100D01*
X71980Y139031D01*
X72031Y138966D01*
X72077Y138915D01*
X72119Y138874D01*
X72151Y138837D01*
X72174Y138813D01*
X72193Y138800D01*
X72197Y138795D01*
X72294Y138726D01*
X72392Y138661D01*
X72493Y138605D01*
X72595Y138559D01*
X72697Y138522D01*
X72798Y138490D01*
X72895Y138462D01*
X72988Y138439D01*
X73071Y138420D01*
X73154Y138411D01*
X73224Y138402D01*
X73284Y138393D01*
X73334D01*
X73372Y138388D01*
X73404D01*
X73510Y138393D01*
X73616Y138402D01*
X73718Y138416D01*
X73820Y138434D01*
X73912Y138457D01*
X74005Y138485D01*
X74088Y138508D01*
X74167Y138541D01*
X74236Y138568D01*
X74301Y138592D01*
X74356Y138619D01*
X74402Y138642D01*
X74439Y138661D01*
X74467Y138675D01*
X74486Y138684D01*
X74490Y138689D01*
X74583Y138749D01*
X74666Y138813D01*
X74745Y138883D01*
X74819Y138957D01*
X74883Y139031D01*
X74943Y139109D01*
X74999Y139183D01*
X75050Y139253D01*
X75091Y139322D01*
X75128Y139387D01*
X75161Y139447D01*
X75184Y139498D01*
X75207Y139539D01*
X75221Y139567D01*
X75225Y139590D01*
X75230Y139595D01*
X75272Y139710D01*
X75308Y139831D01*
X75341Y139951D01*
X75364Y140076D01*
X75410Y140311D01*
X75424Y140427D01*
X75438Y140538D01*
X75447Y140635D01*
X75452Y140727D01*
X75456Y140810D01*
X75461Y140880D01*
X75466Y140940D01*
Y140982D01*
Y141009D01*
Y141018D01*
X75461Y141139D01*
X75456Y141254D01*
X75433Y141476D01*
X75419Y141582D01*
X75401Y141684D01*
X75382Y141781D01*
X75364Y141869D01*
X75346Y141952D01*
X75332Y142026D01*
X75313Y142091D01*
X75299Y142147D01*
X75285Y142188D01*
X75276Y142220D01*
X75267Y142244D01*
Y142248D01*
X75225Y142359D01*
X75179Y142461D01*
X75128Y142558D01*
X75073Y142646D01*
X75017Y142734D01*
X74962Y142812D01*
X74902Y142881D01*
X74846Y142946D01*
X74791Y143002D01*
X74740Y143053D01*
X74694Y143094D01*
X74652Y143131D01*
X74620Y143159D01*
X74597Y143182D01*
X74578Y143191D01*
X74573Y143196D01*
X74476Y143261D01*
X74375Y143311D01*
X74273Y143362D01*
X74171Y143404D01*
X74065Y143436D01*
X73963Y143464D01*
X73866Y143487D01*
X73769Y143506D01*
X73681Y143524D01*
X73598Y143533D01*
X73524Y143543D01*
X73459Y143547D01*
X73408Y143552D01*
X73339D01*
X73219Y143547D01*
X73108Y143538D01*
X73002Y143524D01*
X72900Y143501D01*
X72808Y143478D01*
X72720Y143450D01*
X72641Y143422D01*
X72567Y143395D01*
X72502Y143362D01*
X72442Y143335D01*
X72392Y143307D01*
X72350Y143284D01*
X72318Y143261D01*
X72294Y143247D01*
X72281Y143237D01*
X72276Y143233D01*
X72197Y143168D01*
X72123Y143099D01*
X72059Y143020D01*
X71994Y142942D01*
X71934Y142854D01*
X71883Y142771D01*
X71832Y142687D01*
X71790Y142604D01*
X71754Y142526D01*
X71717Y142452D01*
X71689Y142387D01*
X71666Y142331D01*
X71647Y142281D01*
X71633Y142248D01*
X71629Y142225D01*
X71624Y142216D01*
X70792Y142410D01*
X70843Y142572D01*
X70908Y142724D01*
X70972Y142868D01*
X71046Y143002D01*
X71120Y143122D01*
X71194Y143237D01*
X71273Y143339D01*
X71347Y143432D01*
X71421Y143515D01*
X71485Y143584D01*
X71546Y143649D01*
X71601Y143695D01*
X71643Y143737D01*
X71680Y143764D01*
X71698Y143783D01*
X71707Y143788D01*
X71832Y143875D01*
X71962Y143949D01*
X72100Y144014D01*
X72234Y144070D01*
X72368Y144120D01*
X72502Y144157D01*
X72632Y144190D01*
X72757Y144218D01*
X72877Y144236D01*
X72983Y144250D01*
X73076Y144264D01*
X73159Y144268D01*
X73228Y144273D01*
X73256Y144278D01*
X73321D01*
X73478Y144273D01*
D02*
G37*
G36*
X65245Y140020D02*
Y139299D01*
X62471D01*
Y137769D01*
X61685D01*
Y139299D01*
X60821D01*
Y140020D01*
X61685D01*
Y144167D01*
X62328D01*
X65245Y140020D01*
D02*
G37*
G36*
X-34656Y280080D02*
X-34522Y280066D01*
X-34392Y280043D01*
X-34272Y280015D01*
X-34161Y279983D01*
X-34059Y279946D01*
X-33962Y279909D01*
X-33874Y279867D01*
X-33796Y279825D01*
X-33726Y279788D01*
X-33666Y279752D01*
X-33616Y279719D01*
X-33574Y279692D01*
X-33546Y279668D01*
X-33528Y279655D01*
X-33523Y279650D01*
X-33431Y279567D01*
X-33347Y279474D01*
X-33273Y279377D01*
X-33209Y279275D01*
X-33149Y279174D01*
X-33093Y279072D01*
X-33047Y278970D01*
X-33005Y278873D01*
X-32973Y278781D01*
X-32945Y278698D01*
X-32922Y278624D01*
X-32904Y278554D01*
X-32890Y278499D01*
X-32880Y278462D01*
X-32871Y278434D01*
Y278429D01*
Y278425D01*
X-33657Y278286D01*
X-33676Y278393D01*
X-33699Y278489D01*
X-33722Y278577D01*
X-33754Y278661D01*
X-33782Y278739D01*
X-33819Y278808D01*
X-33851Y278873D01*
X-33884Y278933D01*
X-33916Y278980D01*
X-33944Y279026D01*
X-33972Y279063D01*
X-33995Y279090D01*
X-34018Y279114D01*
X-34032Y279132D01*
X-34041Y279141D01*
X-34045Y279146D01*
X-34106Y279197D01*
X-34166Y279243D01*
X-34230Y279280D01*
X-34295Y279312D01*
X-34360Y279345D01*
X-34420Y279368D01*
X-34540Y279400D01*
X-34596Y279414D01*
X-34646Y279423D01*
X-34693Y279428D01*
X-34734Y279433D01*
X-34762Y279437D01*
X-34808D01*
X-34891Y279433D01*
X-34975Y279423D01*
X-35049Y279410D01*
X-35123Y279391D01*
X-35187Y279373D01*
X-35252Y279345D01*
X-35308Y279322D01*
X-35358Y279294D01*
X-35405Y279266D01*
X-35446Y279243D01*
X-35478Y279215D01*
X-35511Y279197D01*
X-35534Y279178D01*
X-35548Y279165D01*
X-35557Y279155D01*
X-35562Y279151D01*
X-35613Y279095D01*
X-35659Y279040D01*
X-35700Y278980D01*
X-35733Y278920D01*
X-35761Y278859D01*
X-35784Y278799D01*
X-35821Y278688D01*
X-35835Y278638D01*
X-35844Y278591D01*
X-35848Y278545D01*
X-35853Y278513D01*
X-35858Y278480D01*
Y278457D01*
Y278443D01*
Y278439D01*
X-35853Y278342D01*
X-35839Y278249D01*
X-35821Y278161D01*
X-35793Y278083D01*
X-35765Y278009D01*
X-35733Y277944D01*
X-35696Y277884D01*
X-35659Y277829D01*
X-35617Y277782D01*
X-35585Y277741D01*
X-35548Y277708D01*
X-35520Y277680D01*
X-35492Y277657D01*
X-35474Y277644D01*
X-35460Y277634D01*
X-35455Y277630D01*
X-35381Y277584D01*
X-35303Y277547D01*
X-35224Y277509D01*
X-35146Y277482D01*
X-34993Y277435D01*
X-34924Y277417D01*
X-34854Y277403D01*
X-34790Y277394D01*
X-34734Y277385D01*
X-34683Y277380D01*
X-34637Y277375D01*
X-34605Y277371D01*
X-34517D01*
X-34475Y277375D01*
X-34457D01*
X-34443Y277380D01*
X-34429D01*
X-34341Y276691D01*
X-34462Y276719D01*
X-34568Y276737D01*
X-34660Y276756D01*
X-34743Y276765D01*
X-34808Y276770D01*
X-34854Y276775D01*
X-34896D01*
X-34998Y276770D01*
X-35090Y276761D01*
X-35183Y276742D01*
X-35266Y276719D01*
X-35345Y276691D01*
X-35418Y276663D01*
X-35488Y276631D01*
X-35548Y276599D01*
X-35603Y276567D01*
X-35654Y276534D01*
X-35696Y276506D01*
X-35728Y276479D01*
X-35756Y276455D01*
X-35779Y276437D01*
X-35788Y276428D01*
X-35793Y276423D01*
X-35858Y276354D01*
X-35908Y276285D01*
X-35959Y276210D01*
X-36001Y276136D01*
X-36033Y276063D01*
X-36061Y275989D01*
X-36084Y275915D01*
X-36103Y275845D01*
X-36121Y275781D01*
X-36130Y275721D01*
X-36140Y275665D01*
X-36144Y275623D01*
X-36149Y275582D01*
Y275554D01*
Y275536D01*
Y275531D01*
X-36144Y275429D01*
X-36130Y275327D01*
X-36112Y275235D01*
X-36089Y275147D01*
X-36061Y275059D01*
X-36029Y274986D01*
X-35992Y274911D01*
X-35959Y274847D01*
X-35922Y274787D01*
X-35885Y274736D01*
X-35853Y274690D01*
X-35825Y274653D01*
X-35802Y274620D01*
X-35784Y274602D01*
X-35770Y274588D01*
X-35765Y274583D01*
X-35691Y274514D01*
X-35617Y274459D01*
X-35539Y274408D01*
X-35460Y274361D01*
X-35381Y274324D01*
X-35303Y274292D01*
X-35224Y274269D01*
X-35155Y274246D01*
X-35086Y274232D01*
X-35025Y274218D01*
X-34970Y274213D01*
X-34919Y274204D01*
X-34882D01*
X-34850Y274200D01*
X-34827D01*
X-34739Y274204D01*
X-34660Y274213D01*
X-34582Y274227D01*
X-34508Y274246D01*
X-34438Y274269D01*
X-34374Y274292D01*
X-34314Y274320D01*
X-34258Y274347D01*
X-34207Y274371D01*
X-34166Y274398D01*
X-34124Y274422D01*
X-34096Y274445D01*
X-34069Y274463D01*
X-34050Y274477D01*
X-34041Y274486D01*
X-34036Y274491D01*
X-33976Y274551D01*
X-33925Y274616D01*
X-33874Y274690D01*
X-33828Y274768D01*
X-33750Y274925D01*
X-33685Y275087D01*
X-33662Y275161D01*
X-33639Y275231D01*
X-33620Y275291D01*
X-33606Y275346D01*
X-33592Y275392D01*
X-33583Y275429D01*
X-33579Y275448D01*
Y275457D01*
X-32793Y275351D01*
X-32811Y275203D01*
X-32839Y275064D01*
X-32880Y274935D01*
X-32922Y274810D01*
X-32973Y274694D01*
X-33024Y274588D01*
X-33079Y274486D01*
X-33135Y274398D01*
X-33190Y274320D01*
X-33241Y274250D01*
X-33292Y274190D01*
X-33333Y274139D01*
X-33370Y274098D01*
X-33398Y274070D01*
X-33417Y274052D01*
X-33421Y274047D01*
X-33528Y273959D01*
X-33643Y273881D01*
X-33759Y273816D01*
X-33874Y273760D01*
X-33995Y273710D01*
X-34110Y273668D01*
X-34226Y273636D01*
X-34332Y273612D01*
X-34434Y273589D01*
X-34526Y273575D01*
X-34609Y273562D01*
X-34683Y273557D01*
X-34739Y273552D01*
X-34785Y273548D01*
X-34822D01*
X-34993Y273552D01*
X-35155Y273571D01*
X-35312Y273603D01*
X-35455Y273640D01*
X-35594Y273682D01*
X-35719Y273733D01*
X-35839Y273783D01*
X-35945Y273839D01*
X-36038Y273895D01*
X-36126Y273945D01*
X-36195Y273996D01*
X-36255Y274038D01*
X-36306Y274075D01*
X-36338Y274107D01*
X-36357Y274126D01*
X-36366Y274130D01*
X-36472Y274241D01*
X-36569Y274357D01*
X-36653Y274477D01*
X-36722Y274597D01*
X-36782Y274717D01*
X-36833Y274837D01*
X-36870Y274949D01*
X-36902Y275059D01*
X-36930Y275161D01*
X-36949Y275254D01*
X-36962Y275337D01*
X-36972Y275411D01*
X-36976Y275466D01*
X-36981Y275513D01*
Y275540D01*
Y275549D01*
X-36976Y275665D01*
X-36967Y275771D01*
X-36953Y275873D01*
X-36930Y275970D01*
X-36907Y276063D01*
X-36884Y276146D01*
X-36851Y276224D01*
X-36824Y276298D01*
X-36796Y276363D01*
X-36768Y276418D01*
X-36741Y276465D01*
X-36717Y276506D01*
X-36694Y276539D01*
X-36680Y276562D01*
X-36671Y276576D01*
X-36667Y276580D01*
X-36607Y276654D01*
X-36537Y276724D01*
X-36468Y276784D01*
X-36398Y276839D01*
X-36325Y276890D01*
X-36251Y276932D01*
X-36177Y276973D01*
X-36107Y277006D01*
X-36042Y277038D01*
X-35982Y277061D01*
X-35927Y277084D01*
X-35876Y277098D01*
X-35839Y277112D01*
X-35807Y277121D01*
X-35788Y277126D01*
X-35784D01*
X-35862Y277163D01*
X-35936Y277204D01*
X-36005Y277251D01*
X-36070Y277292D01*
X-36130Y277339D01*
X-36181Y277385D01*
X-36232Y277426D01*
X-36274Y277468D01*
X-36315Y277509D01*
X-36348Y277547D01*
X-36375Y277579D01*
X-36398Y277607D01*
X-36417Y277630D01*
X-36431Y277648D01*
X-36435Y277657D01*
X-36440Y277662D01*
X-36482Y277727D01*
X-36514Y277792D01*
X-36546Y277861D01*
X-36569Y277926D01*
X-36611Y278050D01*
X-36639Y278171D01*
X-36648Y278221D01*
X-36653Y278272D01*
X-36662Y278314D01*
Y278351D01*
X-36667Y278379D01*
Y278402D01*
Y278416D01*
Y278420D01*
X-36662Y278503D01*
X-36657Y278582D01*
X-36630Y278734D01*
X-36593Y278873D01*
X-36569Y278933D01*
X-36551Y278993D01*
X-36528Y279049D01*
X-36505Y279095D01*
X-36486Y279141D01*
X-36468Y279174D01*
X-36454Y279206D01*
X-36440Y279225D01*
X-36435Y279238D01*
X-36431Y279243D01*
X-36385Y279312D01*
X-36334Y279382D01*
X-36227Y279502D01*
X-36116Y279608D01*
X-36005Y279696D01*
X-35955Y279733D01*
X-35908Y279765D01*
X-35867Y279793D01*
X-35830Y279816D01*
X-35798Y279835D01*
X-35774Y279849D01*
X-35761Y279853D01*
X-35756Y279858D01*
X-35673Y279900D01*
X-35589Y279932D01*
X-35506Y279964D01*
X-35418Y279987D01*
X-35257Y280029D01*
X-35183Y280043D01*
X-35109Y280057D01*
X-35044Y280066D01*
X-34984Y280070D01*
X-34928Y280080D01*
X-34882D01*
X-34845Y280084D01*
X-34794D01*
X-34656Y280080D01*
D02*
G37*
G36*
X-30227Y280006D02*
X-30181Y279927D01*
X-30075Y279775D01*
X-29959Y279631D01*
X-29899Y279562D01*
X-29843Y279497D01*
X-29788Y279442D01*
X-29737Y279386D01*
X-29691Y279340D01*
X-29649Y279298D01*
X-29617Y279266D01*
X-29594Y279243D01*
X-29575Y279229D01*
X-29571Y279225D01*
X-29381Y279067D01*
X-29182Y278924D01*
X-28988Y278795D01*
X-28896Y278739D01*
X-28808Y278684D01*
X-28729Y278638D01*
X-28655Y278596D01*
X-28586Y278559D01*
X-28530Y278531D01*
X-28484Y278508D01*
X-28447Y278489D01*
X-28429Y278480D01*
X-28419Y278476D01*
Y277717D01*
X-28558Y277773D01*
X-28702Y277838D01*
X-28840Y277902D01*
X-28970Y277967D01*
X-29025Y277999D01*
X-29081Y278027D01*
X-29127Y278055D01*
X-29164Y278078D01*
X-29196Y278092D01*
X-29224Y278106D01*
X-29238Y278115D01*
X-29242Y278120D01*
X-29409Y278221D01*
X-29483Y278272D01*
X-29557Y278319D01*
X-29621Y278369D01*
X-29681Y278411D01*
X-29737Y278457D01*
X-29792Y278494D01*
X-29834Y278531D01*
X-29876Y278563D01*
X-29913Y278596D01*
X-29940Y278619D01*
X-29964Y278638D01*
X-29977Y278651D01*
X-29987Y278661D01*
X-29991Y278665D01*
Y273663D01*
X-30777D01*
Y280084D01*
X-30269D01*
X-30227Y280006D01*
D02*
G37*
G36*
X-24301Y280168D02*
X-24148Y280154D01*
X-24000Y280135D01*
X-23857Y280112D01*
X-23723Y280084D01*
X-23593Y280047D01*
X-23473Y280015D01*
X-23362Y279978D01*
X-23265Y279941D01*
X-23173Y279909D01*
X-23094Y279876D01*
X-23029Y279844D01*
X-22974Y279821D01*
X-22937Y279802D01*
X-22914Y279788D01*
X-22905Y279784D01*
X-22775Y279705D01*
X-22655Y279622D01*
X-22544Y279534D01*
X-22438Y279442D01*
X-22341Y279349D01*
X-22253Y279257D01*
X-22169Y279160D01*
X-22100Y279072D01*
X-22035Y278989D01*
X-21975Y278906D01*
X-21929Y278836D01*
X-21888Y278776D01*
X-21860Y278721D01*
X-21837Y278684D01*
X-21823Y278661D01*
X-21818Y278651D01*
X-21753Y278508D01*
X-21693Y278365D01*
X-21642Y278217D01*
X-21601Y278069D01*
X-21564Y277921D01*
X-21532Y277773D01*
X-21508Y277634D01*
X-21485Y277505D01*
X-21471Y277380D01*
X-21458Y277264D01*
X-21453Y277163D01*
X-21444Y277075D01*
Y277006D01*
X-21439Y276978D01*
Y276955D01*
Y276936D01*
Y276922D01*
Y276913D01*
Y276908D01*
X-21444Y276737D01*
X-21453Y276571D01*
X-21471Y276409D01*
X-21490Y276257D01*
X-21518Y276104D01*
X-21545Y275965D01*
X-21578Y275831D01*
X-21610Y275707D01*
X-21638Y275596D01*
X-21670Y275494D01*
X-21698Y275406D01*
X-21726Y275332D01*
X-21744Y275272D01*
X-21763Y275231D01*
X-21772Y275203D01*
X-21776Y275198D01*
Y275194D01*
X-21841Y275050D01*
X-21915Y274911D01*
X-21994Y274787D01*
X-22072Y274667D01*
X-22156Y274560D01*
X-22239Y274459D01*
X-22317Y274371D01*
X-22396Y274287D01*
X-22470Y274213D01*
X-22539Y274153D01*
X-22599Y274098D01*
X-22655Y274056D01*
X-22701Y274024D01*
X-22734Y273996D01*
X-22752Y273982D01*
X-22761Y273978D01*
X-22886Y273904D01*
X-23020Y273839D01*
X-23159Y273783D01*
X-23297Y273733D01*
X-23436Y273696D01*
X-23579Y273659D01*
X-23714Y273631D01*
X-23848Y273608D01*
X-23968Y273594D01*
X-24083Y273580D01*
X-24185Y273571D01*
X-24273Y273562D01*
X-24342D01*
X-24375Y273557D01*
X-24444D01*
X-24629Y273562D01*
X-24804Y273580D01*
X-24971Y273608D01*
X-25133Y273640D01*
X-25281Y273682D01*
X-25419Y273728D01*
X-25549Y273779D01*
X-25664Y273830D01*
X-25771Y273881D01*
X-25863Y273932D01*
X-25946Y273978D01*
X-26011Y274019D01*
X-26067Y274052D01*
X-26103Y274079D01*
X-26127Y274098D01*
X-26136Y274102D01*
X-26261Y274213D01*
X-26376Y274329D01*
X-26483Y274454D01*
X-26580Y274583D01*
X-26667Y274717D01*
X-26746Y274847D01*
X-26815Y274976D01*
X-26876Y275106D01*
X-26931Y275226D01*
X-26977Y275337D01*
X-27014Y275434D01*
X-27046Y275522D01*
X-27070Y275591D01*
X-27079Y275623D01*
X-27083Y275646D01*
X-27088Y275665D01*
X-27093Y275679D01*
X-27097Y275688D01*
Y275693D01*
X-26251Y275905D01*
X-26214Y275758D01*
X-26173Y275623D01*
X-26127Y275494D01*
X-26071Y275378D01*
X-26020Y275267D01*
X-25960Y275166D01*
X-25905Y275078D01*
X-25849Y274995D01*
X-25798Y274925D01*
X-25747Y274861D01*
X-25701Y274810D01*
X-25660Y274768D01*
X-25627Y274731D01*
X-25604Y274708D01*
X-25586Y274694D01*
X-25581Y274690D01*
X-25484Y274620D01*
X-25387Y274555D01*
X-25285Y274500D01*
X-25183Y274454D01*
X-25082Y274417D01*
X-24980Y274384D01*
X-24883Y274357D01*
X-24791Y274334D01*
X-24707Y274315D01*
X-24624Y274306D01*
X-24555Y274297D01*
X-24495Y274287D01*
X-24444D01*
X-24407Y274283D01*
X-24375D01*
X-24268Y274287D01*
X-24162Y274297D01*
X-24060Y274310D01*
X-23958Y274329D01*
X-23866Y274352D01*
X-23774Y274380D01*
X-23690Y274403D01*
X-23612Y274435D01*
X-23542Y274463D01*
X-23478Y274486D01*
X-23422Y274514D01*
X-23376Y274537D01*
X-23339Y274555D01*
X-23311Y274569D01*
X-23293Y274579D01*
X-23288Y274583D01*
X-23196Y274643D01*
X-23112Y274708D01*
X-23034Y274777D01*
X-22960Y274851D01*
X-22895Y274925D01*
X-22835Y275004D01*
X-22780Y275078D01*
X-22729Y275147D01*
X-22687Y275217D01*
X-22650Y275281D01*
X-22618Y275341D01*
X-22595Y275392D01*
X-22572Y275434D01*
X-22558Y275462D01*
X-22553Y275485D01*
X-22548Y275489D01*
X-22507Y275605D01*
X-22470Y275725D01*
X-22438Y275845D01*
X-22415Y275970D01*
X-22368Y276206D01*
X-22354Y276321D01*
X-22341Y276432D01*
X-22331Y276530D01*
X-22327Y276622D01*
X-22322Y276705D01*
X-22317Y276775D01*
X-22313Y276835D01*
Y276876D01*
Y276904D01*
Y276913D01*
X-22317Y277033D01*
X-22322Y277149D01*
X-22345Y277371D01*
X-22359Y277477D01*
X-22378Y277579D01*
X-22396Y277676D01*
X-22415Y277764D01*
X-22433Y277847D01*
X-22447Y277921D01*
X-22465Y277986D01*
X-22479Y278041D01*
X-22493Y278083D01*
X-22502Y278115D01*
X-22512Y278138D01*
Y278143D01*
X-22553Y278254D01*
X-22599Y278356D01*
X-22650Y278453D01*
X-22706Y278540D01*
X-22761Y278628D01*
X-22817Y278707D01*
X-22877Y278776D01*
X-22932Y278841D01*
X-22988Y278896D01*
X-23039Y278947D01*
X-23085Y278989D01*
X-23126Y279026D01*
X-23159Y279053D01*
X-23182Y279077D01*
X-23200Y279086D01*
X-23205Y279090D01*
X-23302Y279155D01*
X-23404Y279206D01*
X-23505Y279257D01*
X-23607Y279298D01*
X-23714Y279331D01*
X-23815Y279359D01*
X-23912Y279382D01*
X-24009Y279400D01*
X-24097Y279419D01*
X-24180Y279428D01*
X-24254Y279437D01*
X-24319Y279442D01*
X-24370Y279447D01*
X-24439D01*
X-24560Y279442D01*
X-24670Y279433D01*
X-24777Y279419D01*
X-24878Y279396D01*
X-24971Y279373D01*
X-25059Y279345D01*
X-25137Y279317D01*
X-25211Y279289D01*
X-25276Y279257D01*
X-25336Y279229D01*
X-25387Y279201D01*
X-25429Y279178D01*
X-25461Y279155D01*
X-25484Y279141D01*
X-25498Y279132D01*
X-25503Y279128D01*
X-25581Y279063D01*
X-25655Y278993D01*
X-25720Y278915D01*
X-25784Y278836D01*
X-25845Y278748D01*
X-25896Y278665D01*
X-25946Y278582D01*
X-25988Y278499D01*
X-26025Y278420D01*
X-26062Y278346D01*
X-26090Y278281D01*
X-26113Y278226D01*
X-26131Y278175D01*
X-26145Y278143D01*
X-26150Y278120D01*
X-26154Y278111D01*
X-26986Y278305D01*
X-26936Y278466D01*
X-26871Y278619D01*
X-26806Y278762D01*
X-26732Y278896D01*
X-26658Y279016D01*
X-26584Y279132D01*
X-26506Y279234D01*
X-26432Y279326D01*
X-26358Y279410D01*
X-26293Y279479D01*
X-26233Y279543D01*
X-26177Y279590D01*
X-26136Y279631D01*
X-26099Y279659D01*
X-26080Y279678D01*
X-26071Y279682D01*
X-25946Y279770D01*
X-25817Y279844D01*
X-25678Y279909D01*
X-25544Y279964D01*
X-25410Y280015D01*
X-25276Y280052D01*
X-25147Y280084D01*
X-25022Y280112D01*
X-24902Y280131D01*
X-24795Y280145D01*
X-24703Y280158D01*
X-24620Y280163D01*
X-24550Y280168D01*
X-24523Y280172D01*
X-24458D01*
X-24301Y280168D01*
D02*
G37*
G36*
X70634Y280075D02*
X70791Y280061D01*
X70939Y280038D01*
X71078Y280006D01*
X71207Y279969D01*
X71328Y279927D01*
X71434Y279886D01*
X71536Y279844D01*
X71623Y279798D01*
X71702Y279756D01*
X71767Y279715D01*
X71822Y279678D01*
X71864Y279650D01*
X71896Y279622D01*
X71915Y279608D01*
X71919Y279604D01*
X72016Y279511D01*
X72100Y279410D01*
X72178Y279303D01*
X72243Y279192D01*
X72303Y279077D01*
X72354Y278961D01*
X72395Y278850D01*
X72432Y278739D01*
X72460Y278638D01*
X72483Y278540D01*
X72502Y278453D01*
X72516Y278379D01*
X72530Y278319D01*
X72534Y278272D01*
Y278254D01*
X72539Y278240D01*
Y278235D01*
Y278231D01*
X71730Y278147D01*
X71725Y278258D01*
X71716Y278360D01*
X71697Y278457D01*
X71679Y278550D01*
X71651Y278633D01*
X71623Y278707D01*
X71591Y278781D01*
X71559Y278841D01*
X71531Y278896D01*
X71499Y278947D01*
X71471Y278989D01*
X71443Y279026D01*
X71425Y279049D01*
X71406Y279072D01*
X71397Y279081D01*
X71392Y279086D01*
X71328Y279146D01*
X71254Y279197D01*
X71180Y279243D01*
X71106Y279285D01*
X71027Y279317D01*
X70953Y279345D01*
X70879Y279368D01*
X70810Y279386D01*
X70740Y279400D01*
X70680Y279410D01*
X70625Y279419D01*
X70574Y279423D01*
X70537Y279428D01*
X70482D01*
X70384Y279423D01*
X70292Y279414D01*
X70204Y279400D01*
X70121Y279377D01*
X70047Y279354D01*
X69973Y279326D01*
X69908Y279298D01*
X69848Y279266D01*
X69797Y279238D01*
X69751Y279206D01*
X69710Y279178D01*
X69677Y279155D01*
X69650Y279132D01*
X69631Y279118D01*
X69622Y279109D01*
X69617Y279104D01*
X69557Y279044D01*
X69506Y278980D01*
X69460Y278915D01*
X69423Y278846D01*
X69391Y278781D01*
X69363Y278716D01*
X69340Y278651D01*
X69321Y278591D01*
X69307Y278536D01*
X69298Y278485D01*
X69289Y278439D01*
X69284Y278397D01*
X69280Y278365D01*
Y278342D01*
Y278323D01*
Y278319D01*
X69284Y278235D01*
X69293Y278152D01*
X69312Y278069D01*
X69335Y277986D01*
X69395Y277824D01*
X69432Y277750D01*
X69465Y277680D01*
X69497Y277616D01*
X69534Y277556D01*
X69562Y277505D01*
X69589Y277459D01*
X69617Y277426D01*
X69636Y277399D01*
X69645Y277380D01*
X69650Y277375D01*
X69724Y277278D01*
X69816Y277172D01*
X69913Y277066D01*
X70024Y276955D01*
X70135Y276839D01*
X70255Y276728D01*
X70371Y276617D01*
X70491Y276511D01*
X70602Y276409D01*
X70708Y276317D01*
X70801Y276229D01*
X70888Y276160D01*
X70958Y276099D01*
X70985Y276076D01*
X71009Y276053D01*
X71027Y276040D01*
X71041Y276026D01*
X71050Y276021D01*
X71055Y276016D01*
X71175Y275915D01*
X71291Y275818D01*
X71397Y275725D01*
X71499Y275637D01*
X71591Y275549D01*
X71674Y275471D01*
X71748Y275397D01*
X71818Y275327D01*
X71882Y275267D01*
X71933Y275212D01*
X71979Y275166D01*
X72016Y275124D01*
X72044Y275092D01*
X72063Y275069D01*
X72077Y275055D01*
X72081Y275050D01*
X72206Y274893D01*
X72312Y274740D01*
X72400Y274597D01*
X72442Y274532D01*
X72474Y274468D01*
X72502Y274412D01*
X72530Y274361D01*
X72553Y274315D01*
X72566Y274273D01*
X72580Y274241D01*
X72590Y274218D01*
X72599Y274204D01*
Y274200D01*
X72631Y274102D01*
X72654Y274005D01*
X72668Y273913D01*
X72677Y273834D01*
X72682Y273760D01*
X72687Y273733D01*
Y273705D01*
Y273686D01*
Y273673D01*
Y273663D01*
Y273659D01*
X68461D01*
Y274412D01*
X71596D01*
X71545Y274491D01*
X71489Y274569D01*
X71434Y274639D01*
X71383Y274704D01*
X71337Y274754D01*
X71300Y274796D01*
X71277Y274824D01*
X71267Y274833D01*
X71226Y274879D01*
X71170Y274930D01*
X71110Y274986D01*
X71041Y275050D01*
X70967Y275115D01*
X70893Y275184D01*
X70736Y275318D01*
X70662Y275383D01*
X70592Y275443D01*
X70532Y275499D01*
X70472Y275545D01*
X70426Y275586D01*
X70394Y275614D01*
X70371Y275637D01*
X70361Y275642D01*
X70209Y275771D01*
X70065Y275896D01*
X69936Y276012D01*
X69816Y276118D01*
X69705Y276220D01*
X69608Y276312D01*
X69515Y276395D01*
X69437Y276469D01*
X69367Y276539D01*
X69312Y276599D01*
X69261Y276650D01*
X69220Y276691D01*
X69187Y276724D01*
X69169Y276747D01*
X69155Y276761D01*
X69150Y276765D01*
X69085Y276844D01*
X69021Y276918D01*
X68965Y276992D01*
X68914Y277061D01*
X68822Y277195D01*
X68785Y277255D01*
X68753Y277311D01*
X68720Y277362D01*
X68697Y277408D01*
X68674Y277449D01*
X68660Y277482D01*
X68646Y277509D01*
X68637Y277528D01*
X68628Y277542D01*
Y277547D01*
X68577Y277685D01*
X68535Y277819D01*
X68508Y277949D01*
X68489Y278064D01*
X68485Y278115D01*
X68480Y278161D01*
X68475Y278198D01*
X68471Y278235D01*
Y278263D01*
Y278281D01*
Y278295D01*
Y278300D01*
X68475Y278439D01*
X68494Y278573D01*
X68521Y278698D01*
X68554Y278818D01*
X68595Y278929D01*
X68642Y279035D01*
X68693Y279132D01*
X68739Y279220D01*
X68790Y279298D01*
X68840Y279368D01*
X68887Y279428D01*
X68928Y279474D01*
X68961Y279516D01*
X68988Y279543D01*
X69007Y279562D01*
X69012Y279567D01*
X69118Y279659D01*
X69229Y279738D01*
X69344Y279802D01*
X69465Y279862D01*
X69585Y279913D01*
X69710Y279955D01*
X69825Y279987D01*
X69941Y280015D01*
X70047Y280038D01*
X70149Y280052D01*
X70237Y280066D01*
X70315Y280070D01*
X70380Y280075D01*
X70426Y280080D01*
X70468D01*
X70634Y280075D01*
D02*
G37*
G36*
X75151Y280001D02*
X75197Y279923D01*
X75303Y279770D01*
X75419Y279627D01*
X75479Y279557D01*
X75534Y279493D01*
X75590Y279437D01*
X75641Y279382D01*
X75687Y279335D01*
X75729Y279294D01*
X75761Y279261D01*
X75784Y279238D01*
X75802Y279225D01*
X75807Y279220D01*
X75997Y279063D01*
X76195Y278920D01*
X76389Y278790D01*
X76482Y278734D01*
X76570Y278679D01*
X76648Y278633D01*
X76722Y278591D01*
X76792Y278554D01*
X76847Y278526D01*
X76893Y278503D01*
X76930Y278485D01*
X76949Y278476D01*
X76958Y278471D01*
Y277713D01*
X76820Y277768D01*
X76676Y277833D01*
X76537Y277898D01*
X76408Y277962D01*
X76353Y277995D01*
X76297Y278023D01*
X76251Y278050D01*
X76214Y278074D01*
X76182Y278087D01*
X76154Y278101D01*
X76140Y278111D01*
X76135Y278115D01*
X75969Y278217D01*
X75895Y278268D01*
X75821Y278314D01*
X75756Y278365D01*
X75696Y278406D01*
X75641Y278453D01*
X75585Y278489D01*
X75544Y278526D01*
X75502Y278559D01*
X75465Y278591D01*
X75437Y278614D01*
X75414Y278633D01*
X75400Y278647D01*
X75391Y278656D01*
X75386Y278661D01*
Y273659D01*
X74601D01*
Y280080D01*
X75109D01*
X75151Y280001D01*
D02*
G37*
G36*
X81077Y280163D02*
X81230Y280149D01*
X81377Y280131D01*
X81521Y280107D01*
X81655Y280080D01*
X81784Y280043D01*
X81904Y280010D01*
X82015Y279974D01*
X82113Y279937D01*
X82205Y279904D01*
X82284Y279872D01*
X82348Y279839D01*
X82404Y279816D01*
X82441Y279798D01*
X82464Y279784D01*
X82473Y279779D01*
X82603Y279701D01*
X82723Y279618D01*
X82834Y279530D01*
X82940Y279437D01*
X83037Y279345D01*
X83125Y279252D01*
X83208Y279155D01*
X83278Y279067D01*
X83342Y278984D01*
X83402Y278901D01*
X83449Y278832D01*
X83490Y278771D01*
X83518Y278716D01*
X83541Y278679D01*
X83555Y278656D01*
X83560Y278647D01*
X83624Y278503D01*
X83684Y278360D01*
X83735Y278212D01*
X83777Y278064D01*
X83814Y277916D01*
X83846Y277768D01*
X83869Y277630D01*
X83892Y277500D01*
X83906Y277375D01*
X83920Y277260D01*
X83925Y277158D01*
X83934Y277070D01*
Y277001D01*
X83939Y276973D01*
Y276950D01*
Y276932D01*
Y276918D01*
Y276908D01*
Y276904D01*
X83934Y276733D01*
X83925Y276567D01*
X83906Y276405D01*
X83888Y276252D01*
X83860Y276099D01*
X83832Y275961D01*
X83800Y275827D01*
X83767Y275702D01*
X83740Y275591D01*
X83707Y275489D01*
X83680Y275401D01*
X83652Y275327D01*
X83633Y275267D01*
X83615Y275226D01*
X83606Y275198D01*
X83601Y275194D01*
Y275189D01*
X83536Y275046D01*
X83462Y274907D01*
X83384Y274782D01*
X83305Y274662D01*
X83222Y274555D01*
X83139Y274454D01*
X83060Y274366D01*
X82982Y274283D01*
X82908Y274209D01*
X82838Y274149D01*
X82778Y274093D01*
X82723Y274052D01*
X82676Y274019D01*
X82644Y273992D01*
X82626Y273978D01*
X82616Y273973D01*
X82492Y273899D01*
X82358Y273834D01*
X82219Y273779D01*
X82080Y273728D01*
X81941Y273691D01*
X81798Y273654D01*
X81664Y273626D01*
X81530Y273603D01*
X81410Y273589D01*
X81294Y273575D01*
X81193Y273566D01*
X81105Y273557D01*
X81035D01*
X81003Y273552D01*
X80934D01*
X80749Y273557D01*
X80573Y273575D01*
X80407Y273603D01*
X80245Y273636D01*
X80097Y273677D01*
X79958Y273723D01*
X79829Y273774D01*
X79713Y273825D01*
X79607Y273876D01*
X79514Y273927D01*
X79431Y273973D01*
X79367Y274015D01*
X79311Y274047D01*
X79274Y274075D01*
X79251Y274093D01*
X79242Y274098D01*
X79117Y274209D01*
X79001Y274324D01*
X78895Y274449D01*
X78798Y274579D01*
X78710Y274713D01*
X78632Y274842D01*
X78562Y274972D01*
X78502Y275101D01*
X78447Y275221D01*
X78401Y275332D01*
X78363Y275429D01*
X78331Y275517D01*
X78308Y275586D01*
X78299Y275619D01*
X78294Y275642D01*
X78289Y275660D01*
X78285Y275674D01*
X78280Y275683D01*
Y275688D01*
X79126Y275901D01*
X79163Y275753D01*
X79205Y275619D01*
X79251Y275489D01*
X79307Y275374D01*
X79357Y275263D01*
X79418Y275161D01*
X79473Y275073D01*
X79528Y274990D01*
X79579Y274921D01*
X79630Y274856D01*
X79676Y274805D01*
X79718Y274764D01*
X79750Y274727D01*
X79773Y274704D01*
X79792Y274690D01*
X79797Y274685D01*
X79894Y274616D01*
X79991Y274551D01*
X80092Y274495D01*
X80194Y274449D01*
X80296Y274412D01*
X80398Y274380D01*
X80495Y274352D01*
X80587Y274329D01*
X80670Y274310D01*
X80753Y274301D01*
X80823Y274292D01*
X80883Y274283D01*
X80934D01*
X80971Y274278D01*
X81003D01*
X81109Y274283D01*
X81216Y274292D01*
X81317Y274306D01*
X81419Y274324D01*
X81512Y274347D01*
X81604Y274375D01*
X81687Y274398D01*
X81766Y274431D01*
X81835Y274459D01*
X81900Y274482D01*
X81955Y274509D01*
X82002Y274532D01*
X82039Y274551D01*
X82066Y274565D01*
X82085Y274574D01*
X82089Y274579D01*
X82182Y274639D01*
X82265Y274704D01*
X82344Y274773D01*
X82418Y274847D01*
X82482Y274921D01*
X82542Y274999D01*
X82598Y275073D01*
X82649Y275143D01*
X82690Y275212D01*
X82727Y275277D01*
X82760Y275337D01*
X82783Y275388D01*
X82806Y275429D01*
X82820Y275457D01*
X82824Y275480D01*
X82829Y275485D01*
X82871Y275600D01*
X82908Y275721D01*
X82940Y275841D01*
X82963Y275965D01*
X83009Y276201D01*
X83023Y276317D01*
X83037Y276428D01*
X83046Y276525D01*
X83051Y276617D01*
X83056Y276700D01*
X83060Y276770D01*
X83065Y276830D01*
Y276872D01*
Y276899D01*
Y276908D01*
X83060Y277029D01*
X83056Y277144D01*
X83033Y277366D01*
X83019Y277472D01*
X83000Y277574D01*
X82982Y277671D01*
X82963Y277759D01*
X82945Y277842D01*
X82931Y277916D01*
X82912Y277981D01*
X82898Y278036D01*
X82885Y278078D01*
X82875Y278111D01*
X82866Y278134D01*
Y278138D01*
X82824Y278249D01*
X82778Y278351D01*
X82727Y278448D01*
X82672Y278536D01*
X82616Y278624D01*
X82561Y278702D01*
X82501Y278771D01*
X82445Y278836D01*
X82390Y278892D01*
X82339Y278943D01*
X82293Y278984D01*
X82251Y279021D01*
X82219Y279049D01*
X82196Y279072D01*
X82177Y279081D01*
X82173Y279086D01*
X82076Y279151D01*
X81974Y279201D01*
X81872Y279252D01*
X81770Y279294D01*
X81664Y279326D01*
X81562Y279354D01*
X81465Y279377D01*
X81368Y279396D01*
X81280Y279414D01*
X81197Y279423D01*
X81123Y279433D01*
X81059Y279437D01*
X81008Y279442D01*
X80938D01*
X80818Y279437D01*
X80707Y279428D01*
X80601Y279414D01*
X80499Y279391D01*
X80407Y279368D01*
X80319Y279340D01*
X80240Y279312D01*
X80166Y279285D01*
X80102Y279252D01*
X80042Y279225D01*
X79991Y279197D01*
X79949Y279174D01*
X79917Y279151D01*
X79894Y279137D01*
X79880Y279128D01*
X79875Y279123D01*
X79797Y279058D01*
X79723Y278989D01*
X79658Y278910D01*
X79593Y278832D01*
X79533Y278744D01*
X79482Y278661D01*
X79431Y278577D01*
X79390Y278494D01*
X79353Y278416D01*
X79316Y278342D01*
X79288Y278277D01*
X79265Y278221D01*
X79246Y278171D01*
X79233Y278138D01*
X79228Y278115D01*
X79223Y278106D01*
X78391Y278300D01*
X78442Y278462D01*
X78507Y278614D01*
X78572Y278758D01*
X78646Y278892D01*
X78719Y279012D01*
X78793Y279128D01*
X78872Y279229D01*
X78946Y279322D01*
X79020Y279405D01*
X79085Y279474D01*
X79145Y279539D01*
X79200Y279585D01*
X79242Y279627D01*
X79279Y279655D01*
X79297Y279673D01*
X79307Y279678D01*
X79431Y279765D01*
X79561Y279839D01*
X79700Y279904D01*
X79833Y279960D01*
X79968Y280010D01*
X80102Y280047D01*
X80231Y280080D01*
X80356Y280107D01*
X80476Y280126D01*
X80582Y280140D01*
X80675Y280154D01*
X80758Y280158D01*
X80827Y280163D01*
X80855Y280168D01*
X80920D01*
X81077Y280163D01*
D02*
G37*
G36*
X-77343Y193839D02*
X-77176Y193830D01*
X-77015Y193811D01*
X-76862Y193793D01*
X-76710Y193765D01*
X-76571Y193738D01*
X-76437Y193705D01*
X-76312Y193673D01*
X-76201Y193645D01*
X-76099Y193613D01*
X-76012Y193585D01*
X-75938Y193557D01*
X-75877Y193539D01*
X-75836Y193520D01*
X-75808Y193511D01*
X-75803Y193506D01*
X-75799D01*
X-75656Y193442D01*
X-75517Y193368D01*
X-75392Y193289D01*
X-75272Y193211D01*
X-75166Y193127D01*
X-75064Y193044D01*
X-74976Y192966D01*
X-74893Y192887D01*
X-74819Y192813D01*
X-74759Y192744D01*
X-74703Y192684D01*
X-74662Y192628D01*
X-74629Y192582D01*
X-74602Y192549D01*
X-74588Y192531D01*
X-74583Y192522D01*
X-74509Y192397D01*
X-74444Y192263D01*
X-74389Y192124D01*
X-74338Y191985D01*
X-74301Y191847D01*
X-74264Y191703D01*
X-74236Y191569D01*
X-74213Y191435D01*
X-74199Y191315D01*
X-74186Y191200D01*
X-74176Y191098D01*
X-74167Y191010D01*
Y190941D01*
X-74162Y190908D01*
Y190839D01*
X-74167Y190654D01*
X-74186Y190478D01*
X-74213Y190312D01*
X-74246Y190150D01*
X-74287Y190002D01*
X-74334Y189864D01*
X-74384Y189734D01*
X-74435Y189619D01*
X-74486Y189512D01*
X-74537Y189420D01*
X-74583Y189337D01*
X-74625Y189272D01*
X-74657Y189216D01*
X-74685Y189179D01*
X-74703Y189156D01*
X-74708Y189147D01*
X-74819Y189022D01*
X-74934Y188907D01*
X-75059Y188800D01*
X-75189Y188703D01*
X-75323Y188615D01*
X-75452Y188537D01*
X-75582Y188468D01*
X-75711Y188407D01*
X-75831Y188352D01*
X-75942Y188306D01*
X-76039Y188269D01*
X-76127Y188236D01*
X-76196Y188213D01*
X-76229Y188204D01*
X-76252Y188199D01*
X-76270Y188195D01*
X-76284Y188190D01*
X-76294Y188186D01*
X-76298D01*
X-76511Y189032D01*
X-76363Y189069D01*
X-76229Y189110D01*
X-76099Y189156D01*
X-75984Y189212D01*
X-75873Y189263D01*
X-75771Y189323D01*
X-75683Y189378D01*
X-75600Y189434D01*
X-75531Y189485D01*
X-75466Y189535D01*
X-75415Y189582D01*
X-75374Y189623D01*
X-75337Y189656D01*
X-75314Y189679D01*
X-75300Y189697D01*
X-75295Y189702D01*
X-75226Y189799D01*
X-75161Y189896D01*
X-75106Y189998D01*
X-75059Y190099D01*
X-75022Y190201D01*
X-74990Y190303D01*
X-74962Y190400D01*
X-74939Y190492D01*
X-74921Y190576D01*
X-74911Y190659D01*
X-74902Y190728D01*
X-74893Y190788D01*
Y190839D01*
X-74888Y190876D01*
Y190908D01*
X-74893Y191015D01*
X-74902Y191121D01*
X-74916Y191223D01*
X-74934Y191324D01*
X-74957Y191417D01*
X-74985Y191509D01*
X-75008Y191593D01*
X-75041Y191671D01*
X-75068Y191740D01*
X-75092Y191805D01*
X-75119Y191861D01*
X-75142Y191907D01*
X-75161Y191944D01*
X-75175Y191972D01*
X-75184Y191990D01*
X-75189Y191995D01*
X-75249Y192087D01*
X-75314Y192170D01*
X-75383Y192249D01*
X-75457Y192323D01*
X-75531Y192388D01*
X-75609Y192448D01*
X-75683Y192503D01*
X-75753Y192554D01*
X-75822Y192596D01*
X-75887Y192633D01*
X-75947Y192665D01*
X-75998Y192688D01*
X-76039Y192711D01*
X-76067Y192725D01*
X-76090Y192730D01*
X-76095Y192734D01*
X-76210Y192776D01*
X-76330Y192813D01*
X-76451Y192845D01*
X-76575Y192868D01*
X-76811Y192915D01*
X-76927Y192929D01*
X-77038Y192942D01*
X-77135Y192952D01*
X-77227Y192956D01*
X-77311Y192961D01*
X-77380Y192966D01*
X-77440Y192970D01*
X-77482D01*
X-77509D01*
X-77519D01*
X-77639Y192966D01*
X-77754Y192961D01*
X-77976Y192938D01*
X-78082Y192924D01*
X-78184Y192905D01*
X-78281Y192887D01*
X-78369Y192868D01*
X-78452Y192850D01*
X-78526Y192836D01*
X-78591Y192817D01*
X-78646Y192804D01*
X-78688Y192790D01*
X-78720Y192781D01*
X-78744Y192771D01*
X-78748D01*
X-78859Y192730D01*
X-78961Y192684D01*
X-79058Y192633D01*
X-79146Y192577D01*
X-79234Y192522D01*
X-79312Y192466D01*
X-79382Y192406D01*
X-79446Y192351D01*
X-79502Y192295D01*
X-79553Y192244D01*
X-79594Y192198D01*
X-79631Y192157D01*
X-79659Y192124D01*
X-79682Y192101D01*
X-79691Y192083D01*
X-79696Y192078D01*
X-79761Y191981D01*
X-79812Y191879D01*
X-79862Y191777D01*
X-79904Y191676D01*
X-79936Y191569D01*
X-79964Y191468D01*
X-79987Y191371D01*
X-80006Y191273D01*
X-80024Y191186D01*
X-80033Y191103D01*
X-80043Y191028D01*
X-80047Y190964D01*
X-80052Y190913D01*
Y190844D01*
X-80047Y190723D01*
X-80038Y190613D01*
X-80024Y190506D01*
X-80001Y190404D01*
X-79978Y190312D01*
X-79950Y190224D01*
X-79922Y190146D01*
X-79895Y190072D01*
X-79862Y190007D01*
X-79835Y189947D01*
X-79807Y189896D01*
X-79784Y189854D01*
X-79761Y189822D01*
X-79747Y189799D01*
X-79738Y189785D01*
X-79733Y189780D01*
X-79668Y189702D01*
X-79599Y189628D01*
X-79520Y189563D01*
X-79442Y189498D01*
X-79354Y189438D01*
X-79271Y189387D01*
X-79187Y189337D01*
X-79104Y189295D01*
X-79026Y189258D01*
X-78952Y189221D01*
X-78887Y189193D01*
X-78831Y189170D01*
X-78781Y189152D01*
X-78748Y189138D01*
X-78725Y189133D01*
X-78716Y189129D01*
X-78910Y188296D01*
X-79072Y188347D01*
X-79224Y188412D01*
X-79368Y188477D01*
X-79502Y188551D01*
X-79622Y188625D01*
X-79738Y188699D01*
X-79839Y188777D01*
X-79932Y188851D01*
X-80015Y188925D01*
X-80084Y188990D01*
X-80149Y189050D01*
X-80195Y189105D01*
X-80237Y189147D01*
X-80265Y189184D01*
X-80283Y189202D01*
X-80288Y189212D01*
X-80375Y189337D01*
X-80449Y189466D01*
X-80514Y189605D01*
X-80570Y189739D01*
X-80620Y189873D01*
X-80657Y190007D01*
X-80690Y190136D01*
X-80717Y190261D01*
X-80736Y190381D01*
X-80750Y190488D01*
X-80764Y190580D01*
X-80768Y190663D01*
X-80773Y190733D01*
X-80778Y190760D01*
Y190825D01*
X-80773Y190982D01*
X-80759Y191135D01*
X-80741Y191283D01*
X-80717Y191426D01*
X-80690Y191560D01*
X-80653Y191690D01*
X-80620Y191810D01*
X-80583Y191921D01*
X-80547Y192018D01*
X-80514Y192110D01*
X-80482Y192189D01*
X-80449Y192254D01*
X-80426Y192309D01*
X-80408Y192346D01*
X-80394Y192369D01*
X-80389Y192378D01*
X-80311Y192508D01*
X-80227Y192628D01*
X-80140Y192739D01*
X-80047Y192845D01*
X-79955Y192942D01*
X-79862Y193030D01*
X-79765Y193113D01*
X-79677Y193183D01*
X-79594Y193248D01*
X-79511Y193308D01*
X-79442Y193354D01*
X-79382Y193395D01*
X-79326Y193423D01*
X-79289Y193446D01*
X-79266Y193460D01*
X-79257Y193465D01*
X-79113Y193529D01*
X-78970Y193590D01*
X-78822Y193640D01*
X-78674Y193682D01*
X-78526Y193719D01*
X-78378Y193751D01*
X-78240Y193775D01*
X-78110Y193798D01*
X-77986Y193811D01*
X-77870Y193825D01*
X-77768Y193830D01*
X-77680Y193839D01*
X-77611D01*
X-77583Y193844D01*
X-77560D01*
X-77542D01*
X-77528D01*
X-77519D01*
X-77514D01*
X-77343Y193839D01*
D02*
G37*
G36*
X-78378Y186725D02*
X-78443Y186581D01*
X-78508Y186443D01*
X-78573Y186313D01*
X-78605Y186258D01*
X-78633Y186202D01*
X-78660Y186156D01*
X-78684Y186119D01*
X-78697Y186087D01*
X-78711Y186059D01*
X-78720Y186045D01*
X-78725Y186040D01*
X-78827Y185874D01*
X-78878Y185800D01*
X-78924Y185726D01*
X-78975Y185662D01*
X-79016Y185601D01*
X-79063Y185546D01*
X-79100Y185490D01*
X-79137Y185449D01*
X-79169Y185407D01*
X-79201Y185370D01*
X-79224Y185343D01*
X-79243Y185319D01*
X-79257Y185306D01*
X-79266Y185296D01*
X-79271Y185292D01*
X-74269D01*
Y184506D01*
X-80690D01*
Y185014D01*
X-80611Y185056D01*
X-80533Y185102D01*
X-80380Y185208D01*
X-80237Y185324D01*
X-80167Y185384D01*
X-80103Y185440D01*
X-80047Y185495D01*
X-79992Y185546D01*
X-79946Y185592D01*
X-79904Y185634D01*
X-79872Y185666D01*
X-79848Y185689D01*
X-79835Y185708D01*
X-79830Y185712D01*
X-79673Y185902D01*
X-79530Y186101D01*
X-79400Y186295D01*
X-79345Y186387D01*
X-79289Y186475D01*
X-79243Y186554D01*
X-79201Y186628D01*
X-79164Y186697D01*
X-79137Y186752D01*
X-79113Y186799D01*
X-79095Y186836D01*
X-79086Y186854D01*
X-79081Y186863D01*
X-78323D01*
X-78378Y186725D01*
D02*
G37*
G36*
Y181755D02*
X-78443Y181612D01*
X-78508Y181473D01*
X-78573Y181344D01*
X-78605Y181288D01*
X-78633Y181233D01*
X-78660Y181187D01*
X-78684Y181150D01*
X-78697Y181117D01*
X-78711Y181089D01*
X-78720Y181076D01*
X-78725Y181071D01*
X-78827Y180905D01*
X-78878Y180831D01*
X-78924Y180757D01*
X-78975Y180692D01*
X-79016Y180632D01*
X-79063Y180576D01*
X-79100Y180521D01*
X-79137Y180479D01*
X-79169Y180438D01*
X-79201Y180401D01*
X-79224Y180373D01*
X-79243Y180350D01*
X-79257Y180336D01*
X-79266Y180327D01*
X-79271Y180322D01*
X-74269D01*
Y179536D01*
X-80690D01*
Y180045D01*
X-80611Y180086D01*
X-80533Y180133D01*
X-80380Y180239D01*
X-80237Y180354D01*
X-80167Y180415D01*
X-80103Y180470D01*
X-80047Y180525D01*
X-79992Y180576D01*
X-79946Y180623D01*
X-79904Y180664D01*
X-79872Y180697D01*
X-79848Y180720D01*
X-79835Y180738D01*
X-79830Y180743D01*
X-79673Y180932D01*
X-79530Y181131D01*
X-79400Y181325D01*
X-79345Y181418D01*
X-79289Y181506D01*
X-79243Y181584D01*
X-79201Y181658D01*
X-79164Y181727D01*
X-79137Y181783D01*
X-79113Y181829D01*
X-79095Y181866D01*
X-79086Y181885D01*
X-79081Y181894D01*
X-78323D01*
X-78378Y181755D01*
D02*
G37*
G36*
X-36703Y200795D02*
X-36537Y200786D01*
X-36375Y200767D01*
X-36222Y200749D01*
X-36070Y200721D01*
X-35931Y200693D01*
X-35797Y200661D01*
X-35672Y200628D01*
X-35561Y200601D01*
X-35459Y200568D01*
X-35371Y200541D01*
X-35298Y200513D01*
X-35238Y200494D01*
X-35196Y200476D01*
X-35168Y200467D01*
X-35164Y200462D01*
X-35159D01*
X-35016Y200397D01*
X-34877Y200323D01*
X-34752Y200245D01*
X-34632Y200166D01*
X-34526Y200083D01*
X-34424Y200000D01*
X-34336Y199921D01*
X-34253Y199842D01*
X-34179Y199769D01*
X-34119Y199699D01*
X-34063Y199639D01*
X-34022Y199584D01*
X-33989Y199537D01*
X-33962Y199505D01*
X-33948Y199487D01*
X-33943Y199477D01*
X-33869Y199352D01*
X-33804Y199218D01*
X-33749Y199080D01*
X-33698Y198941D01*
X-33661Y198802D01*
X-33624Y198659D01*
X-33596Y198525D01*
X-33573Y198391D01*
X-33559Y198271D01*
X-33545Y198155D01*
X-33536Y198053D01*
X-33527Y197966D01*
Y197896D01*
X-33522Y197864D01*
Y197795D01*
X-33527Y197610D01*
X-33545Y197434D01*
X-33573Y197268D01*
X-33606Y197106D01*
X-33647Y196958D01*
X-33693Y196819D01*
X-33744Y196690D01*
X-33795Y196574D01*
X-33846Y196468D01*
X-33897Y196375D01*
X-33943Y196292D01*
X-33985Y196227D01*
X-34017Y196172D01*
X-34045Y196135D01*
X-34063Y196112D01*
X-34068Y196103D01*
X-34179Y195978D01*
X-34294Y195862D01*
X-34419Y195756D01*
X-34549Y195659D01*
X-34683Y195571D01*
X-34812Y195492D01*
X-34942Y195423D01*
X-35071Y195363D01*
X-35191Y195308D01*
X-35302Y195261D01*
X-35399Y195224D01*
X-35487Y195192D01*
X-35556Y195169D01*
X-35589Y195160D01*
X-35612Y195155D01*
X-35630Y195150D01*
X-35644Y195146D01*
X-35654Y195141D01*
X-35658D01*
X-35871Y195987D01*
X-35723Y196024D01*
X-35589Y196066D01*
X-35459Y196112D01*
X-35344Y196167D01*
X-35233Y196218D01*
X-35131Y196278D01*
X-35043Y196334D01*
X-34960Y196389D01*
X-34891Y196440D01*
X-34826Y196491D01*
X-34775Y196537D01*
X-34734Y196579D01*
X-34697Y196611D01*
X-34674Y196634D01*
X-34660Y196653D01*
X-34655Y196657D01*
X-34586Y196754D01*
X-34521Y196852D01*
X-34465Y196953D01*
X-34419Y197055D01*
X-34382Y197157D01*
X-34350Y197258D01*
X-34322Y197355D01*
X-34299Y197448D01*
X-34281Y197531D01*
X-34271Y197614D01*
X-34262Y197684D01*
X-34253Y197744D01*
Y197795D01*
X-34248Y197832D01*
Y197864D01*
X-34253Y197970D01*
X-34262Y198077D01*
X-34276Y198178D01*
X-34294Y198280D01*
X-34318Y198372D01*
X-34345Y198465D01*
X-34368Y198548D01*
X-34401Y198627D01*
X-34429Y198696D01*
X-34452Y198761D01*
X-34479Y198816D01*
X-34502Y198862D01*
X-34521Y198899D01*
X-34535Y198927D01*
X-34544Y198946D01*
X-34549Y198950D01*
X-34609Y199043D01*
X-34674Y199126D01*
X-34743Y199205D01*
X-34817Y199279D01*
X-34891Y199343D01*
X-34969Y199403D01*
X-35043Y199459D01*
X-35113Y199510D01*
X-35182Y199551D01*
X-35247Y199588D01*
X-35307Y199621D01*
X-35358Y199644D01*
X-35399Y199667D01*
X-35427Y199681D01*
X-35450Y199685D01*
X-35455Y199690D01*
X-35570Y199732D01*
X-35691Y199769D01*
X-35811Y199801D01*
X-35935Y199824D01*
X-36171Y199870D01*
X-36287Y199884D01*
X-36398Y199898D01*
X-36495Y199907D01*
X-36587Y199912D01*
X-36670Y199916D01*
X-36740Y199921D01*
X-36800Y199926D01*
X-36842D01*
X-36869D01*
X-36879D01*
X-36999Y199921D01*
X-37114Y199916D01*
X-37336Y199893D01*
X-37443Y199879D01*
X-37544Y199861D01*
X-37641Y199842D01*
X-37729Y199824D01*
X-37812Y199806D01*
X-37886Y199792D01*
X-37951Y199773D01*
X-38006Y199759D01*
X-38048Y199745D01*
X-38080Y199736D01*
X-38104Y199727D01*
X-38108D01*
X-38219Y199685D01*
X-38321Y199639D01*
X-38418Y199588D01*
X-38506Y199533D01*
X-38594Y199477D01*
X-38672Y199422D01*
X-38742Y199362D01*
X-38806Y199306D01*
X-38862Y199251D01*
X-38913Y199200D01*
X-38954Y199154D01*
X-38991Y199112D01*
X-39019Y199080D01*
X-39042Y199057D01*
X-39051Y199038D01*
X-39056Y199034D01*
X-39121Y198936D01*
X-39172Y198835D01*
X-39222Y198733D01*
X-39264Y198631D01*
X-39296Y198525D01*
X-39324Y198423D01*
X-39347Y198326D01*
X-39366Y198229D01*
X-39384Y198141D01*
X-39393Y198058D01*
X-39403Y197984D01*
X-39407Y197919D01*
X-39412Y197868D01*
Y197799D01*
X-39407Y197679D01*
X-39398Y197568D01*
X-39384Y197462D01*
X-39361Y197360D01*
X-39338Y197268D01*
X-39310Y197180D01*
X-39282Y197101D01*
X-39255Y197027D01*
X-39222Y196963D01*
X-39195Y196902D01*
X-39167Y196852D01*
X-39144Y196810D01*
X-39121Y196778D01*
X-39107Y196754D01*
X-39097Y196741D01*
X-39093Y196736D01*
X-39028Y196657D01*
X-38959Y196583D01*
X-38880Y196519D01*
X-38802Y196454D01*
X-38714Y196394D01*
X-38631Y196343D01*
X-38547Y196292D01*
X-38464Y196251D01*
X-38386Y196214D01*
X-38312Y196177D01*
X-38247Y196149D01*
X-38191Y196126D01*
X-38141Y196107D01*
X-38108Y196093D01*
X-38085Y196089D01*
X-38076Y196084D01*
X-38270Y195252D01*
X-38432Y195303D01*
X-38584Y195368D01*
X-38728Y195432D01*
X-38862Y195506D01*
X-38982Y195580D01*
X-39097Y195654D01*
X-39199Y195733D01*
X-39292Y195807D01*
X-39375Y195881D01*
X-39444Y195945D01*
X-39509Y196006D01*
X-39555Y196061D01*
X-39597Y196103D01*
X-39625Y196140D01*
X-39643Y196158D01*
X-39648Y196167D01*
X-39736Y196292D01*
X-39809Y196422D01*
X-39874Y196560D01*
X-39930Y196694D01*
X-39980Y196828D01*
X-40017Y196963D01*
X-40050Y197092D01*
X-40078Y197217D01*
X-40096Y197337D01*
X-40110Y197443D01*
X-40124Y197536D01*
X-40128Y197619D01*
X-40133Y197688D01*
X-40138Y197716D01*
Y197781D01*
X-40133Y197938D01*
X-40119Y198090D01*
X-40101Y198238D01*
X-40078Y198382D01*
X-40050Y198516D01*
X-40013Y198645D01*
X-39980Y198765D01*
X-39943Y198876D01*
X-39906Y198973D01*
X-39874Y199066D01*
X-39842Y199144D01*
X-39809Y199209D01*
X-39786Y199265D01*
X-39768Y199302D01*
X-39754Y199325D01*
X-39749Y199334D01*
X-39671Y199463D01*
X-39588Y199584D01*
X-39500Y199694D01*
X-39407Y199801D01*
X-39315Y199898D01*
X-39222Y199986D01*
X-39125Y200069D01*
X-39037Y200138D01*
X-38954Y200203D01*
X-38871Y200263D01*
X-38802Y200309D01*
X-38742Y200351D01*
X-38686Y200379D01*
X-38649Y200402D01*
X-38626Y200416D01*
X-38617Y200420D01*
X-38473Y200485D01*
X-38330Y200545D01*
X-38182Y200596D01*
X-38034Y200638D01*
X-37886Y200675D01*
X-37738Y200707D01*
X-37600Y200730D01*
X-37470Y200753D01*
X-37345Y200767D01*
X-37230Y200781D01*
X-37128Y200786D01*
X-37040Y200795D01*
X-36971D01*
X-36943Y200799D01*
X-36920D01*
X-36902D01*
X-36888D01*
X-36879D01*
X-36874D01*
X-36703Y200795D01*
D02*
G37*
G36*
X-37738Y193680D02*
X-37803Y193537D01*
X-37868Y193398D01*
X-37933Y193269D01*
X-37965Y193213D01*
X-37993Y193158D01*
X-38020Y193112D01*
X-38043Y193075D01*
X-38057Y193042D01*
X-38071Y193015D01*
X-38080Y193001D01*
X-38085Y192996D01*
X-38187Y192830D01*
X-38238Y192756D01*
X-38284Y192682D01*
X-38335Y192617D01*
X-38376Y192557D01*
X-38423Y192502D01*
X-38460Y192446D01*
X-38496Y192404D01*
X-38529Y192363D01*
X-38561Y192326D01*
X-38584Y192298D01*
X-38603Y192275D01*
X-38617Y192261D01*
X-38626Y192252D01*
X-38631Y192247D01*
X-33629D01*
Y191461D01*
X-40050D01*
Y191970D01*
X-39971Y192012D01*
X-39893Y192058D01*
X-39740Y192164D01*
X-39597Y192280D01*
X-39527Y192340D01*
X-39463Y192395D01*
X-39407Y192451D01*
X-39352Y192502D01*
X-39306Y192548D01*
X-39264Y192589D01*
X-39232Y192622D01*
X-39209Y192645D01*
X-39195Y192663D01*
X-39190Y192668D01*
X-39033Y192857D01*
X-38890Y193056D01*
X-38760Y193250D01*
X-38705Y193343D01*
X-38649Y193431D01*
X-38603Y193509D01*
X-38561Y193583D01*
X-38524Y193652D01*
X-38496Y193708D01*
X-38473Y193754D01*
X-38455Y193791D01*
X-38446Y193810D01*
X-38441Y193819D01*
X-37683D01*
X-37738Y193680D01*
D02*
G37*
G36*
X-36453Y189441D02*
X-36301Y189437D01*
X-36153Y189423D01*
X-36010Y189409D01*
X-35871Y189390D01*
X-35741Y189372D01*
X-35617Y189353D01*
X-35492Y189330D01*
X-35381Y189303D01*
X-35270Y189279D01*
X-35168Y189252D01*
X-35066Y189224D01*
X-34974Y189196D01*
X-34886Y189164D01*
X-34803Y189136D01*
X-34729Y189108D01*
X-34655Y189076D01*
X-34590Y189048D01*
X-34526Y189021D01*
X-34470Y188993D01*
X-34419Y188970D01*
X-34373Y188942D01*
X-34331Y188919D01*
X-34294Y188900D01*
X-34267Y188882D01*
X-34239Y188863D01*
X-34216Y188850D01*
X-34202Y188836D01*
X-34188Y188826D01*
X-34183Y188822D01*
X-34179D01*
X-34063Y188720D01*
X-33962Y188609D01*
X-33874Y188493D01*
X-33800Y188373D01*
X-33735Y188249D01*
X-33684Y188128D01*
X-33638Y188013D01*
X-33606Y187897D01*
X-33578Y187786D01*
X-33559Y187689D01*
X-33541Y187597D01*
X-33532Y187518D01*
X-33527Y187453D01*
X-33522Y187407D01*
Y187365D01*
X-33527Y187236D01*
X-33541Y187116D01*
X-33559Y187000D01*
X-33582Y186889D01*
X-33610Y186788D01*
X-33643Y186695D01*
X-33675Y186607D01*
X-33712Y186524D01*
X-33744Y186455D01*
X-33777Y186390D01*
X-33809Y186339D01*
X-33837Y186293D01*
X-33865Y186256D01*
X-33883Y186233D01*
X-33892Y186215D01*
X-33897Y186210D01*
X-33971Y186127D01*
X-34049Y186048D01*
X-34133Y185974D01*
X-34220Y185905D01*
X-34313Y185845D01*
X-34401Y185789D01*
X-34489Y185734D01*
X-34572Y185688D01*
X-34650Y185651D01*
X-34724Y185613D01*
X-34794Y185586D01*
X-34849Y185558D01*
X-34900Y185539D01*
X-34932Y185526D01*
X-34955Y185521D01*
X-34965Y185516D01*
X-35099Y185475D01*
X-35242Y185438D01*
X-35390Y185406D01*
X-35543Y185378D01*
X-35843Y185336D01*
X-35991Y185322D01*
X-36134Y185308D01*
X-36268Y185299D01*
X-36388Y185294D01*
X-36500Y185290D01*
X-36597Y185285D01*
X-36638D01*
X-36675Y185281D01*
X-36707D01*
X-36731D01*
X-36754D01*
X-36768D01*
X-36777D01*
X-36781D01*
X-36957D01*
X-37119Y185285D01*
X-37276Y185294D01*
X-37419Y185304D01*
X-37554Y185313D01*
X-37678Y185327D01*
X-37794Y185341D01*
X-37896Y185355D01*
X-37988Y185368D01*
X-38067Y185382D01*
X-38136Y185396D01*
X-38191Y185406D01*
X-38238Y185415D01*
X-38265Y185424D01*
X-38289Y185429D01*
X-38293D01*
X-38395Y185456D01*
X-38496Y185489D01*
X-38589Y185516D01*
X-38677Y185549D01*
X-38760Y185586D01*
X-38839Y185618D01*
X-38913Y185651D01*
X-38977Y185683D01*
X-39037Y185711D01*
X-39088Y185738D01*
X-39135Y185761D01*
X-39172Y185784D01*
X-39199Y185803D01*
X-39222Y185817D01*
X-39236Y185821D01*
X-39241Y185826D01*
X-39379Y185923D01*
X-39500Y186029D01*
X-39606Y186136D01*
X-39689Y186238D01*
X-39726Y186284D01*
X-39754Y186330D01*
X-39782Y186367D01*
X-39805Y186399D01*
X-39819Y186427D01*
X-39832Y186446D01*
X-39842Y186460D01*
Y186464D01*
X-39879Y186538D01*
X-39911Y186612D01*
X-39962Y186769D01*
X-39999Y186922D01*
X-40022Y187060D01*
X-40031Y187125D01*
X-40041Y187181D01*
X-40045Y187236D01*
Y187278D01*
X-40050Y187315D01*
Y187365D01*
X-40045Y187495D01*
X-40036Y187615D01*
X-40017Y187731D01*
X-39990Y187842D01*
X-39962Y187943D01*
X-39930Y188041D01*
X-39897Y188128D01*
X-39865Y188207D01*
X-39828Y188281D01*
X-39796Y188341D01*
X-39763Y188396D01*
X-39736Y188443D01*
X-39712Y188480D01*
X-39694Y188503D01*
X-39680Y188521D01*
X-39675Y188526D01*
X-39601Y188609D01*
X-39523Y188688D01*
X-39440Y188762D01*
X-39352Y188831D01*
X-39264Y188891D01*
X-39172Y188946D01*
X-39084Y189002D01*
X-39000Y189044D01*
X-38922Y189085D01*
X-38848Y189122D01*
X-38779Y189150D01*
X-38723Y189178D01*
X-38672Y189196D01*
X-38640Y189210D01*
X-38617Y189215D01*
X-38607Y189219D01*
X-38473Y189261D01*
X-38330Y189293D01*
X-38182Y189326D01*
X-38030Y189353D01*
X-37724Y189395D01*
X-37577Y189409D01*
X-37433Y189423D01*
X-37299Y189432D01*
X-37174Y189437D01*
X-37064Y189441D01*
X-36971Y189446D01*
X-36929D01*
X-36892Y189450D01*
X-36860D01*
X-36832D01*
X-36809D01*
X-36795D01*
X-36786D01*
X-36781D01*
X-36615D01*
X-36453Y189441D01*
D02*
G37*
%LPC*%
G36*
X13468Y47062D02*
X13445D01*
X13353Y47057D01*
X13265Y47043D01*
X13177Y47025D01*
X13098Y47002D01*
X13020Y46969D01*
X12950Y46937D01*
X12886Y46900D01*
X12826Y46863D01*
X12770Y46826D01*
X12719Y46789D01*
X12678Y46757D01*
X12645Y46724D01*
X12618Y46701D01*
X12599Y46683D01*
X12585Y46669D01*
X12581Y46664D01*
X12516Y46586D01*
X12460Y46502D01*
X12414Y46419D01*
X12373Y46332D01*
X12336Y46239D01*
X12308Y46151D01*
X12285Y46063D01*
X12266Y45980D01*
X12252Y45902D01*
X12239Y45828D01*
X12229Y45763D01*
X12225Y45703D01*
X12220Y45657D01*
Y45620D01*
Y45601D01*
Y45592D01*
X12225Y45467D01*
X12234Y45351D01*
X12252Y45245D01*
X12276Y45143D01*
X12303Y45046D01*
X12331Y44959D01*
X12363Y44880D01*
X12396Y44811D01*
X12428Y44746D01*
X12460Y44690D01*
X12488Y44644D01*
X12516Y44603D01*
X12539Y44575D01*
X12557Y44552D01*
X12567Y44538D01*
X12571Y44533D01*
X12641Y44468D01*
X12710Y44408D01*
X12784Y44358D01*
X12858Y44316D01*
X12937Y44279D01*
X13010Y44247D01*
X13080Y44223D01*
X13149Y44200D01*
X13219Y44187D01*
X13279Y44173D01*
X13329Y44168D01*
X13376Y44159D01*
X13417D01*
X13445Y44154D01*
X13468D01*
X13570Y44159D01*
X13662Y44173D01*
X13755Y44191D01*
X13843Y44214D01*
X13921Y44242D01*
X13995Y44274D01*
X14065Y44307D01*
X14129Y44344D01*
X14185Y44381D01*
X14236Y44413D01*
X14277Y44445D01*
X14314Y44473D01*
X14342Y44496D01*
X14360Y44519D01*
X14374Y44529D01*
X14379Y44533D01*
X14444Y44607D01*
X14499Y44686D01*
X14550Y44769D01*
X14591Y44852D01*
X14624Y44935D01*
X14656Y45019D01*
X14679Y45097D01*
X14698Y45176D01*
X14712Y45245D01*
X14726Y45314D01*
X14735Y45375D01*
X14740Y45425D01*
Y45467D01*
X14744Y45499D01*
Y45522D01*
Y45527D01*
X14740Y45652D01*
X14726Y45772D01*
X14707Y45883D01*
X14684Y45985D01*
X14656Y46087D01*
X14624Y46174D01*
X14587Y46258D01*
X14550Y46336D01*
X14518Y46401D01*
X14481Y46461D01*
X14448Y46512D01*
X14420Y46553D01*
X14397Y46590D01*
X14379Y46613D01*
X14365Y46627D01*
X14360Y46632D01*
X14286Y46706D01*
X14208Y46775D01*
X14134Y46831D01*
X14055Y46882D01*
X13977Y46923D01*
X13898Y46956D01*
X13829Y46983D01*
X13755Y47006D01*
X13690Y47025D01*
X13630Y47039D01*
X13579Y47048D01*
X13533Y47057D01*
X13496D01*
X13468Y47062D01*
D02*
G37*
G36*
X20828Y46983D02*
X18807D01*
X18678Y46979D01*
X18558Y46969D01*
X18447Y46956D01*
X18345Y46937D01*
X18253Y46914D01*
X18165Y46891D01*
X18086Y46863D01*
X18022Y46835D01*
X17962Y46808D01*
X17911Y46780D01*
X17865Y46757D01*
X17828Y46734D01*
X17804Y46715D01*
X17781Y46701D01*
X17772Y46692D01*
X17767Y46687D01*
X17707Y46632D01*
X17657Y46572D01*
X17615Y46512D01*
X17573Y46447D01*
X17541Y46387D01*
X17518Y46322D01*
X17495Y46262D01*
X17476Y46207D01*
X17462Y46151D01*
X17453Y46100D01*
X17444Y46059D01*
X17439Y46017D01*
X17435Y45985D01*
Y45962D01*
Y45948D01*
Y45943D01*
X17444Y45828D01*
X17462Y45721D01*
X17490Y45624D01*
X17518Y45541D01*
X17550Y45472D01*
X17564Y45439D01*
X17578Y45416D01*
X17592Y45398D01*
X17596Y45384D01*
X17606Y45375D01*
Y45370D01*
X17675Y45278D01*
X17753Y45199D01*
X17837Y45134D01*
X17920Y45079D01*
X17994Y45037D01*
X18022Y45023D01*
X18049Y45009D01*
X18073Y45000D01*
X18091Y44991D01*
X18100Y44986D01*
X18105D01*
X18170Y44968D01*
X18234Y44949D01*
X18382Y44921D01*
X18535Y44898D01*
X18678Y44885D01*
X18747Y44880D01*
X18807Y44875D01*
X18868D01*
X18914Y44871D01*
X20828D01*
Y46983D01*
D02*
G37*
G36*
X-13462D02*
X-15482D01*
X-15612Y46979D01*
X-15732Y46969D01*
X-15843Y46956D01*
X-15945Y46937D01*
X-16037Y46914D01*
X-16125Y46891D01*
X-16204Y46863D01*
X-16268Y46835D01*
X-16328Y46808D01*
X-16379Y46780D01*
X-16425Y46757D01*
X-16463Y46734D01*
X-16486Y46715D01*
X-16509Y46701D01*
X-16518Y46692D01*
X-16523Y46687D01*
X-16583Y46632D01*
X-16633Y46572D01*
X-16675Y46512D01*
X-16717Y46447D01*
X-16749Y46387D01*
X-16772Y46322D01*
X-16795Y46262D01*
X-16814Y46207D01*
X-16828Y46151D01*
X-16837Y46100D01*
X-16846Y46059D01*
X-16851Y46017D01*
X-16855Y45985D01*
Y45962D01*
Y45948D01*
Y45943D01*
X-16846Y45828D01*
X-16828Y45721D01*
X-16800Y45624D01*
X-16772Y45541D01*
X-16740Y45472D01*
X-16726Y45439D01*
X-16712Y45416D01*
X-16698Y45398D01*
X-16694Y45384D01*
X-16684Y45375D01*
Y45370D01*
X-16615Y45278D01*
X-16537Y45199D01*
X-16453Y45134D01*
X-16370Y45079D01*
X-16296Y45037D01*
X-16268Y45023D01*
X-16241Y45009D01*
X-16217Y45000D01*
X-16199Y44991D01*
X-16190Y44986D01*
X-16185D01*
X-16120Y44968D01*
X-16056Y44949D01*
X-15908Y44921D01*
X-15755Y44898D01*
X-15612Y44885D01*
X-15543Y44880D01*
X-15482Y44875D01*
X-15422D01*
X-15376Y44871D01*
X-13462D01*
Y46983D01*
D02*
G37*
G36*
X-20789Y47066D02*
X-20831D01*
X-20914Y47062D01*
X-20988Y47053D01*
X-21062Y47039D01*
X-21136Y47020D01*
X-21201Y46997D01*
X-21261Y46974D01*
X-21316Y46946D01*
X-21367Y46919D01*
X-21414Y46891D01*
X-21455Y46863D01*
X-21488Y46840D01*
X-21520Y46817D01*
X-21538Y46798D01*
X-21557Y46785D01*
X-21566Y46775D01*
X-21571Y46771D01*
X-21621Y46715D01*
X-21668Y46655D01*
X-21709Y46595D01*
X-21746Y46535D01*
X-21774Y46470D01*
X-21797Y46410D01*
X-21834Y46299D01*
X-21848Y46244D01*
X-21857Y46197D01*
X-21862Y46156D01*
X-21867Y46119D01*
X-21871Y46087D01*
Y46063D01*
Y46049D01*
Y46045D01*
X-21867Y45971D01*
X-21857Y45897D01*
X-21843Y45828D01*
X-21825Y45763D01*
X-21779Y45643D01*
X-21751Y45592D01*
X-21728Y45541D01*
X-21700Y45499D01*
X-21672Y45458D01*
X-21649Y45425D01*
X-21626Y45398D01*
X-21608Y45375D01*
X-21594Y45361D01*
X-21585Y45351D01*
X-21580Y45347D01*
X-21525Y45296D01*
X-21464Y45254D01*
X-21404Y45217D01*
X-21344Y45185D01*
X-21279Y45157D01*
X-21219Y45134D01*
X-21104Y45102D01*
X-21048Y45088D01*
X-20998Y45079D01*
X-20956Y45074D01*
X-20914Y45069D01*
X-20882Y45065D01*
X-20840D01*
X-20757Y45069D01*
X-20674Y45079D01*
X-20595Y45093D01*
X-20526Y45111D01*
X-20457Y45130D01*
X-20396Y45157D01*
X-20336Y45180D01*
X-20286Y45208D01*
X-20239Y45236D01*
X-20198Y45259D01*
X-20165Y45287D01*
X-20133Y45305D01*
X-20115Y45324D01*
X-20096Y45338D01*
X-20087Y45347D01*
X-20082Y45351D01*
X-20031Y45407D01*
X-19990Y45467D01*
X-19948Y45527D01*
X-19916Y45587D01*
X-19888Y45652D01*
X-19865Y45712D01*
X-19833Y45828D01*
X-19819Y45883D01*
X-19809Y45934D01*
X-19805Y45975D01*
X-19800Y46017D01*
X-19796Y46049D01*
Y46073D01*
Y46087D01*
Y46091D01*
X-19800Y46165D01*
X-19809Y46234D01*
X-19823Y46304D01*
X-19842Y46364D01*
X-19888Y46484D01*
X-19916Y46535D01*
X-19943Y46581D01*
X-19967Y46627D01*
X-19994Y46664D01*
X-20017Y46697D01*
X-20041Y46724D01*
X-20059Y46747D01*
X-20073Y46761D01*
X-20082Y46771D01*
X-20087Y46775D01*
X-20142Y46826D01*
X-20202Y46872D01*
X-20267Y46909D01*
X-20327Y46942D01*
X-20392Y46974D01*
X-20452Y46997D01*
X-20572Y47030D01*
X-20623Y47043D01*
X-20674Y47053D01*
X-20720Y47057D01*
X-20757Y47062D01*
X-20789Y47066D01*
D02*
G37*
G36*
X-20757Y44422D02*
X-20813D01*
X-20919Y44418D01*
X-21016Y44408D01*
X-21113Y44390D01*
X-21201Y44362D01*
X-21284Y44334D01*
X-21363Y44302D01*
X-21432Y44270D01*
X-21497Y44237D01*
X-21557Y44200D01*
X-21608Y44168D01*
X-21649Y44136D01*
X-21686Y44108D01*
X-21719Y44085D01*
X-21737Y44066D01*
X-21751Y44052D01*
X-21756Y44048D01*
X-21820Y43979D01*
X-21880Y43900D01*
X-21931Y43826D01*
X-21973Y43747D01*
X-22010Y43669D01*
X-22042Y43590D01*
X-22065Y43516D01*
X-22088Y43442D01*
X-22102Y43373D01*
X-22116Y43313D01*
X-22125Y43257D01*
X-22130Y43207D01*
Y43169D01*
X-22135Y43137D01*
Y43119D01*
Y43114D01*
X-22130Y43012D01*
X-22121Y42915D01*
X-22102Y42823D01*
X-22079Y42735D01*
X-22051Y42652D01*
X-22019Y42578D01*
X-21987Y42508D01*
X-21954Y42444D01*
X-21917Y42388D01*
X-21885Y42337D01*
X-21853Y42296D01*
X-21825Y42259D01*
X-21802Y42231D01*
X-21783Y42213D01*
X-21774Y42199D01*
X-21769Y42194D01*
X-21700Y42129D01*
X-21626Y42074D01*
X-21548Y42028D01*
X-21469Y41986D01*
X-21390Y41949D01*
X-21316Y41921D01*
X-21238Y41898D01*
X-21168Y41880D01*
X-21099Y41866D01*
X-21039Y41852D01*
X-20984Y41843D01*
X-20933Y41838D01*
X-20896D01*
X-20863Y41834D01*
X-20840D01*
X-20706Y41843D01*
X-20581Y41861D01*
X-20470Y41889D01*
X-20369Y41921D01*
X-20322Y41935D01*
X-20286Y41949D01*
X-20249Y41963D01*
X-20221Y41977D01*
X-20198Y41991D01*
X-20179Y41995D01*
X-20170Y42004D01*
X-20165D01*
X-20054Y42074D01*
X-19957Y42153D01*
X-19879Y42236D01*
X-19814Y42310D01*
X-19759Y42384D01*
X-19740Y42411D01*
X-19722Y42439D01*
X-19712Y42462D01*
X-19703Y42476D01*
X-19694Y42485D01*
Y42490D01*
X-19643Y42610D01*
X-19601Y42726D01*
X-19574Y42832D01*
X-19555Y42934D01*
X-19550Y42975D01*
X-19546Y43017D01*
X-19541Y43049D01*
Y43082D01*
X-19537Y43105D01*
Y43123D01*
Y43133D01*
Y43137D01*
X-19541Y43239D01*
X-19550Y43336D01*
X-19569Y43424D01*
X-19592Y43512D01*
X-19620Y43595D01*
X-19652Y43669D01*
X-19685Y43738D01*
X-19717Y43803D01*
X-19749Y43858D01*
X-19782Y43909D01*
X-19814Y43951D01*
X-19842Y43988D01*
X-19865Y44015D01*
X-19883Y44034D01*
X-19893Y44048D01*
X-19897Y44052D01*
X-19967Y44117D01*
X-20041Y44173D01*
X-20115Y44223D01*
X-20193Y44265D01*
X-20272Y44302D01*
X-20346Y44334D01*
X-20420Y44358D01*
X-20489Y44376D01*
X-20558Y44390D01*
X-20618Y44404D01*
X-20674Y44413D01*
X-20720Y44418D01*
X-20757Y44422D01*
D02*
G37*
G36*
X-54109Y41862D02*
X-56129D01*
X-56259Y41857D01*
X-56379Y41848D01*
X-56490Y41834D01*
X-56592Y41816D01*
X-56684Y41792D01*
X-56772Y41769D01*
X-56851Y41741D01*
X-56915Y41714D01*
X-56975Y41686D01*
X-57026Y41658D01*
X-57073Y41635D01*
X-57109Y41612D01*
X-57133Y41594D01*
X-57156Y41580D01*
X-57165Y41571D01*
X-57169Y41566D01*
X-57230Y41510D01*
X-57281Y41450D01*
X-57322Y41390D01*
X-57364Y41325D01*
X-57396Y41265D01*
X-57419Y41201D01*
X-57442Y41140D01*
X-57461Y41085D01*
X-57475Y41030D01*
X-57484Y40979D01*
X-57493Y40937D01*
X-57498Y40896D01*
X-57502Y40863D01*
Y40840D01*
Y40826D01*
Y40822D01*
X-57493Y40706D01*
X-57475Y40600D01*
X-57447Y40503D01*
X-57419Y40419D01*
X-57387Y40350D01*
X-57373Y40318D01*
X-57359Y40295D01*
X-57345Y40276D01*
X-57341Y40262D01*
X-57331Y40253D01*
Y40248D01*
X-57262Y40156D01*
X-57183Y40077D01*
X-57100Y40013D01*
X-57017Y39957D01*
X-56943Y39915D01*
X-56915Y39902D01*
X-56887Y39888D01*
X-56864Y39878D01*
X-56846Y39869D01*
X-56837Y39865D01*
X-56832D01*
X-56767Y39846D01*
X-56703Y39828D01*
X-56555Y39800D01*
X-56402Y39777D01*
X-56259Y39763D01*
X-56189Y39758D01*
X-56129Y39754D01*
X-56069D01*
X-56023Y39749D01*
X-54109D01*
Y41862D01*
D02*
G37*
G36*
X-81821Y39671D02*
X-81844D01*
X-81941Y39666D01*
X-82038Y39652D01*
X-82126Y39634D01*
X-82209Y39610D01*
X-82288Y39583D01*
X-82362Y39550D01*
X-82427Y39513D01*
X-82491Y39481D01*
X-82542Y39444D01*
X-82593Y39407D01*
X-82635Y39375D01*
X-82667Y39347D01*
X-82695Y39324D01*
X-82718Y39305D01*
X-82727Y39291D01*
X-82732Y39287D01*
X-82796Y39213D01*
X-82847Y39130D01*
X-82898Y39046D01*
X-82940Y38963D01*
X-82972Y38875D01*
X-83000Y38788D01*
X-83023Y38704D01*
X-83041Y38621D01*
X-83060Y38542D01*
X-83069Y38473D01*
X-83078Y38409D01*
X-83083Y38353D01*
X-83088Y38307D01*
Y38270D01*
Y38251D01*
Y38242D01*
X-83083Y38117D01*
X-83074Y37997D01*
X-83055Y37886D01*
X-83032Y37780D01*
X-83005Y37683D01*
X-82972Y37595D01*
X-82940Y37512D01*
X-82907Y37438D01*
X-82875Y37373D01*
X-82843Y37313D01*
X-82810Y37267D01*
X-82783Y37225D01*
X-82760Y37193D01*
X-82741Y37169D01*
X-82732Y37156D01*
X-82727Y37151D01*
X-82658Y37082D01*
X-82589Y37022D01*
X-82514Y36966D01*
X-82445Y36920D01*
X-82371Y36883D01*
X-82302Y36851D01*
X-82233Y36823D01*
X-82168Y36804D01*
X-82103Y36786D01*
X-82048Y36777D01*
X-81997Y36767D01*
X-81955Y36758D01*
X-81923D01*
X-81895Y36753D01*
X-81872D01*
X-81747Y36763D01*
X-81627Y36781D01*
X-81516Y36814D01*
X-81419Y36851D01*
X-81373Y36864D01*
X-81336Y36883D01*
X-81303Y36901D01*
X-81276Y36915D01*
X-81252Y36925D01*
X-81234Y36934D01*
X-81225Y36943D01*
X-81220D01*
X-81114Y37022D01*
X-81017Y37114D01*
X-80934Y37206D01*
X-80869Y37299D01*
X-80813Y37382D01*
X-80795Y37415D01*
X-80776Y37447D01*
X-80763Y37470D01*
X-80753Y37493D01*
X-80744Y37502D01*
Y37507D01*
X-80688Y37650D01*
X-80647Y37789D01*
X-80615Y37918D01*
X-80596Y38039D01*
X-80587Y38089D01*
X-80582Y38140D01*
X-80578Y38182D01*
Y38219D01*
X-80573Y38247D01*
Y38270D01*
Y38284D01*
Y38288D01*
X-80578Y38399D01*
X-80587Y38505D01*
X-80605Y38607D01*
X-80633Y38704D01*
X-80661Y38792D01*
X-80688Y38875D01*
X-80725Y38949D01*
X-80758Y39019D01*
X-80790Y39079D01*
X-80827Y39134D01*
X-80855Y39181D01*
X-80887Y39217D01*
X-80910Y39245D01*
X-80929Y39268D01*
X-80938Y39282D01*
X-80943Y39287D01*
X-81012Y39356D01*
X-81086Y39412D01*
X-81165Y39467D01*
X-81239Y39509D01*
X-81317Y39546D01*
X-81391Y39578D01*
X-81465Y39601D01*
X-81535Y39624D01*
X-81599Y39638D01*
X-81655Y39652D01*
X-81710Y39657D01*
X-81756Y39666D01*
X-81793D01*
X-81821Y39671D01*
D02*
G37*
G36*
X-74429Y41903D02*
X-76449D01*
X-76579Y41899D01*
X-76699Y41889D01*
X-76810Y41876D01*
X-76912Y41857D01*
X-77004Y41834D01*
X-77092Y41811D01*
X-77171Y41783D01*
X-77235Y41755D01*
X-77295Y41728D01*
X-77346Y41700D01*
X-77393Y41677D01*
X-77429Y41654D01*
X-77453Y41635D01*
X-77476Y41621D01*
X-77485Y41612D01*
X-77490Y41607D01*
X-77550Y41552D01*
X-77600Y41492D01*
X-77642Y41432D01*
X-77684Y41367D01*
X-77716Y41307D01*
X-77739Y41242D01*
X-77762Y41182D01*
X-77781Y41127D01*
X-77795Y41071D01*
X-77804Y41020D01*
X-77813Y40979D01*
X-77818Y40937D01*
X-77822Y40905D01*
Y40882D01*
Y40868D01*
Y40863D01*
X-77813Y40748D01*
X-77795Y40641D01*
X-77767Y40544D01*
X-77739Y40461D01*
X-77707Y40392D01*
X-77693Y40359D01*
X-77679Y40336D01*
X-77665Y40318D01*
X-77661Y40304D01*
X-77651Y40295D01*
Y40290D01*
X-77582Y40198D01*
X-77503Y40119D01*
X-77420Y40054D01*
X-77337Y39999D01*
X-77263Y39957D01*
X-77235Y39943D01*
X-77207Y39929D01*
X-77184Y39920D01*
X-77166Y39911D01*
X-77157Y39906D01*
X-77152D01*
X-77087Y39888D01*
X-77023Y39869D01*
X-76875Y39841D01*
X-76722Y39818D01*
X-76579Y39804D01*
X-76509Y39800D01*
X-76449Y39795D01*
X-76389D01*
X-76343Y39791D01*
X-74429D01*
Y41903D01*
D02*
G37*
G36*
X-26144Y292105D02*
X-28164D01*
X-28293Y292100D01*
X-28414Y292091D01*
X-28525Y292077D01*
X-28626Y292059D01*
X-28719Y292036D01*
X-28807Y292012D01*
X-28885Y291985D01*
X-28950Y291957D01*
X-29010Y291929D01*
X-29061Y291901D01*
X-29107Y291878D01*
X-29144Y291855D01*
X-29167Y291837D01*
X-29190Y291823D01*
X-29200Y291814D01*
X-29204Y291809D01*
X-29264Y291754D01*
X-29315Y291693D01*
X-29357Y291633D01*
X-29398Y291569D01*
X-29431Y291509D01*
X-29454Y291444D01*
X-29477Y291384D01*
X-29495Y291328D01*
X-29509Y291273D01*
X-29518Y291222D01*
X-29528Y291180D01*
X-29532Y291139D01*
X-29537Y291106D01*
Y291083D01*
Y291069D01*
Y291065D01*
X-29528Y290949D01*
X-29509Y290843D01*
X-29481Y290746D01*
X-29454Y290662D01*
X-29421Y290593D01*
X-29407Y290561D01*
X-29394Y290538D01*
X-29380Y290519D01*
X-29375Y290505D01*
X-29366Y290496D01*
Y290492D01*
X-29297Y290399D01*
X-29218Y290320D01*
X-29135Y290256D01*
X-29052Y290200D01*
X-28978Y290159D01*
X-28950Y290145D01*
X-28922Y290131D01*
X-28899Y290122D01*
X-28881Y290112D01*
X-28871Y290108D01*
X-28867D01*
X-28802Y290089D01*
X-28737Y290071D01*
X-28589Y290043D01*
X-28437Y290020D01*
X-28293Y290006D01*
X-28224Y290002D01*
X-28164Y289997D01*
X-28104D01*
X-28058Y289992D01*
X-26144D01*
Y292105D01*
D02*
G37*
G36*
X79229Y292052D02*
X77209D01*
X77080Y292047D01*
X76959Y292038D01*
X76849Y292024D01*
X76747Y292006D01*
X76654Y291982D01*
X76567Y291959D01*
X76488Y291931D01*
X76423Y291904D01*
X76363Y291876D01*
X76312Y291848D01*
X76266Y291825D01*
X76229Y291802D01*
X76206Y291784D01*
X76183Y291770D01*
X76174Y291761D01*
X76169Y291756D01*
X76109Y291700D01*
X76058Y291640D01*
X76016Y291580D01*
X75975Y291515D01*
X75942Y291455D01*
X75919Y291391D01*
X75896Y291331D01*
X75878Y291275D01*
X75864Y291220D01*
X75855Y291169D01*
X75845Y291127D01*
X75841Y291085D01*
X75836Y291053D01*
Y291030D01*
Y291016D01*
Y291012D01*
X75845Y290896D01*
X75864Y290790D01*
X75891Y290693D01*
X75919Y290609D01*
X75952Y290540D01*
X75965Y290508D01*
X75979Y290485D01*
X75993Y290466D01*
X75998Y290452D01*
X76007Y290443D01*
Y290438D01*
X76076Y290346D01*
X76155Y290267D01*
X76238Y290203D01*
X76322Y290147D01*
X76395Y290105D01*
X76423Y290092D01*
X76451Y290078D01*
X76474Y290068D01*
X76493Y290059D01*
X76502Y290055D01*
X76506D01*
X76571Y290036D01*
X76636Y290018D01*
X76784Y289990D01*
X76936Y289967D01*
X77080Y289953D01*
X77149Y289948D01*
X77209Y289944D01*
X77269D01*
X77315Y289939D01*
X79229D01*
Y292052D01*
D02*
G37*
G36*
X71435Y291497D02*
Y288612D01*
X73442D01*
X71435Y291497D01*
D02*
G37*
G36*
X10044Y173930D02*
X8023D01*
X7894Y173925D01*
X7774Y173916D01*
X7663Y173902D01*
X7561Y173884D01*
X7469Y173861D01*
X7381Y173838D01*
X7302Y173810D01*
X7238Y173782D01*
X7178Y173755D01*
X7127Y173727D01*
X7080Y173704D01*
X7043Y173680D01*
X7020Y173662D01*
X6997Y173648D01*
X6988Y173639D01*
X6983Y173634D01*
X6923Y173579D01*
X6872Y173519D01*
X6831Y173459D01*
X6789Y173394D01*
X6757Y173334D01*
X6734Y173269D01*
X6711Y173209D01*
X6692Y173153D01*
X6678Y173098D01*
X6669Y173047D01*
X6660Y173006D01*
X6655Y172964D01*
X6651Y172932D01*
Y172908D01*
Y172895D01*
Y172890D01*
X6660Y172774D01*
X6678Y172668D01*
X6706Y172571D01*
X6734Y172488D01*
X6766Y172418D01*
X6780Y172386D01*
X6794Y172363D01*
X6808Y172344D01*
X6812Y172331D01*
X6822Y172321D01*
Y172317D01*
X6891Y172224D01*
X6970Y172146D01*
X7053Y172081D01*
X7136Y172026D01*
X7210Y171984D01*
X7238Y171970D01*
X7265Y171956D01*
X7288Y171947D01*
X7307Y171938D01*
X7316Y171933D01*
X7321D01*
X7386Y171915D01*
X7450Y171896D01*
X7598Y171868D01*
X7751Y171845D01*
X7894Y171831D01*
X7963Y171827D01*
X8023Y171822D01*
X8084D01*
X8130Y171817D01*
X10044D01*
Y173930D01*
D02*
G37*
G36*
X-97562Y286914D02*
X-99300D01*
X-99393Y286909D01*
X-99480D01*
X-99559Y286905D01*
X-99633Y286900D01*
X-99698Y286895D01*
X-99753Y286891D01*
X-99804Y286886D01*
X-99850Y286877D01*
X-99887Y286872D01*
X-99920Y286868D01*
X-99943Y286863D01*
X-99961Y286858D01*
X-99975D01*
X-99980Y286854D01*
X-99984D01*
X-100105Y286812D01*
X-100211Y286757D01*
X-100299Y286692D01*
X-100377Y286632D01*
X-100437Y286572D01*
X-100484Y286521D01*
X-100498Y286502D01*
X-100511Y286489D01*
X-100521Y286479D01*
Y286475D01*
X-100558Y286419D01*
X-100590Y286364D01*
X-100636Y286248D01*
X-100673Y286133D01*
X-100701Y286026D01*
X-100705Y285980D01*
X-100715Y285934D01*
X-100719Y285892D01*
Y285860D01*
X-100724Y285828D01*
Y285809D01*
Y285795D01*
Y285791D01*
X-100719Y285689D01*
X-100710Y285596D01*
X-100692Y285504D01*
X-100668Y285421D01*
X-100645Y285347D01*
X-100613Y285273D01*
X-100585Y285213D01*
X-100553Y285153D01*
X-100521Y285102D01*
X-100488Y285056D01*
X-100456Y285019D01*
X-100433Y284986D01*
X-100410Y284963D01*
X-100391Y284945D01*
X-100382Y284935D01*
X-100377Y284931D01*
X-100308Y284875D01*
X-100229Y284829D01*
X-100141Y284787D01*
X-100049Y284755D01*
X-99952Y284723D01*
X-99855Y284700D01*
X-99665Y284663D01*
X-99573Y284653D01*
X-99490Y284644D01*
X-99411Y284635D01*
X-99346Y284630D01*
X-99291Y284626D01*
X-97562D01*
Y286914D01*
D02*
G37*
G36*
X106323D02*
X104585D01*
X104493Y286909D01*
X104405D01*
X104326Y286905D01*
X104252Y286900D01*
X104187Y286895D01*
X104132Y286891D01*
X104081Y286886D01*
X104035Y286877D01*
X103998Y286872D01*
X103966Y286868D01*
X103942Y286863D01*
X103924Y286858D01*
X103910D01*
X103905Y286854D01*
X103901D01*
X103781Y286812D01*
X103674Y286757D01*
X103587Y286692D01*
X103508Y286632D01*
X103448Y286572D01*
X103402Y286521D01*
X103388Y286502D01*
X103374Y286489D01*
X103365Y286479D01*
Y286475D01*
X103328Y286419D01*
X103295Y286364D01*
X103249Y286248D01*
X103212Y286133D01*
X103184Y286026D01*
X103180Y285980D01*
X103170Y285934D01*
X103166Y285892D01*
Y285860D01*
X103161Y285828D01*
Y285809D01*
Y285795D01*
Y285791D01*
X103166Y285689D01*
X103175Y285596D01*
X103194Y285504D01*
X103217Y285421D01*
X103240Y285347D01*
X103272Y285273D01*
X103300Y285213D01*
X103332Y285153D01*
X103365Y285102D01*
X103397Y285056D01*
X103429Y285019D01*
X103453Y284986D01*
X103476Y284963D01*
X103494Y284945D01*
X103503Y284935D01*
X103508Y284931D01*
X103577Y284875D01*
X103656Y284829D01*
X103744Y284787D01*
X103836Y284755D01*
X103933Y284723D01*
X104030Y284700D01*
X104220Y284663D01*
X104312Y284653D01*
X104396Y284644D01*
X104474Y284635D01*
X104539Y284630D01*
X104594Y284626D01*
X106323D01*
Y286914D01*
D02*
G37*
G36*
X62471Y142905D02*
Y140020D01*
X64477D01*
X62471Y142905D01*
D02*
G37*
G36*
X-36675Y188641D02*
X-36712D01*
X-36744D01*
X-36763D01*
X-36777D01*
X-36781D01*
X-36925D01*
X-37064Y188637D01*
X-37197Y188632D01*
X-37327Y188623D01*
X-37447Y188614D01*
X-37563Y188604D01*
X-37674Y188591D01*
X-37780Y188577D01*
X-37882Y188563D01*
X-37979Y188549D01*
X-38071Y188531D01*
X-38154Y188512D01*
X-38238Y188498D01*
X-38312Y188480D01*
X-38386Y188461D01*
X-38450Y188438D01*
X-38570Y188401D01*
X-38672Y188364D01*
X-38755Y188332D01*
X-38825Y188304D01*
X-38876Y188276D01*
X-38913Y188258D01*
X-38936Y188244D01*
X-38940Y188239D01*
X-39019Y188174D01*
X-39093Y188110D01*
X-39153Y188041D01*
X-39204Y187966D01*
X-39250Y187897D01*
X-39287Y187823D01*
X-39315Y187754D01*
X-39343Y187684D01*
X-39361Y187620D01*
X-39375Y187564D01*
X-39384Y187509D01*
X-39389Y187463D01*
X-39393Y187426D01*
X-39398Y187398D01*
Y187375D01*
X-39393Y187273D01*
X-39375Y187176D01*
X-39352Y187088D01*
X-39315Y187000D01*
X-39278Y186917D01*
X-39232Y186843D01*
X-39185Y186774D01*
X-39139Y186709D01*
X-39088Y186654D01*
X-39042Y186603D01*
X-38996Y186561D01*
X-38959Y186524D01*
X-38922Y186497D01*
X-38899Y186478D01*
X-38880Y186464D01*
X-38876Y186460D01*
X-38825Y186427D01*
X-38765Y186395D01*
X-38705Y186367D01*
X-38635Y186339D01*
X-38492Y186288D01*
X-38330Y186247D01*
X-38159Y186210D01*
X-37983Y186178D01*
X-37808Y186154D01*
X-37637Y186136D01*
X-37466Y186122D01*
X-37308Y186108D01*
X-37165Y186099D01*
X-37096D01*
X-37036Y186094D01*
X-36980D01*
X-36929Y186090D01*
X-36888D01*
X-36851D01*
X-36823D01*
X-36800D01*
X-36786D01*
X-36781D01*
X-36638D01*
X-36500Y186094D01*
X-36365Y186099D01*
X-36241Y186103D01*
X-36120Y186113D01*
X-36005Y186122D01*
X-35894Y186136D01*
X-35792Y186145D01*
X-35691Y186159D01*
X-35598Y186178D01*
X-35510Y186191D01*
X-35427Y186205D01*
X-35348Y186224D01*
X-35279Y186242D01*
X-35210Y186256D01*
X-35145Y186275D01*
X-35029Y186307D01*
X-34937Y186344D01*
X-34858Y186372D01*
X-34794Y186399D01*
X-34748Y186427D01*
X-34715Y186446D01*
X-34692Y186455D01*
X-34687Y186460D01*
X-34595Y186529D01*
X-34516Y186603D01*
X-34447Y186681D01*
X-34387Y186755D01*
X-34336Y186834D01*
X-34294Y186908D01*
X-34262Y186982D01*
X-34234Y187051D01*
X-34211Y187116D01*
X-34197Y187176D01*
X-34183Y187232D01*
X-34179Y187278D01*
X-34174Y187315D01*
X-34170Y187342D01*
Y187365D01*
X-34174Y187463D01*
X-34193Y187560D01*
X-34216Y187652D01*
X-34253Y187735D01*
X-34290Y187819D01*
X-34331Y187892D01*
X-34382Y187962D01*
X-34429Y188022D01*
X-34475Y188082D01*
X-34526Y188128D01*
X-34567Y188174D01*
X-34609Y188211D01*
X-34641Y188239D01*
X-34664Y188258D01*
X-34683Y188272D01*
X-34687Y188276D01*
X-34738Y188309D01*
X-34798Y188341D01*
X-34858Y188369D01*
X-34928Y188396D01*
X-35071Y188447D01*
X-35233Y188489D01*
X-35404Y188521D01*
X-35580Y188554D01*
X-35755Y188577D01*
X-35931Y188595D01*
X-36097Y188609D01*
X-36254Y188623D01*
X-36402Y188632D01*
X-36467D01*
X-36527Y188637D01*
X-36583D01*
X-36634D01*
X-36675Y188641D01*
D02*
G37*
%LPD*%
D10*
X-42033Y161483D02*
G03*
X-42033Y161483I-500J0D01*
G01*
X-107950Y279399D02*
X-95250D01*
X-114300Y25400D02*
Y279400D01*
Y25400D02*
X-88900D01*
Y279400D01*
X-114300Y279399D02*
X-107950D01*
X-95250D02*
X-88900D01*
X107950D02*
X114300D01*
X88900D02*
X95250D01*
X114300Y25400D02*
Y279400D01*
X88900Y25400D02*
X114300D01*
X88900D02*
Y279400D01*
X95250Y279399D02*
X107950D01*
X53110Y286560D02*
X56110D01*
X53110Y292560D02*
X56110D01*
X54610Y273110D02*
X54611Y272733D01*
X54609Y280987D02*
X54610Y280610D01*
X-50800Y273110D02*
X-50799Y272733D01*
X-50801Y280987D02*
X-50800Y280610D01*
X-52300Y286560D02*
X-49300D01*
X-52300Y292560D02*
X-49300D01*
X-79970Y169900D02*
Y170300D01*
X-74970Y169900D02*
Y170300D01*
X-34330Y171250D02*
Y171650D01*
X-39330Y171250D02*
Y171650D01*
X-16279Y90689D02*
X17528D01*
X-16279Y155691D02*
X17528D01*
X61830Y121940D02*
Y124440D01*
X75330Y121940D02*
Y124440D01*
X19510Y25170D02*
Y28170D01*
X13510Y25170D02*
Y28170D01*
X-14780Y25170D02*
Y28170D01*
X-20780Y25170D02*
Y28170D01*
X-75740Y18820D02*
Y21820D01*
X-81740Y18820D02*
Y21820D01*
X-55420Y18820D02*
Y21820D01*
X-61420Y18820D02*
Y21820D01*
X-72790Y122300D02*
Y124800D01*
X-59290Y122300D02*
Y124800D01*
D13*
X-44770Y176100D02*
Y181100D01*
X-70770D02*
X-44770D01*
X-70770Y160100D02*
Y181100D01*
Y160100D02*
X-44770D01*
Y176100D01*
X-6810Y171030D02*
Y172030D01*
X-810Y171030D02*
Y172030D01*
M02*
