G04*
G04 #@! TF.GenerationSoftware,Altium Limited,Altium Designer,23.4.1 (23)*
G04*
G04 Layer_Physical_Order=2*
G04 Layer_Color=36540*
%FSLAX44Y44*%
%MOMM*%
G71*
G04*
G04 #@! TF.SameCoordinates,DEFA907D-C73D-477E-9BAD-7C3FCEA48035*
G04*
G04*
G04 #@! TF.FilePolarity,Positive*
G04*
G01*
G75*
%ADD53C,1.5000*%
%ADD58C,0.5000*%
G36*
X114300Y0D02*
X-114300D01*
Y304800D01*
X114300D01*
Y0D01*
D02*
G37*
%LPC*%
G36*
X64246Y300930D02*
X62754D01*
X61376Y300359D01*
X60321Y299304D01*
X59750Y297926D01*
Y296434D01*
X60321Y295056D01*
X61376Y294001D01*
X62754Y293430D01*
X64246D01*
X65624Y294001D01*
X66679Y295056D01*
X67250Y296434D01*
Y297926D01*
X66679Y299304D01*
X65624Y300359D01*
X64246Y300930D01*
D02*
G37*
G36*
X-41164D02*
X-42656D01*
X-44034Y300359D01*
X-45089Y299304D01*
X-45660Y297926D01*
Y296434D01*
X-45089Y295056D01*
X-44034Y294001D01*
X-42656Y293430D01*
X-41164D01*
X-39786Y294001D01*
X-38731Y295056D01*
X-38160Y296434D01*
Y297926D01*
X-38731Y299304D01*
X-39786Y300359D01*
X-41164Y300930D01*
D02*
G37*
G36*
X38846Y293310D02*
X37354D01*
X35976Y292739D01*
X34921Y291684D01*
X34350Y290306D01*
Y288814D01*
X34921Y287436D01*
X35976Y286381D01*
X37354Y285810D01*
X38846D01*
X40224Y286381D01*
X41279Y287436D01*
X41850Y288814D01*
Y290306D01*
X41279Y291684D01*
X40224Y292739D01*
X38846Y293310D01*
D02*
G37*
G36*
X-66564Y292040D02*
X-68056D01*
X-69434Y291469D01*
X-70489Y290414D01*
X-71060Y289036D01*
Y287544D01*
X-70489Y286166D01*
X-69434Y285111D01*
X-68056Y284540D01*
X-66564D01*
X-65186Y285111D01*
X-64131Y286166D01*
X-63560Y287544D01*
Y289036D01*
X-64131Y290414D01*
X-65186Y291469D01*
X-66564Y292040D01*
D02*
G37*
G36*
X-100448Y275450D02*
X-102752D01*
X-104978Y274854D01*
X-106973Y273702D01*
X-108602Y272073D01*
X-109754Y270077D01*
X-110350Y267852D01*
Y265548D01*
X-109754Y263323D01*
X-108602Y261327D01*
X-106973Y259698D01*
X-104978Y258546D01*
X-102752Y257950D01*
X-100448D01*
X-98223Y258546D01*
X-96228Y259698D01*
X-94598Y261327D01*
X-93447Y263323D01*
X-92850Y265548D01*
Y267852D01*
X-93447Y270077D01*
X-94598Y272073D01*
X-96228Y273702D01*
X-98223Y274854D01*
X-100448Y275450D01*
D02*
G37*
G36*
X-48784Y253940D02*
X-50276D01*
X-51654Y253369D01*
X-52709Y252314D01*
X-53280Y250936D01*
Y249444D01*
X-52709Y248066D01*
X-51654Y247011D01*
X-50276Y246440D01*
X-48784D01*
X-47406Y247011D01*
X-46351Y248066D01*
X-45780Y249444D01*
Y250936D01*
X-46351Y252314D01*
X-47406Y253369D01*
X-48784Y253940D01*
D02*
G37*
G36*
X746Y252670D02*
X-746D01*
X-2124Y252099D01*
X-3179Y251044D01*
X-3750Y249666D01*
Y248174D01*
X-3179Y246796D01*
X-2124Y245741D01*
X-746Y245170D01*
X746D01*
X2124Y245741D01*
X3179Y246796D01*
X3750Y248174D01*
Y249666D01*
X3179Y251044D01*
X2124Y252099D01*
X746Y252670D01*
D02*
G37*
G36*
X32618Y251426D02*
X31126D01*
X29748Y250855D01*
X28693Y249800D01*
X28122Y248422D01*
Y246930D01*
X28693Y245552D01*
X29748Y244497D01*
X31126Y243926D01*
X32618D01*
X33996Y244497D01*
X35051Y245552D01*
X35622Y246930D01*
Y248422D01*
X35051Y249800D01*
X33996Y250855D01*
X32618Y251426D01*
D02*
G37*
G36*
X19796Y246320D02*
X18304D01*
X16926Y245749D01*
X15871Y244694D01*
X15300Y243316D01*
Y241824D01*
X15871Y240446D01*
X16926Y239391D01*
X18304Y238820D01*
X19796D01*
X21174Y239391D01*
X22229Y240446D01*
X22800Y241824D01*
Y243316D01*
X22229Y244694D01*
X21174Y245749D01*
X19796Y246320D01*
D02*
G37*
G36*
X102752Y250050D02*
X100448D01*
X98222Y249454D01*
X96227Y248302D01*
X94598Y246673D01*
X93446Y244677D01*
X92850Y242452D01*
Y240148D01*
X93446Y237923D01*
X94598Y235927D01*
X96227Y234298D01*
X98222Y233146D01*
X100448Y232550D01*
X102752D01*
X104977Y233146D01*
X106973Y234298D01*
X108602Y235927D01*
X109754Y237923D01*
X110350Y240148D01*
Y242452D01*
X109754Y244677D01*
X108602Y246673D01*
X106973Y248302D01*
X104977Y249454D01*
X102752Y250050D01*
D02*
G37*
G36*
X-100448D02*
X-102752D01*
X-104978Y249454D01*
X-106973Y248302D01*
X-108602Y246673D01*
X-109754Y244677D01*
X-110350Y242452D01*
Y240148D01*
X-109754Y237923D01*
X-108602Y235927D01*
X-106973Y234298D01*
X-104978Y233146D01*
X-102752Y232550D01*
X-100448D01*
X-98223Y233146D01*
X-96228Y234298D01*
X-94598Y235927D01*
X-93447Y237923D01*
X-92850Y240148D01*
Y242452D01*
X-93447Y244677D01*
X-94598Y246673D01*
X-96228Y248302D01*
X-98223Y249454D01*
X-100448Y250050D01*
D02*
G37*
G36*
X-48864Y227350D02*
X-50356D01*
X-51734Y226779D01*
X-52789Y225724D01*
X-53360Y224346D01*
Y222854D01*
X-52789Y221476D01*
X-51734Y220421D01*
X-50356Y219850D01*
X-48864D01*
X-47486Y220421D01*
X-46431Y221476D01*
X-45860Y222854D01*
Y224346D01*
X-46431Y225724D01*
X-47486Y226779D01*
X-48864Y227350D01*
D02*
G37*
G36*
X-23384Y227270D02*
X-24876D01*
X-26254Y226699D01*
X-27309Y225644D01*
X-27880Y224266D01*
Y222774D01*
X-27309Y221396D01*
X-26254Y220341D01*
X-24876Y219770D01*
X-23384D01*
X-22006Y220341D01*
X-20951Y221396D01*
X-20380Y222774D01*
Y224266D01*
X-20951Y225644D01*
X-22006Y226699D01*
X-23384Y227270D01*
D02*
G37*
G36*
X-36084D02*
X-37576D01*
X-38954Y226699D01*
X-40009Y225644D01*
X-40580Y224266D01*
Y222774D01*
X-40009Y221396D01*
X-38954Y220341D01*
X-37576Y219770D01*
X-36084D01*
X-34706Y220341D01*
X-33651Y221396D01*
X-33080Y222774D01*
Y224266D01*
X-33651Y225644D01*
X-34706Y226699D01*
X-36084Y227270D01*
D02*
G37*
G36*
X32496Y225680D02*
X31004D01*
X29626Y225109D01*
X28571Y224054D01*
X28000Y222676D01*
Y221184D01*
X28571Y219806D01*
X29626Y218751D01*
X31004Y218180D01*
X32496D01*
X33874Y218751D01*
X34929Y219806D01*
X35500Y221184D01*
Y222676D01*
X34929Y224054D01*
X33874Y225109D01*
X32496Y225680D01*
D02*
G37*
G36*
X102752Y224650D02*
X100448D01*
X98222Y224054D01*
X96227Y222902D01*
X94598Y221273D01*
X93446Y219277D01*
X92850Y217052D01*
Y214748D01*
X93446Y212523D01*
X94598Y210527D01*
X96227Y208898D01*
X98222Y207746D01*
X100448Y207150D01*
X102752D01*
X104977Y207746D01*
X106973Y208898D01*
X108602Y210527D01*
X109754Y212523D01*
X110350Y214748D01*
Y217052D01*
X109754Y219277D01*
X108602Y221273D01*
X106973Y222902D01*
X104977Y224054D01*
X102752Y224650D01*
D02*
G37*
G36*
X-100448D02*
X-102752D01*
X-104978Y224054D01*
X-106973Y222902D01*
X-108602Y221273D01*
X-109754Y219277D01*
X-110350Y217052D01*
Y214748D01*
X-109754Y212523D01*
X-108602Y210527D01*
X-106973Y208898D01*
X-104978Y207746D01*
X-102752Y207150D01*
X-100448D01*
X-98223Y207746D01*
X-96228Y208898D01*
X-94598Y210527D01*
X-93447Y212523D01*
X-92850Y214748D01*
Y217052D01*
X-93447Y219277D01*
X-94598Y221273D01*
X-96228Y222902D01*
X-98223Y224054D01*
X-100448Y224650D01*
D02*
G37*
G36*
X46282Y195336D02*
X44790D01*
X43412Y194765D01*
X42357Y193710D01*
X41786Y192332D01*
Y190840D01*
X42357Y189462D01*
X43412Y188407D01*
X44790Y187836D01*
X46282D01*
X47660Y188407D01*
X48715Y189462D01*
X49286Y190840D01*
Y192332D01*
X48715Y193710D01*
X47660Y194765D01*
X46282Y195336D01*
D02*
G37*
G36*
X-29734Y191663D02*
X-31226D01*
X-32604Y191092D01*
X-33659Y190038D01*
X-34230Y188659D01*
Y187167D01*
X-35237Y186279D01*
X-36084Y186630D01*
X-37576D01*
X-38954Y186059D01*
X-40009Y185004D01*
X-40580Y183626D01*
Y182134D01*
X-40009Y180756D01*
X-38954Y179701D01*
X-37576Y179130D01*
X-36084D01*
X-34706Y179701D01*
X-33651Y180756D01*
X-33080Y182134D01*
Y183626D01*
X-32073Y184515D01*
X-31226Y184163D01*
X-29734D01*
X-28356Y184734D01*
X-27301Y185789D01*
X-26730Y187167D01*
Y188659D01*
X-27301Y190038D01*
X-28356Y191092D01*
X-29734Y191663D01*
D02*
G37*
G36*
X30339Y189701D02*
X28847D01*
X27469Y189130D01*
X26414Y188076D01*
X25843Y186697D01*
Y185205D01*
X26414Y183827D01*
X27469Y182772D01*
X28847Y182201D01*
X30339D01*
X31718Y182772D01*
X32772Y183827D01*
X33343Y185205D01*
Y186697D01*
X32772Y188076D01*
X31718Y189130D01*
X30339Y189701D01*
D02*
G37*
G36*
X102752Y199250D02*
X100448D01*
X98222Y198654D01*
X96227Y197502D01*
X94598Y195873D01*
X93446Y193877D01*
X92850Y191652D01*
Y189348D01*
X93446Y187123D01*
X94598Y185127D01*
X96227Y183498D01*
X98222Y182346D01*
X100448Y181750D01*
X102752D01*
X104977Y182346D01*
X106973Y183498D01*
X108602Y185127D01*
X109754Y187123D01*
X110350Y189348D01*
Y191652D01*
X109754Y193877D01*
X108602Y195873D01*
X106973Y197502D01*
X104977Y198654D01*
X102752Y199250D01*
D02*
G37*
G36*
X-100448D02*
X-102752D01*
X-104978Y198654D01*
X-106973Y197502D01*
X-108602Y195873D01*
X-109754Y193877D01*
X-110350Y191652D01*
Y189348D01*
X-109754Y187123D01*
X-108602Y185127D01*
X-106973Y183498D01*
X-104978Y182346D01*
X-102752Y181750D01*
X-100448D01*
X-98223Y182346D01*
X-96228Y183498D01*
X-94598Y185127D01*
X-93447Y187123D01*
X-92850Y189348D01*
Y191652D01*
X-93447Y193877D01*
X-94598Y195873D01*
X-96228Y197502D01*
X-98223Y198654D01*
X-100448Y199250D01*
D02*
G37*
G36*
X-44974Y187900D02*
X-46466D01*
X-47844Y187329D01*
X-48899Y186274D01*
X-49470Y184896D01*
Y183404D01*
X-48899Y182026D01*
X-47844Y180971D01*
X-46466Y180400D01*
X-44974D01*
X-43596Y180971D01*
X-42541Y182026D01*
X-41970Y183404D01*
Y184896D01*
X-42541Y186274D01*
X-43596Y187329D01*
X-44974Y187900D01*
D02*
G37*
G36*
X-19154Y178389D02*
X-20646D01*
X-22024Y177818D01*
X-23079Y176763D01*
X-23650Y175385D01*
Y173893D01*
X-23079Y172514D01*
X-22024Y171460D01*
X-20646Y170889D01*
X-19154D01*
X-17776Y171460D01*
X-16721Y172514D01*
X-16150Y173893D01*
Y175385D01*
X-16721Y176763D01*
X-17776Y177818D01*
X-19154Y178389D01*
D02*
G37*
G36*
X102752Y173849D02*
X100448D01*
X98223Y173253D01*
X96228Y172101D01*
X94598Y170472D01*
X93447Y168477D01*
X92850Y166251D01*
Y163947D01*
X93447Y161722D01*
X94598Y159727D01*
X96228Y158097D01*
X98223Y156945D01*
X100448Y156349D01*
X102752D01*
X104978Y156945D01*
X106973Y158097D01*
X108602Y159727D01*
X109754Y161722D01*
X110350Y163947D01*
Y166251D01*
X109754Y168477D01*
X108602Y170472D01*
X106973Y172101D01*
X104978Y173253D01*
X102752Y173849D01*
D02*
G37*
G36*
X-100448D02*
X-102752D01*
X-104977Y173253D01*
X-106973Y172101D01*
X-108602Y170472D01*
X-109754Y168477D01*
X-110350Y166251D01*
Y163947D01*
X-109754Y161722D01*
X-108602Y159727D01*
X-106973Y158097D01*
X-104977Y156945D01*
X-102752Y156349D01*
X-100448D01*
X-98222Y156945D01*
X-96227Y158097D01*
X-94598Y159727D01*
X-93446Y161722D01*
X-92850Y163947D01*
Y166251D01*
X-93446Y168477D01*
X-94598Y170472D01*
X-96227Y172101D01*
X-98222Y173253D01*
X-100448Y173849D01*
D02*
G37*
G36*
X-10684Y163770D02*
X-12176D01*
X-13554Y163199D01*
X-14609Y162144D01*
X-15180Y160766D01*
Y159274D01*
X-14609Y157896D01*
X-13554Y156841D01*
X-12176Y156270D01*
X-10684D01*
X-9306Y156841D01*
X-8251Y157896D01*
X-7680Y159274D01*
Y160766D01*
X-8251Y162144D01*
X-9306Y163199D01*
X-10684Y163770D01*
D02*
G37*
G36*
X-22114D02*
X-23606D01*
X-24984Y163199D01*
X-26039Y162144D01*
X-26610Y160766D01*
Y159274D01*
X-26039Y157896D01*
X-24984Y156841D01*
X-23606Y156270D01*
X-22114D01*
X-20736Y156841D01*
X-19681Y157896D01*
X-19110Y159274D01*
Y160766D01*
X-19681Y162144D01*
X-20736Y163199D01*
X-22114Y163770D01*
D02*
G37*
G36*
X-51324Y159960D02*
X-52816D01*
X-54194Y159389D01*
X-55249Y158334D01*
X-55820Y156956D01*
Y155464D01*
X-55249Y154086D01*
X-54194Y153031D01*
X-52816Y152460D01*
X-51324D01*
X-49946Y153031D01*
X-48891Y154086D01*
X-48320Y155464D01*
Y156956D01*
X-48891Y158334D01*
X-49946Y159389D01*
X-51324Y159960D01*
D02*
G37*
G36*
X-64024Y157420D02*
X-65516D01*
X-66894Y156849D01*
X-67949Y155794D01*
X-68520Y154416D01*
Y152924D01*
X-67949Y151546D01*
X-66894Y150491D01*
X-65516Y149920D01*
X-64024D01*
X-62646Y150491D01*
X-61591Y151546D01*
X-61020Y152924D01*
Y154416D01*
X-61591Y155794D01*
X-62646Y156849D01*
X-64024Y157420D01*
D02*
G37*
G36*
X-48784Y142180D02*
X-50276D01*
X-51654Y141609D01*
X-52709Y140554D01*
X-53280Y139176D01*
Y137684D01*
X-52709Y136306D01*
X-51654Y135251D01*
X-50276Y134680D01*
X-48784D01*
X-47406Y135251D01*
X-46351Y136306D01*
X-45780Y137684D01*
Y139176D01*
X-46351Y140554D01*
X-47406Y141609D01*
X-48784Y142180D01*
D02*
G37*
G36*
X102752Y148449D02*
X100448D01*
X98223Y147853D01*
X96228Y146701D01*
X94598Y145072D01*
X93447Y143077D01*
X92850Y140851D01*
Y138547D01*
X93447Y136322D01*
X94598Y134327D01*
X96228Y132697D01*
X98223Y131545D01*
X100448Y130949D01*
X102752D01*
X104978Y131545D01*
X106973Y132697D01*
X108602Y134327D01*
X109754Y136322D01*
X110350Y138547D01*
Y140851D01*
X109754Y143077D01*
X108602Y145072D01*
X106973Y146701D01*
X104978Y147853D01*
X102752Y148449D01*
D02*
G37*
G36*
X-100448D02*
X-102752D01*
X-104977Y147853D01*
X-106973Y146701D01*
X-108602Y145072D01*
X-109754Y143077D01*
X-110350Y140851D01*
Y138547D01*
X-109754Y136322D01*
X-108602Y134327D01*
X-106973Y132697D01*
X-104977Y131545D01*
X-102752Y130949D01*
X-100448D01*
X-98222Y131545D01*
X-96227Y132697D01*
X-94598Y134327D01*
X-93446Y136322D01*
X-92850Y138547D01*
Y140851D01*
X-93446Y143077D01*
X-94598Y145072D01*
X-96227Y146701D01*
X-98222Y147853D01*
X-100448Y148449D01*
D02*
G37*
G36*
X38846Y135830D02*
X37354D01*
X35976Y135259D01*
X34921Y134204D01*
X34350Y132826D01*
Y131334D01*
X34921Y129956D01*
X35976Y128901D01*
X37354Y128330D01*
X38846D01*
X40224Y128901D01*
X41279Y129956D01*
X41850Y131334D01*
Y132826D01*
X41279Y134204D01*
X40224Y135259D01*
X38846Y135830D01*
D02*
G37*
G36*
X26146D02*
X24654D01*
X23276Y135259D01*
X22221Y134204D01*
X21650Y132826D01*
Y131334D01*
X22221Y129956D01*
X23276Y128901D01*
X24654Y128330D01*
X26146D01*
X27524Y128901D01*
X28579Y129956D01*
X29150Y131334D01*
Y132826D01*
X28579Y134204D01*
X27524Y135259D01*
X26146Y135830D01*
D02*
G37*
G36*
X13446D02*
X11954D01*
X10576Y135259D01*
X9521Y134204D01*
X8950Y132826D01*
Y131334D01*
X9521Y129956D01*
X10576Y128901D01*
X11954Y128330D01*
X13446D01*
X14824Y128901D01*
X15879Y129956D01*
X16450Y131334D01*
Y132826D01*
X15879Y134204D01*
X14824Y135259D01*
X13446Y135830D01*
D02*
G37*
G36*
X-48784Y132020D02*
X-50276D01*
X-51654Y131449D01*
X-52709Y130394D01*
X-53280Y129016D01*
Y127524D01*
X-52709Y126146D01*
X-51654Y125091D01*
X-50276Y124520D01*
X-48784D01*
X-47406Y125091D01*
X-46351Y126146D01*
X-45780Y127524D01*
Y129016D01*
X-46351Y130394D01*
X-47406Y131449D01*
X-48784Y132020D01*
D02*
G37*
G36*
Y121860D02*
X-50276D01*
X-51654Y121289D01*
X-52709Y120234D01*
X-53280Y118856D01*
Y117364D01*
X-52709Y115986D01*
X-51654Y114931D01*
X-50276Y114360D01*
X-48784D01*
X-47406Y114931D01*
X-46351Y115986D01*
X-45780Y117364D01*
Y118856D01*
X-46351Y120234D01*
X-47406Y121289D01*
X-48784Y121860D01*
D02*
G37*
G36*
X102752Y123049D02*
X100448D01*
X98223Y122453D01*
X96228Y121301D01*
X94598Y119672D01*
X93447Y117677D01*
X92850Y115451D01*
Y113147D01*
X93447Y110922D01*
X94598Y108927D01*
X96228Y107297D01*
X98223Y106145D01*
X100448Y105549D01*
X102752D01*
X104978Y106145D01*
X106973Y107297D01*
X108602Y108927D01*
X109754Y110922D01*
X110350Y113147D01*
Y115451D01*
X109754Y117677D01*
X108602Y119672D01*
X106973Y121301D01*
X104978Y122453D01*
X102752Y123049D01*
D02*
G37*
G36*
X-100448D02*
X-102752D01*
X-104977Y122453D01*
X-106973Y121301D01*
X-108602Y119672D01*
X-109754Y117677D01*
X-110350Y115451D01*
Y113147D01*
X-109754Y110922D01*
X-108602Y108927D01*
X-106973Y107297D01*
X-104977Y106145D01*
X-102752Y105549D01*
X-100448D01*
X-98222Y106145D01*
X-96227Y107297D01*
X-94598Y108927D01*
X-93446Y110922D01*
X-92850Y113147D01*
Y115451D01*
X-93446Y117677D01*
X-94598Y119672D01*
X-96227Y121301D01*
X-98222Y122453D01*
X-100448Y123049D01*
D02*
G37*
G36*
X-48784Y111700D02*
X-50276D01*
X-51654Y111129D01*
X-52709Y110074D01*
X-53280Y108696D01*
Y107204D01*
X-52709Y105826D01*
X-51654Y104771D01*
X-50276Y104200D01*
X-48784D01*
X-47406Y104771D01*
X-46351Y105826D01*
X-45780Y107204D01*
Y108696D01*
X-46351Y110074D01*
X-47406Y111129D01*
X-48784Y111700D01*
D02*
G37*
G36*
X48820Y109180D02*
X47320D01*
X45935Y108606D01*
X44874Y107545D01*
X44300Y106160D01*
Y104660D01*
X44874Y103274D01*
X45935Y102214D01*
X47320Y101640D01*
X48820D01*
X50205Y102214D01*
X51266Y103274D01*
X51840Y104660D01*
Y106160D01*
X51266Y107545D01*
X50205Y108606D01*
X48820Y109180D01*
D02*
G37*
G36*
Y99020D02*
X47320D01*
X45935Y98446D01*
X44874Y97386D01*
X44300Y96000D01*
Y94500D01*
X44874Y93115D01*
X45935Y92054D01*
X47320Y91480D01*
X48820D01*
X50205Y92054D01*
X51266Y93115D01*
X51840Y94500D01*
Y96000D01*
X51266Y97386D01*
X50205Y98446D01*
X48820Y99020D01*
D02*
G37*
G36*
X12176Y93920D02*
X10684D01*
X9306Y93349D01*
X8251Y92294D01*
X7680Y90916D01*
Y89424D01*
X8251Y88046D01*
X9306Y86991D01*
X10684Y86420D01*
X12176D01*
X13554Y86991D01*
X14609Y88046D01*
X15180Y89424D01*
Y90916D01*
X14609Y92294D01*
X13554Y93349D01*
X12176Y93920D01*
D02*
G37*
G36*
X-17034Y92650D02*
X-18526D01*
X-19904Y92079D01*
X-20959Y91024D01*
X-21530Y89646D01*
Y88154D01*
X-20959Y86776D01*
X-19904Y85721D01*
X-18526Y85150D01*
X-17034D01*
X-15656Y85721D01*
X-14601Y86776D01*
X-14030Y88154D01*
Y89646D01*
X-14601Y91024D01*
X-15656Y92079D01*
X-17034Y92650D01*
D02*
G37*
G36*
X102752Y97649D02*
X100448D01*
X98223Y97053D01*
X96228Y95901D01*
X94598Y94272D01*
X93447Y92277D01*
X92850Y90051D01*
Y87747D01*
X93447Y85522D01*
X94598Y83527D01*
X96228Y81897D01*
X98223Y80745D01*
X100448Y80149D01*
X102752D01*
X104978Y80745D01*
X106973Y81897D01*
X108602Y83527D01*
X109754Y85522D01*
X110350Y87747D01*
Y90051D01*
X109754Y92277D01*
X108602Y94272D01*
X106973Y95901D01*
X104978Y97053D01*
X102752Y97649D01*
D02*
G37*
G36*
X-100448D02*
X-102752D01*
X-104977Y97053D01*
X-106973Y95901D01*
X-108602Y94272D01*
X-109754Y92277D01*
X-110350Y90051D01*
Y87747D01*
X-109754Y85522D01*
X-108602Y83527D01*
X-106973Y81897D01*
X-104977Y80745D01*
X-102752Y80149D01*
X-100448D01*
X-98222Y80745D01*
X-96227Y81897D01*
X-94598Y83527D01*
X-93446Y85522D01*
X-92850Y87747D01*
Y90051D01*
X-93446Y92277D01*
X-94598Y94272D01*
X-96227Y95901D01*
X-98222Y97053D01*
X-100448Y97649D01*
D02*
G37*
G36*
X29797Y67487D02*
X28006D01*
X26352Y66802D01*
X25087Y65536D01*
X24401Y63882D01*
Y62092D01*
X25087Y60438D01*
X26352Y59172D01*
X28006Y58487D01*
X29797D01*
X31450Y59172D01*
X32716Y60438D01*
X33401Y62092D01*
Y63882D01*
X32716Y65536D01*
X31450Y66802D01*
X29797Y67487D01*
D02*
G37*
G36*
X-28004D02*
X-29794D01*
X-31448Y66802D01*
X-32714Y65536D01*
X-33399Y63882D01*
Y62092D01*
X-32714Y60438D01*
X-31448Y59172D01*
X-29794Y58487D01*
X-28004D01*
X-26350Y59172D01*
X-25084Y60438D01*
X-24399Y62092D01*
Y63882D01*
X-25084Y65536D01*
X-26350Y66802D01*
X-28004Y67487D01*
D02*
G37*
G36*
X43251Y79858D02*
X40813Y79373D01*
X38745Y77992D01*
X37364Y75925D01*
X36879Y73486D01*
Y62486D01*
X37364Y60047D01*
X38745Y57980D01*
X40813Y56599D01*
X43251Y56114D01*
X45690Y56599D01*
X47757Y57980D01*
X49138Y60047D01*
X49624Y62486D01*
Y73486D01*
X49138Y75925D01*
X47757Y77992D01*
X45690Y79373D01*
X43251Y79858D01*
D02*
G37*
G36*
X-43251D02*
X-45690Y79373D01*
X-47757Y77992D01*
X-49138Y75925D01*
X-49624Y73486D01*
Y62486D01*
X-49138Y60047D01*
X-47757Y57980D01*
X-45690Y56599D01*
X-43251Y56114D01*
X-40813Y56599D01*
X-38745Y57980D01*
X-37364Y60047D01*
X-36879Y62486D01*
Y73486D01*
X-37364Y75925D01*
X-38745Y77992D01*
X-40813Y79373D01*
X-43251Y79858D01*
D02*
G37*
G36*
X12180Y57110D02*
X10680D01*
X9294Y56536D01*
X8338Y55579D01*
X7620Y55523D01*
X6902Y55579D01*
X5946Y56536D01*
X4560Y57110D01*
X3060D01*
X1674Y56536D01*
X614Y55476D01*
X40Y54090D01*
Y52590D01*
X614Y51205D01*
X1674Y50144D01*
X3060Y49570D01*
X4560D01*
X5946Y50144D01*
X6902Y51101D01*
X7620Y51157D01*
X8338Y51101D01*
X9294Y50144D01*
X10680Y49570D01*
X12180D01*
X13565Y50144D01*
X14626Y51205D01*
X15200Y52590D01*
Y54090D01*
X14626Y55476D01*
X13565Y56536D01*
X12180Y57110D01*
D02*
G37*
G36*
X-4330D02*
X-5830D01*
X-7215Y56536D01*
X-8172Y55579D01*
X-8890Y55523D01*
X-9608Y55579D01*
X-10565Y56536D01*
X-11950Y57110D01*
X-13450D01*
X-14835Y56536D01*
X-15896Y55476D01*
X-16470Y54090D01*
Y52590D01*
X-15896Y51205D01*
X-14835Y50144D01*
X-13450Y49570D01*
X-11950D01*
X-10565Y50144D01*
X-9608Y51101D01*
X-8890Y51157D01*
X-8172Y51101D01*
X-7215Y50144D01*
X-5830Y49570D01*
X-4330D01*
X-2945Y50144D01*
X-1884Y51205D01*
X-1310Y52590D01*
Y54090D01*
X-1884Y55476D01*
X-2945Y56536D01*
X-4330Y57110D01*
D02*
G37*
G36*
X102752Y72250D02*
X100448D01*
X98222Y71654D01*
X96227Y70502D01*
X94598Y68873D01*
X93446Y66877D01*
X92850Y64652D01*
Y62348D01*
X93446Y60123D01*
X94598Y58127D01*
X96227Y56498D01*
X98222Y55346D01*
X100448Y54750D01*
X102752D01*
X104977Y55346D01*
X106973Y56498D01*
X108602Y58127D01*
X109754Y60123D01*
X110350Y62348D01*
Y64652D01*
X109754Y66877D01*
X108602Y68873D01*
X106973Y70502D01*
X104977Y71654D01*
X102752Y72250D01*
D02*
G37*
G36*
X110350Y46850D02*
X92850D01*
Y29350D01*
X110350D01*
Y46850D01*
D02*
G37*
G36*
X-92830Y46870D02*
X-110370D01*
Y29330D01*
X-92830D01*
Y46870D01*
D02*
G37*
G36*
X56626Y22800D02*
X55134D01*
X53756Y22229D01*
X52701Y21174D01*
X52130Y19796D01*
Y18304D01*
X52701Y16926D01*
X53756Y15871D01*
X55134Y15300D01*
X56626D01*
X58004Y15871D01*
X59059Y16926D01*
X59630Y18304D01*
Y19796D01*
X59059Y21174D01*
X58004Y22229D01*
X56626Y22800D01*
D02*
G37*
G36*
X43251Y36858D02*
X40813Y36373D01*
X38745Y34992D01*
X37364Y32925D01*
X36879Y30486D01*
Y21486D01*
X37364Y19047D01*
X38745Y16980D01*
X40813Y15599D01*
X43251Y15114D01*
X45690Y15599D01*
X47757Y16980D01*
X49138Y19047D01*
X49624Y21486D01*
Y30486D01*
X49138Y32925D01*
X47757Y34992D01*
X45690Y36373D01*
X43251Y36858D01*
D02*
G37*
G36*
X-43251D02*
X-45690Y36373D01*
X-47757Y34992D01*
X-49138Y32925D01*
X-49624Y30486D01*
Y21486D01*
X-49138Y19047D01*
X-47757Y16980D01*
X-45690Y15599D01*
X-43251Y15114D01*
X-40813Y15599D01*
X-38745Y16980D01*
X-37364Y19047D01*
X-36879Y21486D01*
Y30486D01*
X-37364Y32925D01*
X-38745Y34992D01*
X-40813Y36373D01*
X-43251Y36858D01*
D02*
G37*
G36*
X-57674Y10100D02*
X-59166D01*
X-60544Y9529D01*
X-61599Y8474D01*
X-62170Y7096D01*
Y5604D01*
X-61599Y4226D01*
X-60544Y3171D01*
X-59166Y2600D01*
X-57674D01*
X-56296Y3171D01*
X-55241Y4226D01*
X-54670Y5604D01*
Y7096D01*
X-55241Y8474D01*
X-56296Y9529D01*
X-57674Y10100D01*
D02*
G37*
G36*
X-77994D02*
X-79486D01*
X-80864Y9529D01*
X-81919Y8474D01*
X-82490Y7096D01*
Y5604D01*
X-81919Y4226D01*
X-80864Y3171D01*
X-79486Y2600D01*
X-77994D01*
X-76616Y3171D01*
X-75561Y4226D01*
X-74990Y5604D01*
Y7096D01*
X-75561Y8474D01*
X-76616Y9529D01*
X-77994Y10100D01*
D02*
G37*
%LPD*%
D53*
X-101600Y63500D02*
D03*
X101600Y266700D02*
D03*
D58*
X-5080Y198641D02*
D03*
X-10030Y203591D02*
D03*
X-14979Y208540D02*
D03*
Y198641D02*
D03*
X-130Y193691D02*
D03*
X-5080Y188741D02*
D03*
X4820D02*
D03*
X14719Y198641D02*
D03*
X9769Y203591D02*
D03*
X4820Y208540D02*
D03*
X-130Y213490D02*
D03*
X-5080Y218440D02*
D03*
Y208540D02*
D03*
X4820Y198641D02*
D03*
X14719Y208540D02*
D03*
X4820Y218440D02*
D03*
X62230Y39370D02*
D03*
X-68580Y27940D02*
D03*
X-43180Y269361D02*
D03*
X-68580Y267970D02*
D03*
X38100D02*
D03*
X62230Y269240D02*
D03*
X-33020Y93980D02*
D03*
Y86360D02*
D03*
X38100D02*
D03*
X31750Y83820D02*
D03*
X-43267Y173832D02*
D03*
X-72390Y165100D02*
D03*
X-24130Y252730D02*
D03*
X-36830D02*
D03*
X53340Y221930D02*
D03*
X-66040Y140970D02*
D03*
X-12700Y138430D02*
D03*
X-1270D02*
D03*
X38100Y167640D02*
D03*
X27940D02*
D03*
X48260Y151130D02*
D03*
Y140970D02*
D03*
X7620Y17780D02*
D03*
X-8890D02*
D03*
M02*
