G04*
G04 #@! TF.GenerationSoftware,Altium Limited,Altium Designer,23.4.1 (23)*
G04*
G04 Layer_Physical_Order=3*
G04 Layer_Color=16440176*
%FSLAX44Y44*%
%MOMM*%
G71*
G04*
G04 #@! TF.SameCoordinates,DEFA907D-C73D-477E-9BAD-7C3FCEA48035*
G04*
G04*
G04 #@! TF.FilePolarity,Positive*
G04*
G01*
G75*
%ADD53C,1.5000*%
%ADD54R,1.5000X1.5000*%
%ADD58C,0.5000*%
G36*
X114300Y0D02*
X-114300D01*
Y76200D01*
X-50390D01*
X-49357Y74930D01*
X-49644Y73486D01*
Y62486D01*
X-49157Y60040D01*
X-47772Y57965D01*
X-45697Y56580D01*
X-43251Y56093D01*
X-40805Y56580D01*
X-38731Y57965D01*
X-37345Y60040D01*
X-36858Y62486D01*
Y73486D01*
X-37345Y75932D01*
X-37755Y76545D01*
X-31314Y82986D01*
X-30884Y83164D01*
X-29824Y84225D01*
X-29646Y84654D01*
X8890Y123190D01*
X96919D01*
X97260Y121920D01*
X96215Y121317D01*
X94583Y119684D01*
X93428Y117684D01*
X92830Y115454D01*
Y113145D01*
X93428Y110914D01*
X94583Y108914D01*
X96215Y107282D01*
X98215Y106127D01*
X100446Y105529D01*
X102755D01*
X104985Y106127D01*
X106985Y107282D01*
X108618Y108914D01*
X109773Y110914D01*
X110370Y113145D01*
Y115454D01*
X109773Y117684D01*
X108618Y119684D01*
X106985Y121317D01*
X105941Y121920D01*
X106281Y123190D01*
X114300D01*
Y0D01*
D02*
G37*
G36*
Y127000D02*
X7700D01*
X-29560Y89740D01*
X-30085Y89914D01*
X-30361Y91336D01*
X-29841Y91856D01*
X-29270Y93234D01*
Y94726D01*
X-29841Y96104D01*
X-30896Y97159D01*
X-32274Y97730D01*
X-33766D01*
X-35144Y97159D01*
X-36199Y96104D01*
X-36770Y94726D01*
Y93234D01*
X-36199Y91856D01*
X-35224Y90881D01*
X-35182Y90170D01*
X-35224Y89459D01*
X-36199Y88484D01*
X-36770Y87106D01*
Y85614D01*
X-36199Y84236D01*
X-35632Y83668D01*
X-39290Y80010D01*
X-96956Y80010D01*
X-97297Y81280D01*
X-96227Y81897D01*
X-94598Y83527D01*
X-93446Y85522D01*
X-92850Y87747D01*
Y90051D01*
X-93446Y92277D01*
X-94598Y94272D01*
X-96227Y95901D01*
X-98222Y97053D01*
X-100448Y97649D01*
X-102752D01*
X-104977Y97053D01*
X-106973Y95901D01*
X-108602Y94272D01*
X-109754Y92277D01*
X-110350Y90051D01*
Y87747D01*
X-109754Y85522D01*
X-108602Y83527D01*
X-106973Y81897D01*
X-105903Y81280D01*
X-106243Y80010D01*
X-114300D01*
Y304800D01*
X114300D01*
Y127000D01*
D02*
G37*
%LPC*%
G36*
X38850Y90130D02*
X37350D01*
X35965Y89556D01*
X34904Y88496D01*
X34681Y87957D01*
X34013Y87167D01*
X33148Y87322D01*
X32500Y87590D01*
X31000D01*
X29615Y87016D01*
X28554Y85955D01*
X27980Y84570D01*
Y83070D01*
X28554Y81685D01*
X29615Y80624D01*
X31000Y80050D01*
X32500D01*
X33886Y80624D01*
X34946Y81685D01*
X35169Y82223D01*
X35837Y83013D01*
X36702Y82858D01*
X37350Y82590D01*
X38850D01*
X40236Y83164D01*
X41296Y84225D01*
X41870Y85610D01*
Y87110D01*
X41296Y88496D01*
X40236Y89556D01*
X38850Y90130D01*
D02*
G37*
G36*
X12180Y93940D02*
X10680D01*
X9294Y93366D01*
X8234Y92305D01*
X7660Y90920D01*
Y89420D01*
X8234Y88034D01*
X9294Y86974D01*
X10680Y86400D01*
X12180D01*
X13565Y86974D01*
X14626Y88034D01*
X15200Y89420D01*
Y90920D01*
X14626Y92305D01*
X13565Y93366D01*
X12180Y93940D01*
D02*
G37*
G36*
X-17030Y92670D02*
X-18530D01*
X-19915Y92096D01*
X-20976Y91035D01*
X-21550Y89650D01*
Y88150D01*
X-20976Y86764D01*
X-19915Y85704D01*
X-18530Y85130D01*
X-17030D01*
X-15645Y85704D01*
X-14584Y86764D01*
X-14010Y88150D01*
Y89650D01*
X-14584Y91035D01*
X-15645Y92096D01*
X-17030Y92670D01*
D02*
G37*
G36*
X102755Y97669D02*
X100446D01*
X98215Y97072D01*
X96215Y95917D01*
X94583Y94284D01*
X93428Y92284D01*
X92830Y90054D01*
Y87745D01*
X93428Y85514D01*
X94583Y83514D01*
X96215Y81882D01*
X98215Y80727D01*
X100446Y80129D01*
X102755D01*
X104985Y80727D01*
X106985Y81882D01*
X108618Y83514D01*
X109773Y85514D01*
X110370Y87745D01*
Y90054D01*
X109773Y92284D01*
X108618Y94284D01*
X106985Y95917D01*
X104985Y97072D01*
X102755Y97669D01*
D02*
G37*
G36*
X29800Y67507D02*
X28002D01*
X26341Y66819D01*
X25070Y65547D01*
X24381Y63886D01*
Y62088D01*
X25070Y60427D01*
X26341Y59155D01*
X28002Y58467D01*
X29800D01*
X31462Y59155D01*
X32733Y60427D01*
X33421Y62088D01*
Y63886D01*
X32733Y65547D01*
X31462Y66819D01*
X29800Y67507D01*
D02*
G37*
G36*
X-28000D02*
X-29798D01*
X-31459Y66819D01*
X-32731Y65547D01*
X-33419Y63886D01*
Y62088D01*
X-32731Y60427D01*
X-31459Y59155D01*
X-29798Y58467D01*
X-28000D01*
X-26339Y59155D01*
X-25067Y60427D01*
X-24379Y62088D01*
Y63886D01*
X-25067Y65547D01*
X-26339Y66819D01*
X-28000Y67507D01*
D02*
G37*
G36*
X43251Y79879D02*
X40805Y79392D01*
X38731Y78006D01*
X37345Y75932D01*
X36858Y73486D01*
Y62486D01*
X37345Y60040D01*
X38731Y57965D01*
X40805Y56580D01*
X43251Y56093D01*
X45697Y56580D01*
X47772Y57965D01*
X49157Y60040D01*
X49644Y62486D01*
Y73486D01*
X49157Y75932D01*
X47772Y78006D01*
X45697Y79392D01*
X43251Y79879D01*
D02*
G37*
G36*
X102754Y72270D02*
X100445D01*
X98215Y71672D01*
X96215Y70518D01*
X94582Y68885D01*
X93427Y66885D01*
X92830Y64655D01*
Y62345D01*
X93427Y60115D01*
X94582Y58115D01*
X96215Y56482D01*
X98215Y55328D01*
X100445Y54730D01*
X102754D01*
X104985Y55328D01*
X106985Y56482D01*
X108617Y58115D01*
X109772Y60115D01*
X110370Y62345D01*
Y64655D01*
X109772Y66885D01*
X108617Y68885D01*
X106985Y70518D01*
X104985Y71672D01*
X102754Y72270D01*
D02*
G37*
G36*
X-100446D02*
X-102755D01*
X-104985Y71672D01*
X-106985Y70518D01*
X-108618Y68885D01*
X-109773Y66885D01*
X-110370Y64655D01*
Y62345D01*
X-109773Y60115D01*
X-108618Y58115D01*
X-106985Y56482D01*
X-104985Y55328D01*
X-102755Y54730D01*
X-100446D01*
X-98215Y55328D01*
X-96215Y56482D01*
X-94583Y58115D01*
X-93428Y60115D01*
X-92830Y62345D01*
Y64655D01*
X-93428Y66885D01*
X-94583Y68885D01*
X-96215Y70518D01*
X-98215Y71672D01*
X-100446Y72270D01*
D02*
G37*
G36*
X62980Y43140D02*
X61480D01*
X60094Y42566D01*
X59034Y41505D01*
X58460Y40120D01*
Y38620D01*
X59034Y37234D01*
X60094Y36174D01*
X61480Y35600D01*
X62980D01*
X64366Y36174D01*
X65426Y37234D01*
X66000Y38620D01*
Y40120D01*
X65426Y41505D01*
X64366Y42566D01*
X62980Y43140D01*
D02*
G37*
G36*
X110370Y46870D02*
X92830D01*
Y29330D01*
X110370D01*
Y46870D01*
D02*
G37*
G36*
X-67830Y31710D02*
X-69330D01*
X-70715Y31136D01*
X-71776Y30076D01*
X-72350Y28690D01*
Y27190D01*
X-71776Y25805D01*
X-70715Y24744D01*
X-69330Y24170D01*
X-67830D01*
X-66445Y24744D01*
X-65384Y25805D01*
X-64810Y27190D01*
Y28690D01*
X-65384Y30076D01*
X-66445Y31136D01*
X-67830Y31710D01*
D02*
G37*
G36*
X56630Y22820D02*
X55130D01*
X53745Y22246D01*
X52684Y21186D01*
X52110Y19800D01*
Y18300D01*
X52684Y16914D01*
X53745Y15854D01*
X55130Y15280D01*
X56630D01*
X58015Y15854D01*
X59076Y16914D01*
X59650Y18300D01*
Y19800D01*
X59076Y21186D01*
X58015Y22246D01*
X56630Y22820D01*
D02*
G37*
G36*
X43251Y36879D02*
X40805Y36392D01*
X38731Y35006D01*
X37345Y32932D01*
X36858Y30486D01*
Y21486D01*
X37345Y19040D01*
X38731Y16966D01*
X40805Y15580D01*
X43251Y15093D01*
X45697Y15580D01*
X47772Y16966D01*
X49157Y19040D01*
X49644Y21486D01*
Y30486D01*
X49157Y32932D01*
X47772Y35006D01*
X45697Y36392D01*
X43251Y36879D01*
D02*
G37*
G36*
X-43251D02*
X-45697Y36392D01*
X-47772Y35006D01*
X-49157Y32932D01*
X-49644Y30486D01*
Y21486D01*
X-49157Y19040D01*
X-47772Y16966D01*
X-45697Y15580D01*
X-43251Y15093D01*
X-40805Y15580D01*
X-38731Y16966D01*
X-37345Y19040D01*
X-36858Y21486D01*
Y30486D01*
X-37345Y32932D01*
X-38731Y35006D01*
X-40805Y36392D01*
X-43251Y36879D01*
D02*
G37*
G36*
X8370Y21550D02*
X6870D01*
X5484Y20976D01*
X4424Y19915D01*
X3850Y18530D01*
Y17030D01*
X4424Y15645D01*
X5484Y14584D01*
X6870Y14010D01*
X8370D01*
X9755Y14584D01*
X10816Y15645D01*
X11390Y17030D01*
Y18530D01*
X10816Y19915D01*
X9755Y20976D01*
X8370Y21550D01*
D02*
G37*
G36*
X-8140D02*
X-9640D01*
X-11026Y20976D01*
X-12086Y19915D01*
X-12660Y18530D01*
Y17030D01*
X-12086Y15645D01*
X-11026Y14584D01*
X-9640Y14010D01*
X-8140D01*
X-6755Y14584D01*
X-5694Y15645D01*
X-5120Y17030D01*
Y18530D01*
X-5694Y19915D01*
X-6755Y20976D01*
X-8140Y21550D01*
D02*
G37*
G36*
X-57670Y10120D02*
X-59170D01*
X-60556Y9546D01*
X-61616Y8486D01*
X-62190Y7100D01*
Y5600D01*
X-61616Y4214D01*
X-60556Y3154D01*
X-59170Y2580D01*
X-57670D01*
X-56284Y3154D01*
X-55224Y4214D01*
X-54650Y5600D01*
Y7100D01*
X-55224Y8486D01*
X-56284Y9546D01*
X-57670Y10120D01*
D02*
G37*
G36*
X-77990D02*
X-79490D01*
X-80876Y9546D01*
X-81936Y8486D01*
X-82510Y7100D01*
Y5600D01*
X-81936Y4214D01*
X-80876Y3154D01*
X-79490Y2580D01*
X-77990D01*
X-76604Y3154D01*
X-75544Y4214D01*
X-74970Y5600D01*
Y7100D01*
X-75544Y8486D01*
X-76604Y9546D01*
X-77990Y10120D01*
D02*
G37*
G36*
X38846Y293310D02*
X37354D01*
X35976Y292739D01*
X34921Y291684D01*
X34350Y290306D01*
Y288814D01*
X34921Y287436D01*
X35976Y286381D01*
X37354Y285810D01*
X38846D01*
X40224Y286381D01*
X41279Y287436D01*
X41850Y288814D01*
Y290306D01*
X41279Y291684D01*
X40224Y292739D01*
X38846Y293310D01*
D02*
G37*
G36*
X-66564Y292040D02*
X-68056D01*
X-69434Y291469D01*
X-70489Y290414D01*
X-71060Y289036D01*
Y287544D01*
X-70489Y286166D01*
X-69434Y285111D01*
X-68056Y284540D01*
X-66564D01*
X-65186Y285111D01*
X-64131Y286166D01*
X-63560Y287544D01*
Y289036D01*
X-64131Y290414D01*
X-65186Y291469D01*
X-66564Y292040D01*
D02*
G37*
G36*
X-42434Y273111D02*
X-43926D01*
X-45304Y272540D01*
X-46359Y271485D01*
X-46930Y270107D01*
Y268615D01*
X-46359Y267237D01*
X-45304Y266182D01*
X-43926Y265611D01*
X-42434D01*
X-41056Y266182D01*
X-40001Y267237D01*
X-39430Y268615D01*
Y270107D01*
X-40001Y271485D01*
X-41056Y272540D01*
X-42434Y273111D01*
D02*
G37*
G36*
X62976Y272990D02*
X61484D01*
X60106Y272419D01*
X59051Y271364D01*
X58480Y269986D01*
Y268494D01*
X59051Y267116D01*
X60106Y266061D01*
X61484Y265490D01*
X62976D01*
X64354Y266061D01*
X65409Y267116D01*
X65980Y268494D01*
Y269986D01*
X65409Y271364D01*
X64354Y272419D01*
X62976Y272990D01*
D02*
G37*
G36*
X38846Y271720D02*
X37354D01*
X35976Y271149D01*
X34921Y270094D01*
X34350Y268716D01*
Y267224D01*
X34921Y265846D01*
X35976Y264791D01*
X37354Y264220D01*
X38846D01*
X40224Y264791D01*
X41279Y265846D01*
X41850Y267224D01*
Y268716D01*
X41279Y270094D01*
X40224Y271149D01*
X38846Y271720D01*
D02*
G37*
G36*
X-67834D02*
X-69326D01*
X-70704Y271149D01*
X-71759Y270094D01*
X-72330Y268716D01*
Y267224D01*
X-71759Y265846D01*
X-70704Y264791D01*
X-69326Y264220D01*
X-67834D01*
X-66456Y264791D01*
X-65401Y265846D01*
X-64830Y267224D01*
Y268716D01*
X-65401Y270094D01*
X-66456Y271149D01*
X-67834Y271720D01*
D02*
G37*
G36*
X102752Y275450D02*
X100448D01*
X98222Y274854D01*
X96227Y273702D01*
X94598Y272073D01*
X93446Y270077D01*
X92850Y267852D01*
Y265548D01*
X93446Y263323D01*
X94598Y261327D01*
X96227Y259698D01*
X98222Y258546D01*
X100448Y257950D01*
X102752D01*
X104977Y258546D01*
X106973Y259698D01*
X108602Y261327D01*
X109754Y263323D01*
X110350Y265548D01*
Y267852D01*
X109754Y270077D01*
X108602Y272073D01*
X106973Y273702D01*
X104977Y274854D01*
X102752Y275450D01*
D02*
G37*
G36*
X-23384Y256480D02*
X-24876D01*
X-26254Y255909D01*
X-27309Y254854D01*
X-27880Y253476D01*
Y251984D01*
X-27309Y250606D01*
X-26254Y249551D01*
X-24876Y248980D01*
X-23384D01*
X-22006Y249551D01*
X-20951Y250606D01*
X-20380Y251984D01*
Y253476D01*
X-20951Y254854D01*
X-22006Y255909D01*
X-23384Y256480D01*
D02*
G37*
G36*
X-36084D02*
X-37576D01*
X-38954Y255909D01*
X-40009Y254854D01*
X-40580Y253476D01*
Y251984D01*
X-40009Y250606D01*
X-38954Y249551D01*
X-37576Y248980D01*
X-36084D01*
X-34706Y249551D01*
X-33651Y250606D01*
X-33080Y251984D01*
Y253476D01*
X-33651Y254854D01*
X-34706Y255909D01*
X-36084Y256480D01*
D02*
G37*
G36*
X-48784Y253940D02*
X-50276D01*
X-51654Y253369D01*
X-52709Y252314D01*
X-53280Y250936D01*
Y249444D01*
X-52709Y248066D01*
X-51654Y247011D01*
X-50276Y246440D01*
X-48784D01*
X-47406Y247011D01*
X-46351Y248066D01*
X-45780Y249444D01*
Y250936D01*
X-46351Y252314D01*
X-47406Y253369D01*
X-48784Y253940D01*
D02*
G37*
G36*
X746Y252670D02*
X-746D01*
X-2124Y252099D01*
X-3179Y251044D01*
X-3750Y249666D01*
Y248174D01*
X-3179Y246796D01*
X-2124Y245741D01*
X-746Y245170D01*
X746D01*
X2124Y245741D01*
X3179Y246796D01*
X3750Y248174D01*
Y249666D01*
X3179Y251044D01*
X2124Y252099D01*
X746Y252670D01*
D02*
G37*
G36*
X19796Y246320D02*
X18304D01*
X16926Y245749D01*
X15871Y244694D01*
X15300Y243316D01*
Y241824D01*
X15871Y240446D01*
X16926Y239391D01*
X18304Y238820D01*
X19796D01*
X21174Y239391D01*
X22229Y240446D01*
X22800Y241824D01*
Y243316D01*
X22229Y244694D01*
X21174Y245749D01*
X19796Y246320D01*
D02*
G37*
G36*
X102752Y250050D02*
X100448D01*
X98222Y249454D01*
X96227Y248302D01*
X94598Y246673D01*
X93446Y244677D01*
X92850Y242452D01*
Y240148D01*
X93446Y237923D01*
X94598Y235927D01*
X96227Y234298D01*
X98222Y233146D01*
X100448Y232550D01*
X102752D01*
X104977Y233146D01*
X106973Y234298D01*
X108602Y235927D01*
X109754Y237923D01*
X110350Y240148D01*
Y242452D01*
X109754Y244677D01*
X108602Y246673D01*
X106973Y248302D01*
X104977Y249454D01*
X102752Y250050D01*
D02*
G37*
G36*
X-100448D02*
X-102752D01*
X-104978Y249454D01*
X-106973Y248302D01*
X-108602Y246673D01*
X-109754Y244677D01*
X-110350Y242452D01*
Y240148D01*
X-109754Y237923D01*
X-108602Y235927D01*
X-106973Y234298D01*
X-104978Y233146D01*
X-102752Y232550D01*
X-100448D01*
X-98223Y233146D01*
X-96228Y234298D01*
X-94598Y235927D01*
X-93447Y237923D01*
X-92850Y240148D01*
Y242452D01*
X-93447Y244677D01*
X-94598Y246673D01*
X-96228Y248302D01*
X-98223Y249454D01*
X-100448Y250050D01*
D02*
G37*
G36*
X-23384Y227270D02*
X-24876D01*
X-26254Y226699D01*
X-27309Y225644D01*
X-27880Y224266D01*
Y222774D01*
X-27309Y221396D01*
X-26254Y220341D01*
X-24876Y219770D01*
X-23384D01*
X-22006Y220341D01*
X-20951Y221396D01*
X-20380Y222774D01*
Y224266D01*
X-20951Y225644D01*
X-22006Y226699D01*
X-23384Y227270D01*
D02*
G37*
G36*
X54086Y225680D02*
X52594D01*
X51216Y225109D01*
X50161Y224054D01*
X49590Y222676D01*
Y221184D01*
X50161Y219806D01*
X51216Y218751D01*
X52594Y218180D01*
X54086D01*
X55464Y218751D01*
X56519Y219806D01*
X57090Y221184D01*
Y222676D01*
X56519Y224054D01*
X55464Y225109D01*
X54086Y225680D01*
D02*
G37*
G36*
X5565Y222190D02*
X4074D01*
X2695Y221619D01*
X1640Y220564D01*
X1069Y219186D01*
Y218414D01*
X742Y217568D01*
X-104Y217240D01*
X-157D01*
X-1003Y217568D01*
X-1330Y218414D01*
Y219186D01*
X-1901Y220564D01*
X-2956Y221619D01*
X-4334Y222190D01*
X-5826D01*
X-7204Y221619D01*
X-8259Y220564D01*
X-8830Y219186D01*
Y217694D01*
X-8259Y216316D01*
X-7204Y215261D01*
X-5826Y214690D01*
X-5054D01*
X-4527Y214486D01*
X-4235Y213792D01*
X-4827Y212378D01*
X-5054Y212290D01*
X-5826D01*
X-7204Y211720D01*
X-8259Y210665D01*
X-8830Y209286D01*
Y208514D01*
X-8917Y208288D01*
X-10332Y207696D01*
X-11026Y207987D01*
X-11229Y208514D01*
Y209286D01*
X-11800Y210665D01*
X-12855Y211720D01*
X-14234Y212290D01*
X-15725D01*
X-17104Y211720D01*
X-18159Y210665D01*
X-18729Y209286D01*
Y207795D01*
X-18159Y206416D01*
X-17104Y205361D01*
X-15725Y204790D01*
X-14953D01*
X-14107Y204463D01*
X-13780Y203617D01*
Y203564D01*
X-14107Y202718D01*
X-14953Y202391D01*
X-15725D01*
X-17104Y201820D01*
X-18159Y200765D01*
X-18729Y199387D01*
Y197895D01*
X-18159Y196517D01*
X-17104Y195462D01*
X-15725Y194891D01*
X-14234D01*
X-12855Y195462D01*
X-11800Y196517D01*
X-11229Y197895D01*
Y198667D01*
X-11026Y199194D01*
X-10332Y199486D01*
X-8917Y198894D01*
X-8830Y198667D01*
Y197895D01*
X-8259Y196517D01*
X-7204Y195462D01*
X-5826Y194891D01*
X-5054D01*
X-4827Y194804D01*
X-4235Y193389D01*
X-4527Y192695D01*
X-5054Y192491D01*
X-5826D01*
X-7204Y191921D01*
X-8259Y190866D01*
X-8830Y189487D01*
Y187996D01*
X-8259Y186617D01*
X-7204Y185562D01*
X-5826Y184991D01*
X-4334D01*
X-2956Y185562D01*
X-1901Y186617D01*
X-1330Y187996D01*
Y188768D01*
X-1003Y189614D01*
X-157Y189941D01*
X-104D01*
X742Y189614D01*
X1069Y188768D01*
Y187996D01*
X1640Y186617D01*
X2695Y185562D01*
X4074Y184991D01*
X5565D01*
X6944Y185562D01*
X7999Y186617D01*
X8569Y187996D01*
Y189487D01*
X7999Y190866D01*
X6944Y191921D01*
X5565Y192491D01*
X4793D01*
X4266Y192695D01*
X3975Y193389D01*
X4567Y194804D01*
X4793Y194891D01*
X5565D01*
X6944Y195462D01*
X7999Y196517D01*
X8569Y197895D01*
Y198667D01*
X8657Y198894D01*
X10071Y199486D01*
X10765Y199194D01*
X10969Y198667D01*
Y197895D01*
X11540Y196517D01*
X12595Y195462D01*
X13973Y194891D01*
X15465D01*
X16843Y195462D01*
X17898Y196517D01*
X18469Y197895D01*
Y199387D01*
X17898Y200765D01*
X16843Y201820D01*
X15465Y202391D01*
X14693D01*
X13846Y202718D01*
X13519Y203564D01*
Y203617D01*
X13846Y204463D01*
X14693Y204790D01*
X15465D01*
X16843Y205361D01*
X17898Y206416D01*
X18469Y207795D01*
Y209286D01*
X17898Y210665D01*
X16843Y211720D01*
X15465Y212290D01*
X13973D01*
X12595Y211720D01*
X11540Y210665D01*
X10969Y209286D01*
Y208514D01*
X10765Y207987D01*
X10071Y207696D01*
X8657Y208288D01*
X8569Y208514D01*
Y209286D01*
X7999Y210665D01*
X6944Y211720D01*
X5565Y212290D01*
X4793D01*
X4567Y212378D01*
X3975Y213792D01*
X4266Y214486D01*
X4793Y214690D01*
X5565D01*
X6944Y215261D01*
X7999Y216316D01*
X8569Y217694D01*
Y219186D01*
X7999Y220564D01*
X6944Y221619D01*
X5565Y222190D01*
D02*
G37*
G36*
X102752Y224650D02*
X100448D01*
X98222Y224054D01*
X96227Y222902D01*
X94598Y221273D01*
X93446Y219277D01*
X92850Y217052D01*
Y214748D01*
X93446Y212523D01*
X94598Y210527D01*
X96227Y208898D01*
X98222Y207746D01*
X100448Y207150D01*
X102752D01*
X104977Y207746D01*
X106973Y208898D01*
X108602Y210527D01*
X109754Y212523D01*
X110350Y214748D01*
Y217052D01*
X109754Y219277D01*
X108602Y221273D01*
X106973Y222902D01*
X104977Y224054D01*
X102752Y224650D01*
D02*
G37*
G36*
X-100448D02*
X-102752D01*
X-104978Y224054D01*
X-106973Y222902D01*
X-108602Y221273D01*
X-109754Y219277D01*
X-110350Y217052D01*
Y214748D01*
X-109754Y212523D01*
X-108602Y210527D01*
X-106973Y208898D01*
X-104978Y207746D01*
X-102752Y207150D01*
X-100448D01*
X-98223Y207746D01*
X-96228Y208898D01*
X-94598Y210527D01*
X-93447Y212523D01*
X-92850Y214748D01*
Y217052D01*
X-93447Y219277D01*
X-94598Y221273D01*
X-96228Y222902D01*
X-98223Y224054D01*
X-100448Y224650D01*
D02*
G37*
G36*
X46282Y195336D02*
X44790D01*
X43412Y194765D01*
X42357Y193710D01*
X41786Y192332D01*
Y190840D01*
X42357Y189462D01*
X43412Y188407D01*
X44790Y187836D01*
X46282D01*
X47660Y188407D01*
X48715Y189462D01*
X49286Y190840D01*
Y192332D01*
X48715Y193710D01*
X47660Y194765D01*
X46282Y195336D01*
D02*
G37*
G36*
X-29734Y191663D02*
X-31226D01*
X-32604Y191092D01*
X-33659Y190038D01*
X-34230Y188659D01*
Y187167D01*
X-35237Y186279D01*
X-36084Y186630D01*
X-37576D01*
X-38954Y186059D01*
X-40009Y185004D01*
X-40580Y183626D01*
Y182134D01*
X-40009Y180756D01*
X-38954Y179701D01*
X-37576Y179130D01*
X-36084D01*
X-34706Y179701D01*
X-33651Y180756D01*
X-33080Y182134D01*
Y183626D01*
X-32073Y184515D01*
X-31226Y184163D01*
X-29734D01*
X-28356Y184734D01*
X-27301Y185789D01*
X-26730Y187167D01*
Y188659D01*
X-27301Y190038D01*
X-28356Y191092D01*
X-29734Y191663D01*
D02*
G37*
G36*
X30339Y189701D02*
X28847D01*
X27469Y189130D01*
X26414Y188076D01*
X25843Y186697D01*
Y185205D01*
X26414Y183827D01*
X27469Y182772D01*
X28847Y182201D01*
X30339D01*
X31718Y182772D01*
X32772Y183827D01*
X33343Y185205D01*
Y186697D01*
X32772Y188076D01*
X31718Y189130D01*
X30339Y189701D01*
D02*
G37*
G36*
X102752Y199250D02*
X100448D01*
X98222Y198654D01*
X96227Y197502D01*
X94598Y195873D01*
X93446Y193877D01*
X92850Y191652D01*
Y189348D01*
X93446Y187123D01*
X94598Y185127D01*
X96227Y183498D01*
X98222Y182346D01*
X100448Y181750D01*
X102752D01*
X104977Y182346D01*
X106973Y183498D01*
X108602Y185127D01*
X109754Y187123D01*
X110350Y189348D01*
Y191652D01*
X109754Y193877D01*
X108602Y195873D01*
X106973Y197502D01*
X104977Y198654D01*
X102752Y199250D01*
D02*
G37*
G36*
X-100448D02*
X-102752D01*
X-104978Y198654D01*
X-106973Y197502D01*
X-108602Y195873D01*
X-109754Y193877D01*
X-110350Y191652D01*
Y189348D01*
X-109754Y187123D01*
X-108602Y185127D01*
X-106973Y183498D01*
X-104978Y182346D01*
X-102752Y181750D01*
X-100448D01*
X-98223Y182346D01*
X-96228Y183498D01*
X-94598Y185127D01*
X-93447Y187123D01*
X-92850Y189348D01*
Y191652D01*
X-93447Y193877D01*
X-94598Y195873D01*
X-96228Y197502D01*
X-98223Y198654D01*
X-100448Y199250D01*
D02*
G37*
G36*
X-44974Y187900D02*
X-46466D01*
X-47844Y187329D01*
X-48899Y186274D01*
X-49470Y184896D01*
Y183404D01*
X-48899Y182026D01*
X-47844Y180971D01*
X-46466Y180400D01*
X-44974D01*
X-43596Y180971D01*
X-42541Y182026D01*
X-41970Y183404D01*
Y184896D01*
X-42541Y186274D01*
X-43596Y187329D01*
X-44974Y187900D01*
D02*
G37*
G36*
X-19154Y178389D02*
X-20646D01*
X-22024Y177818D01*
X-23079Y176763D01*
X-23650Y175385D01*
Y173893D01*
X-23079Y172514D01*
X-22024Y171460D01*
X-20646Y170889D01*
X-19154D01*
X-17776Y171460D01*
X-16721Y172514D01*
X-16150Y173893D01*
Y175385D01*
X-16721Y176763D01*
X-17776Y177818D01*
X-19154Y178389D01*
D02*
G37*
G36*
X-42521Y177582D02*
X-44013D01*
X-45391Y177011D01*
X-46446Y175956D01*
X-47017Y174578D01*
Y173086D01*
X-46446Y171708D01*
X-45391Y170653D01*
X-44013Y170082D01*
X-42521D01*
X-41143Y170653D01*
X-40088Y171708D01*
X-39517Y173086D01*
Y174578D01*
X-40088Y175956D01*
X-41143Y177011D01*
X-42521Y177582D01*
D02*
G37*
G36*
X38846Y171390D02*
X37354D01*
X35976Y170819D01*
X34921Y169764D01*
X34350Y168386D01*
Y166894D01*
X34921Y165516D01*
X35976Y164461D01*
X37354Y163890D01*
X38846D01*
X40224Y164461D01*
X41279Y165516D01*
X41850Y166894D01*
Y168386D01*
X41279Y169764D01*
X40224Y170819D01*
X38846Y171390D01*
D02*
G37*
G36*
X28686D02*
X27194D01*
X25816Y170819D01*
X24761Y169764D01*
X24190Y168386D01*
Y166894D01*
X24761Y165516D01*
X25816Y164461D01*
X27194Y163890D01*
X28686D01*
X30064Y164461D01*
X31119Y165516D01*
X31690Y166894D01*
Y168386D01*
X31119Y169764D01*
X30064Y170819D01*
X28686Y171390D01*
D02*
G37*
G36*
X-71644Y168850D02*
X-73136D01*
X-74514Y168279D01*
X-75569Y167224D01*
X-76140Y165846D01*
Y164354D01*
X-75569Y162976D01*
X-74514Y161921D01*
X-73136Y161350D01*
X-71644D01*
X-70266Y161921D01*
X-69211Y162976D01*
X-68640Y164354D01*
Y165846D01*
X-69211Y167224D01*
X-70266Y168279D01*
X-71644Y168850D01*
D02*
G37*
G36*
X102752Y173849D02*
X100448D01*
X98223Y173253D01*
X96228Y172101D01*
X94598Y170472D01*
X93447Y168477D01*
X92850Y166251D01*
Y163947D01*
X93447Y161722D01*
X94598Y159727D01*
X96228Y158097D01*
X98223Y156945D01*
X100448Y156349D01*
X102752D01*
X104978Y156945D01*
X106973Y158097D01*
X108602Y159727D01*
X109754Y161722D01*
X110350Y163947D01*
Y166251D01*
X109754Y168477D01*
X108602Y170472D01*
X106973Y172101D01*
X104978Y173253D01*
X102752Y173849D01*
D02*
G37*
G36*
X-100448D02*
X-102752D01*
X-104977Y173253D01*
X-106973Y172101D01*
X-108602Y170472D01*
X-109754Y168477D01*
X-110350Y166251D01*
Y163947D01*
X-109754Y161722D01*
X-108602Y159727D01*
X-106973Y158097D01*
X-104977Y156945D01*
X-102752Y156349D01*
X-100448D01*
X-98222Y156945D01*
X-96227Y158097D01*
X-94598Y159727D01*
X-93446Y161722D01*
X-92850Y163947D01*
Y166251D01*
X-93446Y168477D01*
X-94598Y170472D01*
X-96227Y172101D01*
X-98222Y173253D01*
X-100448Y173849D01*
D02*
G37*
G36*
X-51324Y159960D02*
X-52816D01*
X-54194Y159389D01*
X-55249Y158334D01*
X-55820Y156956D01*
Y155464D01*
X-55249Y154086D01*
X-54194Y153031D01*
X-52816Y152460D01*
X-51324D01*
X-49946Y153031D01*
X-48891Y154086D01*
X-48320Y155464D01*
Y156956D01*
X-48891Y158334D01*
X-49946Y159389D01*
X-51324Y159960D01*
D02*
G37*
G36*
X-64024Y157420D02*
X-65516D01*
X-66894Y156849D01*
X-67949Y155794D01*
X-68520Y154416D01*
Y152924D01*
X-67949Y151546D01*
X-66894Y150491D01*
X-65516Y149920D01*
X-64024D01*
X-62646Y150491D01*
X-61591Y151546D01*
X-61020Y152924D01*
Y154416D01*
X-61591Y155794D01*
X-62646Y156849D01*
X-64024Y157420D01*
D02*
G37*
G36*
X49006Y154880D02*
X47514D01*
X46136Y154309D01*
X45081Y153254D01*
X44510Y151876D01*
Y150384D01*
X45081Y149006D01*
X46136Y147951D01*
X47514Y147380D01*
X49006D01*
X50384Y147951D01*
X51439Y149006D01*
X52010Y150384D01*
Y151876D01*
X51439Y153254D01*
X50384Y154309D01*
X49006Y154880D01*
D02*
G37*
G36*
Y144720D02*
X47514D01*
X46136Y144149D01*
X45081Y143094D01*
X44510Y141716D01*
Y140224D01*
X45081Y138846D01*
X46136Y137791D01*
X47514Y137220D01*
X49006D01*
X50384Y137791D01*
X51439Y138846D01*
X52010Y140224D01*
Y141716D01*
X51439Y143094D01*
X50384Y144149D01*
X49006Y144720D01*
D02*
G37*
G36*
X-65294D02*
X-66786D01*
X-68164Y144149D01*
X-69219Y143094D01*
X-69790Y141716D01*
Y140224D01*
X-69219Y138846D01*
X-68164Y137791D01*
X-66786Y137220D01*
X-65294D01*
X-63916Y137791D01*
X-62861Y138846D01*
X-62290Y140224D01*
Y141716D01*
X-62861Y143094D01*
X-63916Y144149D01*
X-65294Y144720D01*
D02*
G37*
G36*
X-524Y142180D02*
X-2016D01*
X-3394Y141609D01*
X-4449Y140554D01*
X-5020Y139176D01*
Y137684D01*
X-4449Y136306D01*
X-3394Y135251D01*
X-2016Y134680D01*
X-524D01*
X854Y135251D01*
X1909Y136306D01*
X2480Y137684D01*
Y139176D01*
X1909Y140554D01*
X854Y141609D01*
X-524Y142180D01*
D02*
G37*
G36*
X-11954D02*
X-13446D01*
X-14824Y141609D01*
X-15879Y140554D01*
X-16450Y139176D01*
Y137684D01*
X-15879Y136306D01*
X-14824Y135251D01*
X-13446Y134680D01*
X-11954D01*
X-10576Y135251D01*
X-9521Y136306D01*
X-8950Y137684D01*
Y139176D01*
X-9521Y140554D01*
X-10576Y141609D01*
X-11954Y142180D01*
D02*
G37*
G36*
X102752Y148449D02*
X100448D01*
X98223Y147853D01*
X96228Y146701D01*
X94598Y145072D01*
X93447Y143077D01*
X92850Y140851D01*
Y138547D01*
X93447Y136322D01*
X94598Y134327D01*
X96228Y132697D01*
X98223Y131545D01*
X100448Y130949D01*
X102752D01*
X104978Y131545D01*
X106973Y132697D01*
X108602Y134327D01*
X109754Y136322D01*
X110350Y138547D01*
Y140851D01*
X109754Y143077D01*
X108602Y145072D01*
X106973Y146701D01*
X104978Y147853D01*
X102752Y148449D01*
D02*
G37*
G36*
X-100448D02*
X-102752D01*
X-104977Y147853D01*
X-106973Y146701D01*
X-108602Y145072D01*
X-109754Y143077D01*
X-110350Y140851D01*
Y138547D01*
X-109754Y136322D01*
X-108602Y134327D01*
X-106973Y132697D01*
X-104977Y131545D01*
X-102752Y130949D01*
X-100448D01*
X-98222Y131545D01*
X-96227Y132697D01*
X-94598Y134327D01*
X-93446Y136322D01*
X-92850Y138547D01*
Y140851D01*
X-93446Y143077D01*
X-94598Y145072D01*
X-96227Y146701D01*
X-98222Y147853D01*
X-100448Y148449D01*
D02*
G37*
G36*
Y123049D02*
X-102752D01*
X-104977Y122453D01*
X-106973Y121301D01*
X-108602Y119672D01*
X-109754Y117677D01*
X-110350Y115451D01*
Y113147D01*
X-109754Y110922D01*
X-108602Y108927D01*
X-106973Y107297D01*
X-104977Y106145D01*
X-102752Y105549D01*
X-100448D01*
X-98222Y106145D01*
X-96227Y107297D01*
X-94598Y108927D01*
X-93446Y110922D01*
X-92850Y113147D01*
Y115451D01*
X-93446Y117677D01*
X-94598Y119672D01*
X-96227Y121301D01*
X-98222Y122453D01*
X-100448Y123049D01*
D02*
G37*
%LPD*%
D53*
X-101600Y266700D02*
D03*
D54*
Y38100D02*
D03*
D58*
X48070Y105410D02*
D03*
Y95250D02*
D03*
X31872Y247676D02*
D03*
X-41910Y297180D02*
D03*
X63500D02*
D03*
X-49530Y138430D02*
D03*
X-36830Y223520D02*
D03*
X-49610Y223600D02*
D03*
X31750Y221930D02*
D03*
X-22860Y160020D02*
D03*
X-11430D02*
D03*
X12700Y132080D02*
D03*
X25400D02*
D03*
X38100D02*
D03*
X-49530Y107950D02*
D03*
Y118110D02*
D03*
Y128270D02*
D03*
X-5080Y53340D02*
D03*
X3810D02*
D03*
X-12700D02*
D03*
X11430D02*
D03*
M02*
