G04*
G04 #@! TF.GenerationSoftware,Altium Limited,Altium Designer,23.4.1 (23)*
G04*
G04 Layer_Physical_Order=4*
G04 Layer_Color=16711680*
%FSLAX44Y44*%
%MOMM*%
G71*
G04*
G04 #@! TF.SameCoordinates,DEFA907D-C73D-477E-9BAD-7C3FCEA48035*
G04*
G04*
G04 #@! TF.FilePolarity,Positive*
G04*
G01*
G75*
%ADD10C,0.2000*%
G04:AMPARAMS|DCode=18|XSize=0.5mm|YSize=0.6mm|CornerRadius=0.0375mm|HoleSize=0mm|Usage=FLASHONLY|Rotation=270.000|XOffset=0mm|YOffset=0mm|HoleType=Round|Shape=RoundedRectangle|*
%AMROUNDEDRECTD18*
21,1,0.5000,0.5250,0,0,270.0*
21,1,0.4250,0.6000,0,0,270.0*
1,1,0.0750,-0.2625,-0.2125*
1,1,0.0750,-0.2625,0.2125*
1,1,0.0750,0.2625,0.2125*
1,1,0.0750,0.2625,-0.2125*
%
%ADD18ROUNDEDRECTD18*%
G04:AMPARAMS|DCode=20|XSize=0.5mm|YSize=0.5mm|CornerRadius=0.0625mm|HoleSize=0mm|Usage=FLASHONLY|Rotation=270.000|XOffset=0mm|YOffset=0mm|HoleType=Round|Shape=RoundedRectangle|*
%AMROUNDEDRECTD20*
21,1,0.5000,0.3750,0,0,270.0*
21,1,0.3750,0.5000,0,0,270.0*
1,1,0.1250,-0.1875,-0.1875*
1,1,0.1250,-0.1875,0.1875*
1,1,0.1250,0.1875,0.1875*
1,1,0.1250,0.1875,-0.1875*
%
%ADD20ROUNDEDRECTD20*%
G04:AMPARAMS|DCode=23|XSize=0.8mm|YSize=0.9mm|CornerRadius=0.06mm|HoleSize=0mm|Usage=FLASHONLY|Rotation=0.000|XOffset=0mm|YOffset=0mm|HoleType=Round|Shape=RoundedRectangle|*
%AMROUNDEDRECTD23*
21,1,0.8000,0.7800,0,0,0.0*
21,1,0.6800,0.9000,0,0,0.0*
1,1,0.1200,0.3400,-0.3900*
1,1,0.1200,-0.3400,-0.3900*
1,1,0.1200,-0.3400,0.3900*
1,1,0.1200,0.3400,0.3900*
%
%ADD23ROUNDEDRECTD23*%
G04:AMPARAMS|DCode=24|XSize=0.9mm|YSize=0.8mm|CornerRadius=0.06mm|HoleSize=0mm|Usage=FLASHONLY|Rotation=180.000|XOffset=0mm|YOffset=0mm|HoleType=Round|Shape=RoundedRectangle|*
%AMROUNDEDRECTD24*
21,1,0.9000,0.6800,0,0,180.0*
21,1,0.7800,0.8000,0,0,180.0*
1,1,0.1200,-0.3900,0.3400*
1,1,0.1200,0.3900,0.3400*
1,1,0.1200,0.3900,-0.3400*
1,1,0.1200,-0.3900,-0.3400*
%
%ADD24ROUNDEDRECTD24*%
%ADD49C,0.1764*%
%ADD50C,0.3000*%
%ADD51C,0.5000*%
%ADD52C,0.2032*%
%ADD53C,1.5000*%
%ADD54R,1.5000X1.5000*%
%ADD55O,1.0000X2.1000*%
%ADD56O,1.0000X1.9000*%
%ADD57C,0.6500*%
%ADD58C,0.5000*%
%ADD59R,0.9000X0.8000*%
G04:AMPARAMS|DCode=60|XSize=1.5mm|YSize=2mm|CornerRadius=0.1875mm|HoleSize=0mm|Usage=FLASHONLY|Rotation=270.000|XOffset=0mm|YOffset=0mm|HoleType=Round|Shape=RoundedRectangle|*
%AMROUNDEDRECTD60*
21,1,1.5000,1.6250,0,0,270.0*
21,1,1.1250,2.0000,0,0,270.0*
1,1,0.3750,-0.8125,-0.5625*
1,1,0.3750,-0.8125,0.5625*
1,1,0.3750,0.8125,0.5625*
1,1,0.3750,0.8125,-0.5625*
%
%ADD60ROUNDEDRECTD60*%
G04:AMPARAMS|DCode=61|XSize=3.8mm|YSize=2mm|CornerRadius=0.05mm|HoleSize=0mm|Usage=FLASHONLY|Rotation=270.000|XOffset=0mm|YOffset=0mm|HoleType=Round|Shape=RoundedRectangle|*
%AMROUNDEDRECTD61*
21,1,3.8000,1.9000,0,0,270.0*
21,1,3.7000,2.0000,0,0,270.0*
1,1,0.1000,-0.9500,-1.8500*
1,1,0.1000,-0.9500,1.8500*
1,1,0.1000,0.9500,1.8500*
1,1,0.1000,0.9500,-1.8500*
%
%ADD61ROUNDEDRECTD61*%
G04:AMPARAMS|DCode=62|XSize=0.95mm|YSize=1.4mm|CornerRadius=0.0712mm|HoleSize=0mm|Usage=FLASHONLY|Rotation=270.000|XOffset=0mm|YOffset=0mm|HoleType=Round|Shape=RoundedRectangle|*
%AMROUNDEDRECTD62*
21,1,0.9500,1.2575,0,0,270.0*
21,1,0.8075,1.4000,0,0,270.0*
1,1,0.1425,-0.6288,-0.4037*
1,1,0.1425,-0.6288,0.4037*
1,1,0.1425,0.6288,0.4037*
1,1,0.1425,0.6288,-0.4037*
%
%ADD62ROUNDEDRECTD62*%
G04:AMPARAMS|DCode=63|XSize=0.9mm|YSize=0.8mm|CornerRadius=0.06mm|HoleSize=0mm|Usage=FLASHONLY|Rotation=90.000|XOffset=0mm|YOffset=0mm|HoleType=Round|Shape=RoundedRectangle|*
%AMROUNDEDRECTD63*
21,1,0.9000,0.6800,0,0,90.0*
21,1,0.7800,0.8000,0,0,90.0*
1,1,0.1200,0.3400,0.3900*
1,1,0.1200,0.3400,-0.3900*
1,1,0.1200,-0.3400,-0.3900*
1,1,0.1200,-0.3400,0.3900*
%
%ADD63ROUNDEDRECTD63*%
%ADD64C,0.1816*%
G36*
X-20955Y104140D02*
X-73025D01*
Y119380D01*
X-57785D01*
X-53975Y123190D01*
Y142240D01*
X-20955Y142240D01*
Y104140D01*
D02*
G37*
G36*
X-23670Y171700D02*
X-26670Y173950D01*
X-29670Y171700D01*
X-29670Y175200D01*
Y176200D01*
X-23670D01*
X-23670Y171700D01*
D02*
G37*
G36*
X-23670Y169700D02*
Y167700D01*
X-29670D01*
Y169700D01*
X-26670Y171950D01*
X-23670Y169700D01*
D02*
G37*
G36*
X76200Y135890D02*
Y125730D01*
X60960D01*
Y130810D01*
X54610Y137160D01*
X21590D01*
Y154940D01*
X54610Y154940D01*
X57150D01*
X57150Y154940D01*
X76200Y135890D01*
D02*
G37*
G36*
X41910Y115570D02*
X21590D01*
Y134620D01*
X41910D01*
Y115570D01*
D02*
G37*
G36*
X76200Y110490D02*
X57150Y91440D01*
X57150Y91440D01*
X54610D01*
X21590Y91440D01*
Y109220D01*
X54610D01*
X60960Y115570D01*
Y120650D01*
X76200D01*
Y110490D01*
D02*
G37*
D10*
X-46532Y184150D02*
X-45720D01*
X-71120Y185420D02*
X-47802D01*
X-46532Y184150D01*
X-72390Y241300D02*
X-54610Y259080D01*
X-10160D02*
X0Y248920D01*
X-54610Y259080D02*
X-10160D01*
X-60509Y264611D02*
X-2991D01*
X-101600Y241300D02*
X-83820D01*
X-60509Y264611D01*
X-72390Y219710D02*
Y241300D01*
X-2991Y264611D02*
X19050Y242570D01*
X-101600Y190500D02*
X-72390Y219710D01*
X-101600Y114299D02*
X-88900Y126999D01*
Y187960D01*
X-80010Y196850D01*
X-39417D01*
X-30480Y187913D01*
X-73660Y191770D02*
X-45720D01*
X-36830Y182880D01*
X-82550Y107949D02*
Y182880D01*
X-73660Y191770D01*
X-63610Y175180D02*
X-62260Y176530D01*
X-77112Y175436D02*
Y179428D01*
X-71120Y185420D01*
X-77368Y175180D02*
X-77112Y175436D01*
X-101600Y88899D02*
X-82550Y107949D01*
X-49530Y249555D02*
Y250190D01*
Y249555D02*
X-24130Y224155D01*
Y223520D02*
Y224155D01*
X20320Y176530D02*
X29593Y185803D01*
Y185951D01*
X-77368Y175180D02*
X-63610D01*
X11430Y90170D02*
X16510Y85090D01*
Y35170D02*
Y85090D01*
X-17780Y35170D02*
Y88900D01*
X-3810Y176530D02*
X20320D01*
X-35560Y166450D02*
X-26670D01*
X-47340D02*
X-35560D01*
X-48260Y165530D02*
X-47340Y166450D01*
D18*
X-26670Y176450D02*
D03*
Y166450D02*
D03*
X-3810Y176530D02*
D03*
Y166530D02*
D03*
D20*
X-77470Y175100D02*
D03*
Y165100D02*
D03*
X-36830Y166450D02*
D03*
Y176450D02*
D03*
D23*
X62110Y276860D02*
D03*
X47110D02*
D03*
X-43300D02*
D03*
X-58300D02*
D03*
D24*
X46110Y289560D02*
D03*
X63110D02*
D03*
X-59300D02*
D03*
X-42300D02*
D03*
D49*
X45536Y191586D02*
X66040Y212090D01*
X46860Y265560D02*
X66040Y246380D01*
Y212090D02*
Y246380D01*
X-60570Y288290D02*
X-59300Y289560D01*
X-67310Y288290D02*
X-60570D01*
X-58550Y277110D02*
X-58300Y276860D01*
X-58550Y277110D02*
Y288810D01*
X-59300Y289560D02*
X-58550Y288810D01*
X38100Y289560D02*
X46110D01*
X46860Y265560D02*
Y288810D01*
X46110Y289560D02*
X46860Y288810D01*
D50*
X-22860Y160020D02*
X-11430D01*
X-42300Y289560D02*
X-42105Y289755D01*
Y296985D01*
X-41910Y297180D01*
X63110Y289560D02*
X63305Y289755D01*
Y296985D01*
X63500Y297180D01*
D51*
X-43180Y269361D02*
Y276740D01*
X-43300Y276860D02*
X-43180Y276740D01*
X62110Y276860D02*
X62230Y276740D01*
Y269240D02*
Y276740D01*
X-78740Y28830D02*
X-77777Y27867D01*
X-68653D01*
X-68580Y27940D01*
X-59406Y27834D02*
X-58420Y28820D01*
X-68474Y27834D02*
X-59406D01*
X-77470Y165180D02*
X-62610D01*
X-66040Y132800D02*
Y140970D01*
X-4310Y166530D02*
X-3810D01*
X-10820Y160020D02*
X-4310Y166530D01*
X-11430Y160020D02*
X-10820D01*
X16120Y17780D02*
X16510Y18170D01*
X7620Y17780D02*
X16120D01*
X-17780Y18170D02*
X-17390Y17780D01*
X-8890D01*
X-62610Y165180D02*
X-62260Y165530D01*
X-48180Y176450D02*
X-36830D01*
X-48260Y176530D02*
X-48180Y176450D01*
D52*
X-21195Y176135D02*
X-19900Y174840D01*
Y174639D02*
Y174840D01*
X-26670Y176450D02*
X-26355Y176135D01*
X-21195D01*
D53*
X-101600Y165099D02*
D03*
Y114299D02*
D03*
Y88899D02*
D03*
X-101600Y63500D02*
D03*
X-101600Y139699D02*
D03*
X-101600Y190500D02*
D03*
Y215900D02*
D03*
Y241300D02*
D03*
Y266700D02*
D03*
X101600Y215900D02*
D03*
Y190500D02*
D03*
X101600Y139699D02*
D03*
X101600Y63500D02*
D03*
X101600Y88899D02*
D03*
Y114299D02*
D03*
Y165099D02*
D03*
X101600Y241300D02*
D03*
Y266700D02*
D03*
D54*
X-101600Y38100D02*
D03*
X101600D02*
D03*
D55*
X-43251Y67986D02*
D03*
X43251D02*
D03*
D56*
X-43251Y25986D02*
D03*
X43251D02*
D03*
D57*
X-28899Y62987D02*
D03*
X28901D02*
D03*
D58*
X-5080Y198641D02*
D03*
X-10030Y203591D02*
D03*
X-14979Y208540D02*
D03*
Y198641D02*
D03*
X-130Y193691D02*
D03*
X-5080Y188741D02*
D03*
X4820D02*
D03*
X14719Y198641D02*
D03*
X9769Y203591D02*
D03*
X4820Y208540D02*
D03*
X-130Y213490D02*
D03*
X-5080Y218440D02*
D03*
Y208540D02*
D03*
X4820Y198641D02*
D03*
X14719Y208540D02*
D03*
X4820Y218440D02*
D03*
X48070Y105410D02*
D03*
Y95250D02*
D03*
X62230Y39370D02*
D03*
X55880Y19050D02*
D03*
X-68580Y27940D02*
D03*
X45536Y191586D02*
D03*
X31872Y247676D02*
D03*
X19050Y242570D02*
D03*
X-43180Y269361D02*
D03*
X0Y248920D02*
D03*
X-41910Y297180D02*
D03*
X-68580Y267970D02*
D03*
X-67310Y288290D02*
D03*
X38100Y267970D02*
D03*
X62230Y269240D02*
D03*
X63500Y297180D02*
D03*
X38100Y289560D02*
D03*
X-52070Y156210D02*
D03*
X-64770Y153670D02*
D03*
X-58420Y6350D02*
D03*
X-78740D02*
D03*
X-33020Y93980D02*
D03*
Y86360D02*
D03*
X38100D02*
D03*
X31750Y83820D02*
D03*
X-43267Y173832D02*
D03*
X-72390Y165100D02*
D03*
X-30480Y187913D02*
D03*
X-36830Y182880D02*
D03*
X-45720Y184150D02*
D03*
X-49530Y138430D02*
D03*
Y250190D02*
D03*
X-24130Y252730D02*
D03*
X-36830D02*
D03*
Y223520D02*
D03*
X-49610Y223600D02*
D03*
X29593Y185951D02*
D03*
X-24130Y223520D02*
D03*
X53340Y221930D02*
D03*
X31750D02*
D03*
X-19900Y174639D02*
D03*
X-22860Y160020D02*
D03*
X-66040Y140970D02*
D03*
X-12700Y138430D02*
D03*
X-1270D02*
D03*
X-11430Y160020D02*
D03*
X38100Y167640D02*
D03*
X27940D02*
D03*
X12700Y132080D02*
D03*
X25400D02*
D03*
X38100D02*
D03*
X48260Y151130D02*
D03*
Y140970D02*
D03*
X-49530Y107950D02*
D03*
Y118110D02*
D03*
Y128270D02*
D03*
X-5080Y53340D02*
D03*
X3810D02*
D03*
X-12700D02*
D03*
X11430D02*
D03*
X7620Y17780D02*
D03*
X-8890D02*
D03*
X-17780Y88900D02*
D03*
X11430Y90170D02*
D03*
D59*
X-64770Y165100D02*
D03*
X-50770Y165100D02*
D03*
X-64770Y176100D02*
D03*
X-50770D02*
D03*
D60*
X31520Y123190D02*
D03*
Y146190D02*
D03*
Y100190D02*
D03*
D61*
X-30480Y123190D02*
D03*
D62*
X68580Y113940D02*
D03*
Y132440D02*
D03*
X-66040Y114300D02*
D03*
Y132800D02*
D03*
D63*
X16510Y18170D02*
D03*
Y35170D02*
D03*
X-17780Y18170D02*
D03*
Y35170D02*
D03*
X-78740Y11820D02*
D03*
Y28820D02*
D03*
X-58420Y11820D02*
D03*
Y28820D02*
D03*
D64*
X-64770Y153670D02*
X-55472D01*
X-52931Y156210D01*
X-52070D01*
M02*
